<?xml version="1.0" encoding="UTF-8" standalone="no"?>
<svg
   xmlns:dc="http://purl.org/dc/elements/1.1/"
   xmlns:cc="http://creativecommons.org/ns#"
   xmlns:rdf="http://www.w3.org/1999/02/22-rdf-syntax-ns#"
   xmlns:svg="http://www.w3.org/2000/svg"
   xmlns="http://www.w3.org/2000/svg"
   xmlns:sodipodi="http://sodipodi.sourceforge.net/DTD/sodipodi-0.dtd"
   xmlns:inkscape="http://www.inkscape.org/namespaces/inkscape"
   inkscape:version="1.0 (4035a4fb49, 2020-05-01)"
   height="140.89999"
   width="196.28999"
   sodipodi:docname="logo.svg"
   version="1.1"
   viewBox="0 0 196.28999 140.9"
   data-name="Layer 1"
   id="Layer_1">
  <metadata
     id="metadata57">
    <rdf:RDF>
      <cc:Work
         rdf:about="">
        <dc:format>image/svg+xml</dc:format>
        <dc:type
           rdf:resource="http://purl.org/dc/dcmitype/StillImage" />
      </cc:Work>
    </rdf:RDF>
  </metadata>
  <sodipodi:namedview
     inkscape:current-layer="Layer_1"
     inkscape:window-maximized="0"
     inkscape:window-y="44"
     inkscape:window-x="2560"
     inkscape:cy="301.54632"
     inkscape:cx="24.710057"
     inkscape:zoom="0.57402198"
     showgrid="false"
     id="namedview55"
     inkscape:window-height="1036"
     inkscape:window-width="636"
     inkscape:pageshadow="2"
     inkscape:pageopacity="0"
     guidetolerance="10"
     gridtolerance="10"
     objecttolerance="10"
     borderopacity="1"
     bordercolor="#666666"
     pagecolor="#ffffff" />
  <defs
     id="defs4">
    <style
       id="style2">.cls-1{fill:#006a4e;}</style>
  </defs>
  <title
     id="title6">MHN_Verde2</title>
  <path
     id="path52"
     d="m 196.28,47.7 q 0,-22.6 -12.4,-35.15 Q 171.48,0 149.13,0 125.98,0 103.13,12.68 90.71,0 62,0 36.11,0 0,13.79 A 159,159 0 0 1 1.65,31.71 V 140.9 l 33.11,-9.09 v -91 A 49.78,49.78 0 0 0 34.19,34.75 57.45,57.45 0 0 1 58.68,29 q 23.73,0 23.71,25 v 64.7 l 33.12,-9.09 V 52.12 A 87.63,87.63 0 0 0 114.39,35.85 Q 128.21,29 139.22,29 q 24,0 24,25.38 V 96.49 L 196.29,87.4 V 47.7"
     class="cls-1" />
</svg>
