<svg id="Capa_1" data-name="Capa 1" xmlns="http://www.w3.org/2000/svg" viewBox="0 0 141.73 141.73"><defs><style>.cls-1{fill:#3c3c3b;}</style></defs><title>GRIS_</title><path class="cls-1" d="M70.94,17a53.88,53.88,0,0,1,4.59,107.56,25.27,25.27,0,0,1-4.59.28,52.07,52.07,0,0,1-11.68-1.26A53.92,53.92,0,0,1,70.94,17m0-2.76a56.67,56.67,0,1,0,0,113.33,34.38,34.38,0,0,0,5.07-.25c28.78-2.33,51.55-27.11,51.55-56.44A56.71,56.71,0,0,0,70.94,14.2Z"/><path class="cls-1" d="M77.06,59.53c.83-1,2.5-1.68,4.88-1.68a28.27,28.27,0,0,1,7.36,1l2.1-11.31A39.83,39.83,0,0,0,78,45.64c-4.6,0-8.22.7-11.13,2.38s-4.88,3.45-6,6.11c-1.12,2.39-1.67,6.38-1.67,11.41V70H50.33V82.91h8.93v40.63a52.07,52.07,0,0,0,11.68,1.26,25.27,25.27,0,0,0,4.59-.28V82.91H87.35V70H75.53V65.82C75.53,62.63,76,60.66,77.06,59.53Z"/></svg>