<svg id="Capa_1" data-name="Capa 1" xmlns="http://www.w3.org/2000/svg" viewBox="0 0 141.73 141.73"><defs><style>.cls-1,.cls-2{fill:#3c3c3b;}.cls-2{fill-rule:evenodd;}</style></defs><title>GRIS_</title><path class="cls-1" d="M70.85,16.94A53.93,53.93,0,1,1,17,70.87a53.93,53.93,0,0,1,53.9-53.93m0-2.77a56.7,56.7,0,1,0,56.69,56.7,56.74,56.74,0,0,0-56.69-56.7Z"/><path class="cls-2" d="M92.31,41.76H49.44c-5.1,0-7.74,2.72-7.74,7.8V92.35c0,4.93,2.72,7.62,7.49,7.62H92.31c5,0,7.72-2.69,7.72-7.67V49.38C100,44.48,97.29,41.76,92.31,41.76Zm-4.72,6.62c5.78,0,5.78,0,5.78,5.77s0,5.63-5.68,5.63S82,59.78,82,54.05,82,48.38,87.59,48.38ZM70.9,59.56A11.28,11.28,0,1,1,59.54,70.77,11.55,11.55,0,0,1,70.9,59.56ZM93.37,89.91c-.05,2.72-.76,3.47-3.47,3.47H51.8c-2.66,0-3.41-.75-3.41-3.47,0-7,0-14.17-.1-21.25,0-2,.55-2.44,2.41-2.39,2.66.22,2.71.1,2.41,2.71a17.85,17.85,0,1,0,35.28-1.41c-.2-1,0-1.2,1-1.2,4-.33,4-.38,4,3.79Z"/></svg>