<svg data-name="Capa 1" xmlns="http://www.w3.org/2000/svg" viewBox="0 0 141.73 141.73">
    <path d="M70.85 16.94A53.93 53.93 0 1117 70.87a53.93 53.93 0 0153.9-53.93m0-2.77a56.7 56.7 0 1056.69 56.7 56.74 56.74 0 00-56.69-56.7z" fill="#3c3c3b"/>
    <path d="M92.31 41.76H49.44c-5.1 0-7.74 2.72-7.74 7.8v42.79c0 4.93 2.72 7.62 7.49 7.62h43.12c5 0 7.72-2.69 7.72-7.67V49.38c-.03-4.9-2.74-7.62-7.72-7.62zm-4.72 6.62c5.78 0 5.78 0 5.78 5.77s0 5.63-5.68 5.63-5.69 0-5.69-5.73 0-5.67 5.59-5.67zM70.9 59.56a11.28 11.28 0 11-11.36 11.21A11.55 11.55 0 0170.9 59.56zm22.47 30.35c-.05 2.72-.76 3.47-3.47 3.47H51.8c-2.66 0-3.41-.75-3.41-3.47 0-7 0-14.17-.1-21.25 0-2 .55-2.44 2.41-2.39 2.66.22 2.71.1 2.41 2.71a17.85 17.85 0 1035.28-1.41c-.2-1 0-1.2 1-1.2 4-.33 4-.38 4 3.79z" fill-rule="evenodd" fill="#3c3c3b"/>
</svg>
