<svg data-name="Layer 1" xmlns="http://www.w3.org/2000/svg" viewBox="0 0 2108.15 453.54">
    <path d="M1265 285.27c0 19.93-18.92 36.08-42.27 36.08s-42.25-16.15-42.25-36.08 18.92-36.07 42.25-36.07 42.27 16.15 42.27 36.07z" fill="#bf1818"/>
    <path d="M1433.64 285.27c0 19.93-18.92 36.08-42.27 36.08s-42.26-16.15-42.26-36.08 18.92-36.07 42.26-36.07 42.27 16.15 42.27 36.07z" fill="#e1251b"/>
    <path d="M2108.15 416.25c0 19.92-18.91 36.08-42.26 36.08s-42.26-16.16-42.26-36.08 18.92-36.08 42.26-36.08 42.26 16.16 42.26 36.08z" fill="#2b2422"/>
    <path d="M926.85 285.27c0 19.93-18.92 36.08-42.26 36.08s-42.27-16.15-42.27-36.08 18.92-36.07 42.27-36.07 42.26 16.15 42.26 36.07z" fill="#c72f79"/>
    <path d="M1096.38 416.25c0 19.92-18.92 36.08-42.26 36.08s-42.26-16.16-42.26-36.08 18.92-36.08 42.26-36.08 42.26 16.16 42.26 36.08z" fill="#0070ac"/>
    <path d="M590.5 416.25c0 19.92-18.92 36.08-42.27 36.08S506 436.17 506 416.25s18.93-36.07 42.26-36.07 42.24 16.15 42.24 36.07z" fill="#3f1e53"/>
    <path d="M759.13 416.25c0 19.92-18.93 36.08-42.26 36.08s-42.27-16.16-42.27-36.08 18.92-36.07 42.27-36.07 42.26 16.15 42.26 36.07z" fill="#1a428a"/>
    <path d="M1600.72 285.27c0 19.93-18.92 36.08-42.26 36.08s-42.27-16.15-42.27-36.08 18.92-36.07 42.27-36.07 42.26 16.15 42.26 36.07z" fill="#ed690d"/>
    <path d="M1939.53 416.25c0 19.92-18.93 36.08-42.27 36.08S1855 436.17 1855 416.25s18.92-36.07 42.27-36.07 42.26 16.15 42.26 36.07z" fill="#4a4647"/>
    <path d="M928.18 416.25c0 19.92-18.92 36.08-42.26 36.08s-42.27-16.16-42.27-36.08 18.92-36.07 42.27-36.07 42.26 16.15 42.26 36.07z" fill="#0a5ba1"/>
    <path d="M253 285.27c0 19.93-18.92 36.08-42.26 36.08s-42.26-16.15-42.26-36.08 18.92-36.07 42.26-36.07S253 265.35 253 285.27z" fill="#881812"/>
    <path d="M1265 416.25c0 19.92-18.93 36.08-42.28 36.08s-42.25-16.16-42.25-36.08 18.92-36.07 42.25-36.07 42.28 16.15 42.28 36.07z" fill="#1281c4"/>
    <path d="M592.31 285.27c0 21-20 38.12-44.65 38.12S503 306.31 503 285.27s20-38.1 44.65-38.1 44.66 17.06 44.66 38.1z" fill="#9f2241"/>
    <path d="M421.45 416.25c0 19.92-18.92 36.08-42.26 36.08s-42.26-16.16-42.26-36.08 18.92-36.08 42.26-36.08 42.26 16.15 42.26 36.08z" fill="#05576f"/>
    <path d="M1602.27 416.25c0 19.92-18.92 36.08-42.26 36.08s-42.26-16.16-42.26-36.08 18.91-36.07 42.26-36.07 42.26 16.15 42.26 36.07z" fill="#65c2c8"/>
    <path d="M84.52 285.27c0 19.93-18.92 36.08-42.26 36.08S0 305.2 0 285.27s18.92-36.07 42.26-36.07 42.26 16.15 42.26 36.07z" fill="#962d15"/>
    <path d="M1939.53 285.28c0 19.92-18.93 36.07-42.27 36.07S1855 305.2 1855 285.28s18.92-36.08 42.27-36.08 42.26 16.15 42.26 36.08z" fill="#e7d200"/>
    <path d="M758.39 285.27c0 19.93-18.92 36.08-42.27 36.08s-42.26-16.15-42.26-36.08 18.93-36.07 42.26-36.07 42.27 16.15 42.27 36.07z" fill="#e05d7e"/>
    <path d="M1096.38 285.27c0 19.93-18.92 36.08-42.27 36.08s-42.25-16.15-42.25-36.08 18.91-36.07 42.25-36.07 42.27 16.15 42.27 36.07z" fill="#c65542"/>
    <path d="M1770.91 416.25c0 19.93-18.94 36.08-42.27 36.08s-42.27-16.15-42.27-36.08 18.91-36.08 42.27-36.08 42.27 16.16 42.27 36.08z" fill="#ddd1c0"/>
    <path d="M2108.15 285.27c0 19.93-18.92 36.08-42.26 36.08s-42.26-16.15-42.26-36.08 18.92-36.07 42.26-36.07 42.26 16.15 42.26 36.07z" fill="#c4b265"/>
    <path d="M84.62 417.47c0 19.92-18.92 36.07-42.26 36.07S.09 437.39.09 417.47 19 381.4 42.36 381.4s42.26 16.14 42.26 36.07z" fill="#009279"/>
    <path d="M1433.64 416.25c0 19.92-18.93 36.08-42.27 36.08s-42.26-16.16-42.26-36.08 18.93-36.08 42.26-36.08 42.27 16.16 42.27 36.08z" fill="#3bb5e9"/>
    <path d="M421.45 285.27c0 19.92-18.92 36.08-42.26 36.08s-42.27-16.16-42.27-36.08 18.93-36.07 42.27-36.07 42.26 16.15 42.26 36.07z" fill="#891734"/>
    <path d="M1769.18 285.27c0 19.92-18.93 36.08-42.25 36.08s-42.28-16.16-42.28-36.08 18.92-36.07 42.28-36.07 42.25 16.15 42.25 36.07z" fill="#dd9a01"/>
    <path d="M253.25 417.47c0 19.92-18.93 36.07-42.27 36.07s-42.27-16.15-42.27-36.07 18.93-36.08 42.27-36.08 42.27 16.15 42.27 36.08z" fill="#01694a"/>
    <path d="M136 1.69h20.06V133h-15.9V23.07l-50 91.7H75L25 24.13V133H9.15V1.69h20.06l53.71 98.53zm79.61 127.45a37.49 37.49 0 01-18.61-16.8q-6.08-11.32-6.08-29.06V1.69h16.83v83.19q0 19.43 9.67 28.38t30.44 9q20.79 0 30.45-9t9.66-28.38V1.69h16.52v81.59q0 17.75-6 29.06a37.3 37.3 0 01-18.49 16.8q-12.46 5.51-32.11 5.5t-32.28-5.5zm134.46 4.12a131.56 131.56 0 01-18.71-3.95V116.9a129 129 0 0019.17 4.1 140.84 140.84 0 0019 1.33q37.51 0 37.51-24a19.3 19.3 0 00-3.06-11.13q-3.06-4.47-9.66-7.53a89.31 89.31 0 00-17.93-5.55L368 72.2q-19.74-4.35-29.41-13T329 36.45a31.5 31.5 0 016.19-19.55q6.16-8.2 18.38-12.55T383.73 0a152 152 0 0117.66 1 110.26 110.26 0 0115.9 3v12.41a130 130 0 00-33-4.08q-19.42 0-28.83 6T346 35.57a20.27 20.27 0 002.76 10.91 21.19 21.19 0 008.89 7.52 76.12 76.12 0 0016.73 5.46l8.31 1.77q21.4 4.6 31.38 13.3t10 22.89q0 11.79-6.44 20.13t-18.73 12.7q-12.25 4.38-29.61 4.39a138.58 138.58 0 01-19.22-1.38zM466 120.71h79.39V133H449.3V1.69h95.07v12.24H466v45.58h68.27v12.16H466zm112.71-2.57q-16.89-16.5-16.88-50.82 0-23.14 7.84-38.14A49.49 49.49 0 01591.8 7.1Q606.1 0 625.63 0q30 0 46.91 16.5t16.89 50.82q0 23.06-7.85 38.09a49.45 49.45 0 01-22.08 22.13q-14.24 7.11-33.87 7.1-30.03 0-46.92-16.5zm81.2-8.73Q672 96.59 672 67.76q0-29.43-12.06-42.39t-34.31-12.95q-22.14 0-34.24 12.81t-12.1 41.65q0 29.45 12.05 42.39t34.29 13q22.23-.05 34.28-12.86zm69.31 23.85a131.71 131.71 0 01-18.7-3.95V116.9a128.77 128.77 0 0019.17 4.1 140.72 140.72 0 0019 1.33q37.51 0 37.51-24a19.3 19.3 0 00-3.06-11.13q-3.08-4.47-9.67-7.53a89 89 0 00-17.92-5.55l-8.35-1.92q-19.74-4.35-29.41-13t-9.66-22.75a31.55 31.55 0 016.18-19.55q6.18-8.2 18.39-12.55T762.89 0a152 152 0 0117.66 1 110.26 110.26 0 0115.9 3v12.41a130 130 0 00-33-4.08q-19.44 0-28.84 6t-9.4 17.25a20.27 20.27 0 002.76 10.91 21.19 21.19 0 008.84 7.51 76.12 76.12 0 0016.73 5.46l8.31 1.77q21.4 4.6 31.38 13.3t10 22.89q0 11.79-6.45 20.13t-18.7 12.73q-12.25 4.38-29.61 4.39a138.83 138.83 0 01-19.25-1.41zM980.78 1.69h16V133h-17.34L895.26 23.68V133h-16V1.69h17.35L980.78 111zM1134.25 133l-17.56-42.48h-64.94L1034.19 133h-16.93l55.17-131.31h23.79L1151.4 133zm-77.52-54.63h54.87l-27.43-66.17zm123.76 40.43q-18.08-15.83-18.08-51.21 0-34.68 18.39-51.14T1233.69 0a146.6 146.6 0 0133.25 3.82v12.59a136.43 136.43 0 00-32.63-3.9q-18 0-29.87 5.41a37.17 37.17 0 00-18.08 17.47q-6.18 12.07-6.18 31.84 0 20.31 6.23 32.42a36.55 36.55 0 0017.87 17.29q11.64 5.19 29 5.19a116.6 116.6 0 0016.57-1.15 122.88 122.88 0 0017.1-3.81v12.59a120.72 120.72 0 01-34.91 4.88q-33.47 0-51.55-15.84zm108.17 14.2V1.69h16.82V133zm62.18-14.86q-16.89-16.5-16.89-50.82 0-23.14 7.85-38.14a49.46 49.46 0 0122.14-22.08q14.28-7.1 33.81-7.1 30 0 46.92 16.5t16.89 50.82q0 23.06-7.85 38.09a49.45 49.45 0 01-22.08 22.13q-14.24 7.11-33.88 7.1-30.01 0-46.91-16.5zm81.2-8.73q12.06-12.82 12-41.65 0-29.43-12-42.39t-34.29-12.95q-22.12 0-34.23 12.81t-12.11 41.65q0 29.45 12.06 42.39t34.28 13q22.25-.05 34.25-12.86zM1591.65 1.69h16V133h-17.35l-84.17-109.32V133h-16V1.69h17.35L1591.65 111zM1745.12 133l-17.56-42.48h-65L1645.05 133h-16.93l55.17-131.31h23.8L1762.27 133zm-77.52-54.68h54.87L1695 12.15zM1782.84 133V1.69h16.83v118.67h75.64V133zm128-12.29h79.39V133h-96.12V1.69h95.08v12.24h-78.35v45.58h68.27v12.16h-68.27zm115.65 12.55a131.71 131.71 0 01-18.7-3.95V116.9A128.77 128.77 0 002027 121a140.84 140.84 0 0019 1.33q37.51 0 37.51-24a19.37 19.37 0 00-3.06-11.13q-3.07-4.47-9.67-7.53a89 89 0 00-17.92-5.55l-8.32-1.86q-19.73-4.35-29.4-13t-9.66-22.75a31.55 31.55 0 016.18-19.55q6.18-8.2 18.39-12.55T2060.16 0a152 152 0 0117.66 1 109.86 109.86 0 0115.89 3v12.41a129.9 129.9 0 00-33-4.08q-19.44 0-28.84 6t-9.4 17.25a20.27 20.27 0 002.76 10.91c1.82 3 4.79 5.45 8.88 7.49a75.94 75.94 0 0016.73 5.46l8.3 1.77q21.41 4.6 31.38 13.3t10 22.89q0 11.79-6.44 20.13t-18.71 12.73q-12.27 4.38-29.61 4.39a138.83 138.83 0 01-19.27-1.39z" fill="#1d1d1b"/>
</svg>
