<svg id="Layer_1" data-name="Layer 1" xmlns="http://www.w3.org/2000/svg" viewBox="0 0 2354.5 850.39"><defs><style>.cls-1{fill:#00b3e8;}.cls-2{fill:#fff;}.cls-3{fill:#231f20;}.cls-4{fill:#ffc50a;}.cls-5{fill:#58a947;}.cls-6{fill:#ee4023;}.cls-7{fill:#fbbb80;}</style></defs><title>Logo</title><path class="cls-1" d="M260.74,412.79H213.29c-10.35,0-16.06-4.29-19-7.9a24.17,24.17,0,0,1-5-11.69,5.64,5.64,0,0,1-.15-1.06,45,45,0,0,1,.69-14.35c6.18-31,18.63-52,28.88-64.81a16.6,16.6,0,0,1-3.27-1.44c-6.56-3.71-9.74-11.28-8.3-19.7,1.76-10.32,11.52-20.77,13.25-22.57,16.34-19.11,40.64-20.14,43.64-20.19,3.62-.28,35.6-1.66,52.85,31.93,20.61,40.1,25.48,73.2,29.41,99.82l.2,1.26a29.41,29.41,0,0,1-.49,11.74,4.86,4.86,0,0,1-.31,1.05,21.78,21.78,0,0,1-4.81,8.37c-4.27,4.62-10.54,7.62-18.67,8.93a54.72,54.72,0,0,1-8.36.66c-.94,0-1.61,0-1.94,0H275v67.13h211.9a370.05,370.05,0,0,0-17.36-113.26c-11.1-34.58-27-65.64-47.19-92.28S378.78,227,352.7,212.47c-26.87-15-55.41-22.58-84.8-22.58s-57.94,7.59-84.83,22.58C157,227,133.57,247.82,113.42,274.38s-36.1,57.7-47.2,92.28A370,370,0,0,0,48.89,479.92H260.74Z"/><path class="cls-2" d="M48.87,479.92a376.08,376.08,0,0,0,10,87C153.66,556.1,210.22,545,227,533.73c11.81-8.32,21.31-13.16,33.73-12.78v-41Z"/><path class="cls-2" d="M275,522.58a77,77,0,0,1,21.64,7.31l2.1-.09c12.15-.54,22.47,3.17,36.76,8.33,3.9,1.41,8.33,3,13.17,4.64,2.07.65,70.23,22,127.91,25.35a375.62,375.62,0,0,0,10.32-88.2H275Z"/><path class="cls-2" d="M361.32,615.15a18.33,18.33,0,0,1-3.91,5.47c-3.55,3.44-8.33,5.3-14.22,5.54a22.58,22.58,0,0,1-3.54,5.56c-3.22,3.68-8.94,7.69-18.55,7.24a24.52,24.52,0,0,1-3.76,5,19.62,19.62,0,0,1-18,5.48A28.55,28.55,0,0,1,292,653.7a29.87,29.87,0,0,1-17,1.37v56.2a7.14,7.14,0,0,1-14.27,0V657.44a26.69,26.69,0,0,1-9.14,1.79,19.06,19.06,0,0,1-3.75-.36,17.12,17.12,0,0,1-10-6.15c-4.75.76-13,1.3-18.95-2.72a14.13,14.13,0,0,1-5.3-6.65,35.83,35.83,0,0,1-6.71-1.4c-6.21-2-10.5-5.61-12.43-10.45a44.75,44.75,0,0,1-4.9-.46c-5.12-.79-11.79-3-14.41-9a15.16,15.16,0,0,1-1.09-3.93c-30.18,15.52-64.66,31.06-80.14,37.9a284.07,284.07,0,0,0,19.53,29.41C133.57,712,157,732.84,183.07,747.37a182,182,0,0,0,37.46,15.78,16.23,16.23,0,0,1,5.55-6c12.14-7.93,35.27-2.16,41.79-.28,6.55-1.88,29.67-7.65,41.81.28a16.33,16.33,0,0,1,5.56,6,180.49,180.49,0,0,0,37.46-15.78c26.09-14.53,49.52-35.36,69.66-61.92a279.57,279.57,0,0,0,18.46-27.59c-17.16-7.08-55.11-23.8-79.5-42.71"/><path class="cls-1" d="M287.33,807.49a20,20,0,0,0,.6-4.86,20.32,20.32,0,0,0-.5-4.46c7.14-1.43,18.7-4.87,25.13-12.7a20.69,20.69,0,0,0,4.62-16,16.51,16.51,0,0,0-7.5-12.4c-12.16-7.93-35.26-2.16-41.81-.28-6.52-1.88-29.64-7.65-41.79.28a16.51,16.51,0,0,0-7.5,12.4,20.65,20.65,0,0,0,4.62,16c6.48,7.89,18.15,11.31,25.3,12.73a19.6,19.6,0,0,0-.52,4.43,20.55,20.55,0,0,0,.57,4.73c-5.14,5.1-21.9,19.81-46.13,22.49h0a34.72,34.72,0,0,0,7.05,8.46c21.52-4,36.76-15.86,43.7-22.29a23.38,23.38,0,0,0,2.22,2.12c-1.52,5.9-7.95,21.14-34.15,27.74a57.66,57.66,0,0,0,15.78,4.5c18.21-8.26,24.71-20.86,27-28.19a19.55,19.55,0,0,0,3.93.4,20.44,20.44,0,0,0,3.78-.36c2.3,7.33,8.8,19.91,27,28.15a57.69,57.69,0,0,0,15.77-4.5c-26.09-6.58-32.56-21.61-34.14-27.65a18.58,18.58,0,0,0,2.3-2.14c7,6.45,22.17,18.2,43.61,22.22a35,35,0,0,0,7-8.47c-24-2.67-40.71-17.15-46-22.36"/><path class="cls-2" d="M304.54,765a7.09,7.09,0,0,1,3.27,5.56,11.33,11.33,0,0,1-2.54,8.92c-2.79,3.41-7.49,5.8-12.16,7.43a17.61,17.61,0,0,0,.93-14.09,21.7,21.7,0,0,0-7.56-10c7.16-.7,14.15-.37,18.06,2.19"/><path class="cls-2" d="M250.56,776.11c3.52-9.49,16.78-9.63,17.31-9.63h0a26.69,26.69,0,0,1,7.59,1.26c5,1.59,8.27,4.41,9.73,8.37,1.59,4.27-1.42,8.74-4,11.56a19.92,19.92,0,0,0-26.54.09c-2.6-2.8-5.69-7.28-4.07-11.65"/><path class="cls-2" d="M242.66,786.93c-4.66-1.62-9.35-4-12.16-7.43a11.44,11.44,0,0,1-2.56-8.94,7.13,7.13,0,0,1,3.28-5.56c2.78-1.82,7.11-2.51,11.93-2.51,2,0,4,.12,6.13.32a21.6,21.6,0,0,0-7.56,10,17.62,17.62,0,0,0,.94,14.11"/><path class="cls-2" d="M257.41,802.63A10.55,10.55,0,1,1,268,813.17a10.57,10.57,0,0,1-10.55-10.54"/><path class="cls-2" d="M326.29,838.32c-21.44-4-36.63-15.77-43.61-22.22a18.58,18.58,0,0,1-2.3,2.14c1.58,6,8,21.07,34.15,27.67a47.34,47.34,0,0,0,11.76-7.59"/><path class="cls-2" d="M253.17,816c-6.94,6.43-22.18,18.25-43.7,22.28a46.4,46.4,0,0,0,11.77,7.58c26.2-6.6,32.63-21.84,34.15-27.74a23.38,23.38,0,0,1-2.22-2.12"/><path class="cls-3" d="M533,536.36a4.54,4.54,0,0,0-4.75-5.09c.91-1.92,1.77-3.92,2.51-5.95a92.25,92.25,0,0,0,5.16-30.83,4.56,4.56,0,0,0-5.13-4.56c.67-1.9,1.27-3.85,1.79-5.83a92.65,92.65,0,0,0,2.08-31.19,4.57,4.57,0,0,0-5.61-4,66,66,0,0,0,1.45-6.88,92.17,92.17,0,0,0-1-31.24,4.47,4.47,0,0,0-2.71-3.34,4.57,4.57,0,0,0-2.42-.3c.3-1.61.52-3.23.7-4.84a92.52,92.52,0,0,0-2.44-31.18,4.54,4.54,0,0,0-2.89-3.2,4.47,4.47,0,0,0-4.26.62h0a67.85,67.85,0,0,0,.19-7.57A92.75,92.75,0,0,0,509,330.43a4.5,4.5,0,0,0-3.29-2.78,4.45,4.45,0,0,0-3.49.68c-.08-2.32-.28-4.64-.59-7a92.09,92.09,0,0,0-9.85-29.69,4.51,4.51,0,0,0-3.55-2.44,4.56,4.56,0,0,0-3.42,1,64.83,64.83,0,0,0-1.33-6.42,93,93,0,0,0-13.27-28.4,4.68,4.68,0,0,0-3.8-2,4.57,4.57,0,0,0-3.72,2,66.78,66.78,0,0,0-2.77-7.46A93.61,93.61,0,0,0,442.22,222a4.58,4.58,0,0,0-4.27-1.34,4.63,4.63,0,0,0-2.75,1.79,65.89,65.89,0,0,0-4.09-7.31,92,92,0,0,0-21.17-22.55,4.53,4.53,0,0,0-4.26-.71,4.62,4.62,0,0,0-2.63,2.31c-5.9-7.9-14.28-13.8-24.89-17.62,1.86.17,3.75.34,5.7.45a67,67,0,0,0,21.83-2,5.75,5.75,0,0,0-1.4-11.24c-13.74-.67-18.9-3.48-25.44-7.05-1.25-.68-2.54-1.38-3.9-2.08l32.24-4.82a5.75,5.75,0,0,0,0-11.38l-32-4.59c3.71-1,8-2.26,12.46-3.79A67.22,67.22,0,0,0,407,119.87a5.75,5.75,0,0,0-5.6-9.86c-12.95,4.67-18.8,4-26.2,3.26-1.4-.15-2.83-.3-4.35-.42l27.89-16.73a5.75,5.75,0,0,0-4.37-10.51l-31.42,8c3.05-2.34,6.59-5.19,10.12-8.34a67.08,67.08,0,0,0,14-16.87,5.75,5.75,0,0,0-8.94-6.95c-10.17,9.27-15.81,10.94-22.94,13.05-1.35.4-2.7.79-4.13,1.25l19.33-26.05a5.74,5.74,0,0,0-8.05-8L336.26,61.14c1.94-3.37,4.12-7.38,6.2-11.67a68.06,68.06,0,0,0,6.46-20.94,5.75,5.75,0,0,0-10.94-3C332.14,38,327.56,41.7,321.79,46.4c-1.07.86-2.16,1.73-3.27,2.69l7.9-31.41a5.75,5.75,0,0,0-10.52-4.34l-16.7,28c.5-3.85,1-8.43,1.26-13.24a67,67,0,0,0-2.08-21.81,5.74,5.74,0,0,0-11.23,1.44c-.62,13.74-3.42,18.91-7,25.47-.64,1.18-1.3,2.38-2,3.67l-4.68-32A5.74,5.74,0,0,0,267.85,0h0a5.75,5.75,0,0,0-5.68,5l-4.49,31.81c-1-3.66-2.23-7.93-3.75-12.28a67.64,67.64,0,0,0-10.2-19.41,5.76,5.76,0,0,0-9.86,5.61c4.66,12.94,4,18.8,3.24,26.21-.15,1.42-.31,2.88-.44,4.44l-16.87-28a5.75,5.75,0,0,0-10.49,4.4l8,31.24c-2.32-3-5.12-6.5-8.21-10a67.47,67.47,0,0,0-16.87-14,5.75,5.75,0,0,0-7,8.94c9.27,10.18,10.94,15.83,13,23,.4,1.36.8,2.74,1.28,4.2L173.39,41.7a5.75,5.75,0,0,0-8,8.08L184.81,75.7c-3.32-1.92-7.28-4.07-11.51-6.12a67.74,67.74,0,0,0-21-6.48,5.76,5.76,0,0,0-3,10.94c12.46,5.86,16.17,10.43,20.84,16.21.88,1.09,1.78,2.19,2.75,3.33l-31.58-7.91A5.75,5.75,0,0,0,137,96.19l28,16.63c-3.83-.51-8.35-1-13.09-1.26a67.35,67.35,0,0,0-21.82,2,5.76,5.76,0,0,0,1.43,11.25c13.74.62,18.91,3.42,25.47,7,1.19.66,2.41,1.33,3.72,2l-32.11,4.72a5.76,5.76,0,0,0,0,11.39l32.36,4.7c-3.75,1-8.16,2.3-12.69,3.88a67.65,67.65,0,0,0-19.37,10.27,5.75,5.75,0,0,0,5.63,9.83c7.52-2.71,12.63-3.65,17.06-3.8-6.93,6.05-11.91,10.89-14.37,14-1.29,1.63-2.51,3.31-3.63,5a4.56,4.56,0,0,0-6.66-1.22,93.42,93.42,0,0,0-21.6,22.82,64.42,64.42,0,0,0-4.07,7.21,4.54,4.54,0,0,0-7.13-.62c-7.86,8.39-13.83,17.11-17.68,25.9A68.46,68.46,0,0,0,73.8,255a4.54,4.54,0,0,0-6.81.59,93.09,93.09,0,0,0-14.45,27.76,71.12,71.12,0,0,0-1.76,7.27,4.55,4.55,0,0,0-7.42.9,91.54,91.54,0,0,0-10.11,29.6,68.07,68.07,0,0,0-.66,7.07,4.45,4.45,0,0,0-3.88-.9,4.55,4.55,0,0,0-3.25,2.83,92.62,92.62,0,0,0-6.28,30.63,66.58,66.58,0,0,0,.24,7,4.5,4.5,0,0,0-3.84-.35,4.57,4.57,0,0,0-2.88,3.23,92.4,92.4,0,0,0-2.44,31.16c.2,1.79.45,3.56.79,5.33a4.41,4.41,0,0,0-2,.34,4.48,4.48,0,0,0-2.72,3.34,92.41,92.41,0,0,0-1,31.24,67.69,67.69,0,0,0,1.51,7.13,4.25,4.25,0,0,0-1.83.47,4.52,4.52,0,0,0-2.51,3.5,92.19,92.19,0,0,0,1,31.25c.44,2,1,4.05,1.61,6a4.46,4.46,0,0,0-3,.67A4.48,4.48,0,0,0,0,494.79a91.93,91.93,0,0,0,4.3,31,66.94,66.94,0,0,0,3.09,7.66l-.56-.17a4.54,4.54,0,0,0-5.64,5.12,92.47,92.47,0,0,0,9.63,29.77c.88,1.62,1.83,3.2,2.82,4.72a4.52,4.52,0,0,0-3.24,5.44,92.86,92.86,0,0,0,11.84,29q1.86,2.88,3.95,5.5a4.53,4.53,0,0,0-3.75,6.07A92.79,92.79,0,0,0,37.6,646.28q2,2.44,4.2,4.68A4.47,4.47,0,0,0,39.16,653a4.55,4.55,0,0,0-.14,4.34,93.33,93.33,0,0,0,18.26,25.5q2.2,2.13,4.55,4a4.53,4.53,0,0,0-2.31,2.31,4.47,4.47,0,0,0,.32,4.32A93,93,0,0,0,80.68,717a69.77,69.77,0,0,0,7.1,4.86,9.86,9.86,0,0,0-1,.31,4.53,4.53,0,0,0-1.75,7.43A108,108,0,0,0,109.32,749a65.51,65.51,0,0,0,20,7.56,44,44,0,0,0,16.11.2,5.59,5.59,0,0,0,.92-.21,239.25,239.25,0,0,0,44.57,24.83,221,221,0,0,0,39.48,12.49c2.79.58,5.44,1.09,8,1.52-5.51-2-11.28-5.17-15.14-9.9a20.35,20.35,0,0,1-1.8-2.58,212.45,212.45,0,0,1-27.2-9.39,232,232,0,0,1-42.66-23.71c.07-.26.1-.45.12-.51a45,45,0,0,0-1.52-13.8c9.8,7.89,18.49,14.31,28.07,19.64a188.58,188.58,0,0,0,40.21,16.77,19.66,19.66,0,0,1,.15-2.39,17.2,17.2,0,0,1,1.94-6.35,182,182,0,0,1-37.46-15.78C157,732.84,133.56,712,113.42,685.45A284.07,284.07,0,0,1,93.89,656c15.48-6.84,50-22.38,80.14-37.9a15.16,15.16,0,0,0,1.09,3.93c2.62,6,9.29,8.18,14.4,9a45.14,45.14,0,0,0,4.91.46c1.93,4.84,6.22,8.47,12.43,10.45a36,36,0,0,0,6.71,1.4,14.13,14.13,0,0,0,5.3,6.65c5.9,4,14.2,3.48,18.94,2.72a17.17,17.17,0,0,0,10,6.15,19.06,19.06,0,0,0,3.75.36,26.69,26.69,0,0,0,9.14-1.79v53.83a7.14,7.14,0,0,0,14.27,0v-56.2a29.87,29.87,0,0,0,17-1.37,28.26,28.26,0,0,0,7.32-4.24,19.62,19.62,0,0,0,18-5.48,24.16,24.16,0,0,0,3.76-5c9.59.44,15.33-3.56,18.55-7.24a22.58,22.58,0,0,0,3.54-5.56c5.89-.24,10.67-2.1,14.22-5.54a18.51,18.51,0,0,0,3.91-5.47c24.39,18.9,62.34,35.63,79.5,42.71a276.08,276.08,0,0,1-18.46,27.59c-20.15,26.56-43.58,47.39-69.66,61.92a180.49,180.49,0,0,1-37.46,15.78,17.78,17.78,0,0,1,1.94,6.35,21.88,21.88,0,0,1,.14,2.4,189.58,189.58,0,0,0,40.24-16.78c10.2-5.68,19.63-12.82,28.35-19.87a44.06,44.06,0,0,0-1.61,14c0,.25.05.45.05.68a190.17,190.17,0,0,1-31.29,19,206.06,206.06,0,0,1-37.36,14c-.53.15-1.05.26-1.59.4a24,24,0,0,1-1.55,2.17c-4,4.83-9.87,8-15.49,10a201.8,201.8,0,0,0,21-4.41,214.62,214.62,0,0,0,39-14.68,195.32,195.32,0,0,0,32.71-19.93c.23.09.46.18.67.24a43.57,43.57,0,0,0,16.23-.18,65.61,65.61,0,0,0,20-7.56,108.18,108.18,0,0,0,24.25-19.4,4.54,4.54,0,0,0-1.76-7.43c-.1,0-.34-.12-.7-.24a70,70,0,0,0,7.23-4.93,93.43,93.43,0,0,0,20.85-23.48,4.49,4.49,0,0,0,.3-4.32,4.42,4.42,0,0,0-2.31-2.31c1.57-1.25,3.1-2.59,4.56-4a93.09,93.09,0,0,0,18.25-25.5,4.56,4.56,0,0,0-3.42-6.55c1.6-1.59,3.14-3.28,4.61-5a93.3,93.3,0,0,0,15.12-27.44,4.58,4.58,0,0,0-4.1-6.12h0c1.35-1.63,2.62-3.39,3.83-5.19a92.5,92.5,0,0,0,12.3-28.78,4.56,4.56,0,0,0-4.73-5.66,66.87,66.87,0,0,0,3.48-6.15A92.61,92.61,0,0,0,533,536.36m-5.4-35.63a.22.22,0,0,1,.12.22,79.8,79.8,0,0,1-4.28,21.31A53.45,53.45,0,0,1,514,538.92a41,41,0,0,1-11.32,9.4l-.11,0a.23.23,0,0,1-.19-.09c-6.3-8.53-9.38-19-9.15-31.16a67.58,67.58,0,0,1,1.24-11.7.24.24,0,0,1,.17-.18.25.25,0,0,1,.25.09,59.12,59.12,0,0,1,8.75,16.07,3.39,3.39,0,0,0,6.27.38,54.11,54.11,0,0,1,17.49-21,.21.21,0,0,1,.24,0M526.76,460a.23.23,0,0,1,.26,0,.22.22,0,0,1,.14.2A79.4,79.4,0,0,1,525,481.78a53.59,53.59,0,0,1-7.76,17.5,40.82,40.82,0,0,1-10.33,10.43.18.18,0,0,1-.13.05.25.25,0,0,1-.18-.08c-11.09-12.55-12.14-31.16-11.79-41.14a.26.26,0,0,1,.16-.22.26.26,0,0,1,.26.06,71.2,71.2,0,0,1,10,14.54,3.36,3.36,0,0,0,3.22,1.88,3.4,3.4,0,0,0,3-2.24A54.08,54.08,0,0,1,526.76,460m-4.4-41.38a.22.22,0,0,1,.24-.07.29.29,0,0,1,.17.2,79,79,0,0,1,0,21.75,53.61,53.61,0,0,1-6,18.17,40.8,40.8,0,0,1-9.41,11.55.35.35,0,0,1-.16.06.36.36,0,0,1-.15-.06c-10.95-9.08-14.26-28.73-15.27-39.63a.28.28,0,0,1,.14-.24.25.25,0,0,1,.26.05,73.44,73.44,0,0,1,11.06,13.17,3.38,3.38,0,0,0,6.16-1,53.85,53.85,0,0,1,13-24m-6.51-39.33a.2.2,0,0,1,.24-.07.25.25,0,0,1,.18.19,80.16,80.16,0,0,1,1,21.72,53.85,53.85,0,0,1-5.15,18.43,40.92,40.92,0,0,1-8.72,11.83.2.2,0,0,1-.16.07.26.26,0,0,1-.15-.06c-9.21-7.79-13.59-19.27-15.65-27.52a86.05,86.05,0,0,1-2-11.54.23.23,0,0,1,.13-.22.22.22,0,0,1,.26,0,72.39,72.39,0,0,1,12.05,13,3.39,3.39,0,0,0,6.11-1.24,54,54,0,0,1,11.88-24.58m-314.2,2.54c.1-.53.19-1.07.29-1.61,5.4-27.06,16-45.53,23.95-56.26A92.13,92.13,0,0,1,240,308.61c.86-.62,1.71-1.3,2.55-2a6.46,6.46,0,0,0-7.89-10.21c-.26.19-1.23.88-2.71,2.11-6,4.22-9.46,2.85-10.36,2.34-1.95-1.11-2.78-3.71-2.23-6.92,1-5.86,7.6-13.65,10.05-16.17a2.05,2.05,0,0,0,.32-.34c13.29-15.68,34.46-16,34.68-16l.6,0a41.9,41.9,0,0,1,14.93,2.17C291.22,267.28,300,275,306,286.65a249.59,249.59,0,0,1,19.37,50.1,81,81,0,0,1-21.27-11.94,6.45,6.45,0,1,0-8.23,9.94c.62.52,15.22,12.46,32.95,16.41,1.25,5.93,2.38,12.13,3.54,19.4-5.67-2.89-12.35-4.65-17.8-6.1a93.34,93.34,0,0,1-10-3,104.45,104.45,0,0,1-22.5-13,6.45,6.45,0,0,0-8,10.12,116.67,116.67,0,0,0,25.7,14.85,98.64,98.64,0,0,0,11.51,3.52c15.34,4.06,22.26,7.16,22.58,14.77a9.38,9.38,0,0,1-1.92,3.16c-4.88,5.31-15.65,5.86-19.36,5.63a2.12,2.12,0,0,0-.44,0H297.68c-2.83,0-17.57-.64-30.29-8.86-32.6-21-47.42-17.73-65.74-9.81m55.61,18.67h-44c-4.51,0-7.61-1.11-9.48-3.39a9.64,9.64,0,0,1-1.06-1.66c18.41-8.37,28.12-11.32,54.51,5.05M275,479.92V412.8h36.93c.33,0,1,0,1.94,0a54.72,54.72,0,0,0,8.36-.66c8.13-1.31,14.4-4.3,18.67-8.94a21.65,21.65,0,0,0,4.81-8.36,4.79,4.79,0,0,0,.31-1.06,29.31,29.31,0,0,0,.49-11.72l-.2-1.27c-3.93-26.62-8.8-59.72-29.41-99.82-17.25-33.59-49.23-32.21-52.85-31.93-3,0-27.3,1.08-43.64,20.2-1.74,1.79-11.49,12.24-13.25,22.55-1.44,8.44,1.74,16,8.3,19.71a17.21,17.21,0,0,0,3.27,1.44c-10.25,12.81-22.7,33.78-28.88,64.82a44.93,44.93,0,0,0-.69,14.35,5.65,5.65,0,0,0,.15,1.05,24.17,24.17,0,0,0,5,11.69c2.94,3.61,8.65,7.91,19,7.91h47.45V521c-12.42-.38-21.92,4.46-33.73,12.78C210.22,545,153.66,556.1,58.9,566.89a375.53,375.53,0,0,1-10-87A370,370,0,0,1,66.22,366.66c11.1-34.58,27-65.64,47.2-92.28S157,227,183.07,212.45c26.88-15,55.42-22.56,84.83-22.56s57.93,7.59,84.8,22.56c26.08,14.56,49.51,35.38,69.66,61.93s36.1,57.7,47.19,92.28a369.45,369.45,0,0,1,17.36,113.26,375.62,375.62,0,0,1-10.32,88.2c-57.68-3.31-125.84-24.7-127.91-25.34-4.84-1.65-9.27-3.24-13.17-4.65-14.29-5.16-24.61-8.87-36.76-8.33l-2.1.09A77,77,0,0,0,275,522.58Zm89.57-303.33A82.48,82.48,0,0,1,349.51,181a60.06,60.06,0,0,1-11.06,1.09c-8.28,0-15.38-2-21.19-6.14a.26.26,0,0,1-.09-.21.22.22,0,0,1,.12-.19,46.4,46.4,0,0,1,12.46-4.9,45.19,45.19,0,0,1,18-.57,53.42,53.42,0,0,1,16.88,6.11.26.26,0,0,1,.13.22.27.27,0,0,1-.16.2M372.86,200a.23.23,0,0,1,.06.22.3.3,0,0,1-.15.18,38.82,38.82,0,0,1-10.89,2c-.55,0-1.09,0-1.63,0-9.8,0-19.42-3.6-28.6-10.72a.27.27,0,0,1-.08-.24.23.23,0,0,1,.16-.17A51.14,51.14,0,0,1,344.06,189c11.56-.7,21.25,3,28.8,11m-45.33-36.34c-3.86,1.8-10.57,4.21-20.59,5.43a3.36,3.36,0,0,0-2.87,2.56,3.39,3.39,0,0,0,1.37,3.6,71,71,0,0,1,13.47,12.52.27.27,0,0,1,0,.26.24.24,0,0,1-.21.13h0c-9.45-.3-27.18-3.05-39.85-18.17a.23.23,0,0,1,0-.33A31.58,31.58,0,0,1,289.78,163c10.11-3.81,23.15-3.74,37.71.21a.23.23,0,0,1,.17.21.23.23,0,0,1-.13.23m-42.36-6.93c-3.35,2.62-9.44,6.37-19.33,9.39a3.38,3.38,0,0,0-.19,6.41,60.29,60.29,0,0,1,15.28,9,.23.23,0,0,1,.08.25.25.25,0,0,1-.21.17c-2.37.22-5.25.4-8.43.4-10.2,0-23.57-1.82-33.9-9.67a.24.24,0,0,1-.06-.33,31.64,31.64,0,0,1,9.27-8.66c9.2-5.81,22.12-8.34,37.36-7.33a.24.24,0,0,1,.13.42m-43.51.7c-2.48,3.39-7.52,8.43-17.46,13.33a3.4,3.4,0,0,0,.89,6.38A72.8,72.8,0,0,1,242,182.75a.28.28,0,0,1,.14.24.24.24,0,0,1-.17.2A80.5,80.5,0,0,1,230.71,186a68.17,68.17,0,0,1-11.7,1.07,48,48,0,0,1-20.29-4.16.25.25,0,0,1-.12-.3,31.48,31.48,0,0,1,7.14-10.4c7.84-7.78,20.19-13,35.7-15.21a.25.25,0,0,1,.23.11.21.21,0,0,1,0,.25m-56,26.72a3.38,3.38,0,0,0,2.22,6h0a69,69,0,0,1,8.66.62,57.51,57.51,0,0,1,9.11,1.89.24.24,0,0,1,.16.2.23.23,0,0,1-.11.25,85.58,85.58,0,0,1-10.8,4.57,62.22,62.22,0,0,1-20.43,3.69,43.69,43.69,0,0,1-12.05-1.6.25.25,0,0,1-.17-.28c1.44-7.14,8.08-24.85,38.4-35.12a.26.26,0,0,1,.25.07.22.22,0,0,1,0,.26c-2,4.58-6.23,11.7-15.3,19.49M495,365.37a54,54,0,0,1,8.38-25.94.27.27,0,0,1,.25-.12.26.26,0,0,1,.19.18,80.16,80.16,0,0,1,4,21.38,53.51,53.51,0,0,1-2.57,19,41.29,41.29,0,0,1-7,12.89.25.25,0,0,1-.2.1l-.12,0c-8.55-5.36-15.18-13.9-19.67-25.35a75.18,75.18,0,0,1-3.37-11,.26.26,0,0,1,.09-.26.23.23,0,0,1,.26,0,71.49,71.49,0,0,1,13.9,11.32,3.38,3.38,0,0,0,5.88-2.08m-13.51-37.54a53.46,53.46,0,0,1,5.65-26.64.17.17,0,0,1,.21-.14.25.25,0,0,1,.21.14,79.16,79.16,0,0,1,6.18,20.88,53.37,53.37,0,0,1-.58,19.12,41,41,0,0,1-5.63,13.54.21.21,0,0,1-.19.1l-.11,0c-9.07-4.48-16.55-12.28-22.2-23.22A76.31,76.31,0,0,1,460.5,321a.24.24,0,0,1,.07-.26.23.23,0,0,1,.25,0,73.09,73.09,0,0,1,15,9.85,3.39,3.39,0,0,0,5.63-2.68M462.56,296h0a3.38,3.38,0,0,0,1.65-3.46,53.63,53.63,0,0,1,2.47-27.11.23.23,0,0,1,.2-.14.25.25,0,0,1,.23.12,80.66,80.66,0,0,1,8.6,20.06,53.79,53.79,0,0,1,1.67,19.06,40.88,40.88,0,0,1-4,14.06.23.23,0,0,1-.21.14.09.09,0,0,1-.07,0c-10.23-3.55-18.8-10.51-25.47-20.73a66.51,66.51,0,0,1-5.58-10.45.24.24,0,0,1,0-.23.28.28,0,0,1,.24-.08,53.78,53.78,0,0,1,16.4,8.51,3.44,3.44,0,0,0,3.82.28m-25.43-32.57a3.39,3.39,0,0,0,5.19-3.77,59.49,59.49,0,0,1-1.69-26.86.26.26,0,0,1,.16-.19.35.35,0,0,1,.26.07,81.74,81.74,0,0,1,11.46,18.12,53.74,53.74,0,0,1,4.72,18.55,40,40,0,0,1-1.64,14.5.25.25,0,0,1-.23.17s0,0,0,0c-10-1.84-19.33-7.36-27.82-16.37a77.38,77.38,0,0,1-7.77-9.74.21.21,0,0,1,0-.25.27.27,0,0,1,.22-.12,38.66,38.66,0,0,1,17.18,5.91m-25.36-29a3.38,3.38,0,0,0,4.24-4.71,53.93,53.93,0,0,1-6.26-26.42.26.26,0,0,1,.14-.22.27.27,0,0,1,.26,0,79.87,79.87,0,0,1,14.1,16.09,55.46,55.46,0,0,1,7.69,17.66,43.59,43.59,0,0,1,1,14.9.24.24,0,0,1-.23.2h-.59c-11.3,0-21.7-6.17-28.49-11.39a86.84,86.84,0,0,1-9.77-8.79.23.23,0,0,1-.05-.25.22.22,0,0,1,.21-.15l1.26,0a52.47,52.47,0,0,1,16.53,3.06M401.7,208a44.5,44.5,0,0,1,2.94,16.54.25.25,0,0,1-.22.24c-.6,0-1.19.05-1.8.05-13.94,0-30.14-9.35-38.78-15.1a.21.21,0,0,1-.09-.24.22.22,0,0,1,.17-.19,47,47,0,0,1,17.32.26,3.39,3.39,0,0,0,3.44-5.41,69.31,69.31,0,0,1-10.79-20.29.24.24,0,0,1,.05-.25.29.29,0,0,1,.26-.06c13.7,4.59,22.95,12.8,27.5,24.45M149,166.87c.66-.25,1.32-.5,2-.73a189.08,189.08,0,0,1,19.93-5.64,54.11,54.11,0,0,0,15.68-6.18,2.32,2.32,0,0,0-.91-4.26l-40.17-5.84,40.16-5.9a2.32,2.32,0,0,0,0-4.59,77,77,0,0,1-17.74-5.4c-2.67-1.2-5-2.47-7.06-3.59a61.21,61.21,0,0,0-11.5-5.21c.7,0,1.41,0,2.13.08A186.32,186.32,0,0,1,172,122a53.53,53.53,0,0,0,16.84.3,2.31,2.31,0,0,0,.8-4.27L154.8,97.36l39.37,9.86a2.32,2.32,0,0,0,1.77-4.24,76.49,76.49,0,0,1-14.32-11.79c-2-2.08-3.56-4.06-5.13-6a62.86,62.86,0,0,0-8.65-9.25l1.94.9A187.85,187.85,0,0,1,187.84,87a53.53,53.53,0,0,0,15.45,6.74,2.32,2.32,0,0,0,2.46-1,2.35,2.35,0,0,0-.09-2.66L181.35,57.62,214,81.78a2.33,2.33,0,0,0,3.25-3.25,75.21,75.21,0,0,1-8.71-16.39c-1-2.7-1.74-5.15-2.45-7.54a62.39,62.39,0,0,0-4.42-11.82c.49.51,1,1,1.44,1.57a186.4,186.4,0,0,1,12.8,16.28,53.89,53.89,0,0,0,11.69,12.15,2.32,2.32,0,0,0,3.58-2.47L221.08,31.08,242,65.86a2.31,2.31,0,0,0,2.88.93,2.27,2.27,0,0,0,1.36-2.68,77.83,77.83,0,0,1-1.75-18.48c.09-2.88.36-5.41.62-7.88a63.91,63.91,0,0,0,.46-12.65c.24.67.49,1.35.72,2a188.11,188.11,0,0,1,5.59,19.94A54.48,54.48,0,0,0,258,62.76a2.36,2.36,0,0,0,2.46,1,2.32,2.32,0,0,0,1.81-1.94l5.62-39.8,5.81,39.81a2.32,2.32,0,0,0,4.59,0,75.76,75.76,0,0,1,5.4-17.76c1.17-2.62,2.38-4.86,3.57-7a63.77,63.77,0,0,0,5.22-11.52c0,.71-.05,1.42-.08,2.14A189.85,189.85,0,0,1,290,48.23a54.3,54.3,0,0,0-.29,16.87A2.28,2.28,0,0,0,291.58,67a2.32,2.32,0,0,0,2.4-1.09l20.75-34.81-9.9,39.29a2.32,2.32,0,0,0,4.25,1.76,76.54,76.54,0,0,1,11.78-14.32c2.06-1.94,4-3.53,6-5.15A62.53,62.53,0,0,0,336.09,44c-.28.64-.58,1.28-.89,1.92A192.56,192.56,0,0,1,325.1,64a54.34,54.34,0,0,0-6.74,15.47,2.3,2.3,0,0,0,1,2.45,2.35,2.35,0,0,0,2.64-.08l32.47-24.24L330.31,90.17a2.29,2.29,0,0,0,.22,3,2.35,2.35,0,0,0,3,.23,76.85,76.85,0,0,1,16.38-8.71c2.68-1,5.1-1.74,7.53-2.45a62.26,62.26,0,0,0,11.83-4.45c-.51.49-1,1-1.57,1.45a188.08,188.08,0,0,1-16.27,12.81,54.18,54.18,0,0,0-12.14,11.69,2.32,2.32,0,0,0,2.45,3.59l39.26-10L346.25,118.2a2.32,2.32,0,0,0,1.75,4.24,76.59,76.59,0,0,1,18.48-1.77c2.89.1,5.41.37,7.87.62a62.39,62.39,0,0,0,12.64.45c-.67.25-1.33.5-2,.72a185.32,185.32,0,0,1-19.92,5.6,53.76,53.76,0,0,0-15.7,6.14,2.32,2.32,0,0,0,.89,4.26l40.09,5.75-40.12,6a2.32,2.32,0,0,0,0,4.58A76.67,76.67,0,0,1,368,160.25c2.61,1.18,4.83,2.39,7.06,3.61a61.81,61.81,0,0,0,11.49,5.23c-.71,0-1.42,0-2.15-.1a184.44,184.44,0,0,1-20.55-2.48l-1.07-.16a56.69,56.69,0,0,0-22.16-4.89.76.76,0,0,0,0-.21,4.65,4.65,0,0,0-3-3.32c-10.91-3.78-21.13-5.72-30.41-5.79a64.25,64.25,0,0,0-9.79.67,5,5,0,0,0-.39-1.22,4.58,4.58,0,0,0-3.52-2.5c-11.46-1.52-21.89-1.38-31,.42a61.61,61.61,0,0,0-10.28,2.94,4.32,4.32,0,0,0-1.2-2.65,4.5,4.5,0,0,0-3.73-1.46c-11.51,1-21.67,3.31-30.14,7a66.86,66.86,0,0,0-6.5,3.27,4.59,4.59,0,0,0-5.77-3.95c-11.24,3.08-20.89,7.39-28.7,12.8l-.46.34c-2.15.12-4.23.16-6.25.1-1.68-.06-7.29-.55-7.87-.61a61.76,61.76,0,0,0-12.64-.41m10.8,11.64a.27.27,0,0,1,.26,0,.26.26,0,0,1,.13.23,53.78,53.78,0,0,1-8.84,25.75,3.39,3.39,0,0,0,3.51,5.17,72.83,72.83,0,0,1,17.48-1.05.23.23,0,0,1,.21.16.24.24,0,0,1-.08.26c-7.56,6-22.37,15.87-38.22,15.87-.57,0-1.13,0-1.7,0a.23.23,0,0,1-.22-.23c-.43-7.62,1.41-27.36,27.47-46.12M104.57,237a53.8,53.8,0,0,1,7.64-17.58,80.51,80.51,0,0,1,14.56-16.38A.23.23,0,0,1,127,203a.23.23,0,0,1,.14.21,53.35,53.35,0,0,1-6.29,26.48,3.38,3.38,0,0,0,.43,3.77,3.35,3.35,0,0,0,3.66,1,67.72,67.72,0,0,1,17-3.07.24.24,0,0,1,.23.14.25.25,0,0,1-.06.26,105.74,105.74,0,0,1-10,8.8c-6.9,5.32-17.05,11.5-26.81,11.5q-.59,0-1.17,0a.26.26,0,0,1-.23-.19,40.05,40.05,0,0,1,.66-14.86m-8.93-4.67a.21.21,0,0,1,.24-.09.31.31,0,0,1,.18.19,53.48,53.48,0,0,1-2,27.15,3.4,3.4,0,0,0,5.14,3.86,38.93,38.93,0,0,1,17-5.88.22.22,0,0,1,.22.12.23.23,0,0,1,0,.25c-6.13,8.57-18.85,23.38-35.29,26.12h0a.2.2,0,0,1-.22-.15c-2.4-7.28-5.73-26.86,14.81-51.57m-35.38,53a79.26,79.26,0,0,1,9.43-19.68.24.24,0,0,1,.43,0,53.44,53.44,0,0,1,1.32,27.22A3.4,3.4,0,0,0,77.16,296c.06-.06,7-6.76,16.52-8.08a.32.32,0,0,1,.24.09.3.3,0,0,1,0,.26,75.77,75.77,0,0,1-6.66,11.08c-7.26,10-15.94,16.48-25.8,19.34,0,0,0,0,0,0a.21.21,0,0,1-.21-.13,40.45,40.45,0,0,1-3.43-14.27,53.27,53.27,0,0,1,2.47-19M41.15,321.93a79.8,79.8,0,0,1,6.37-20.86.29.29,0,0,1,.22-.13h0a.22.22,0,0,1,.21.13,53.76,53.76,0,0,1,5.4,26.74A3.39,3.39,0,0,0,59,330.55a69.36,69.36,0,0,1,15.88-10.07.24.24,0,0,1,.26,0,.23.23,0,0,1,.07.23,50.61,50.61,0,0,1-3.66,9.95,52,52,0,0,1-24.18,24,.21.21,0,0,1-.12,0,.21.21,0,0,1-.18-.1,40.29,40.29,0,0,1-5.47-13.54,53.28,53.28,0,0,1-.41-19.12M30.81,339.08a.27.27,0,0,1,.19-.17.24.24,0,0,1,.23.1A53.56,53.56,0,0,1,40,364.87a3.39,3.39,0,0,0,6,1.91,59.82,59.82,0,0,1,14.47-12,.34.34,0,0,1,.26,0,.28.28,0,0,1,.09.24,53.83,53.83,0,0,1-2.31,10.63,48.66,48.66,0,0,1-21,26.7.25.25,0,0,1-.13,0,.22.22,0,0,1-.17-.08A41.19,41.19,0,0,1,30,379.48a53.62,53.62,0,0,1-2.83-18.92,80.4,80.4,0,0,1,3.69-21.48m-11.7,39.77a.24.24,0,0,1,.17-.2.23.23,0,0,1,.23.08A53.84,53.84,0,0,1,31.4,403.31a3.39,3.39,0,0,0,6.1,1.24A70.5,70.5,0,0,1,50,391.18a.24.24,0,0,1,.26,0,.25.25,0,0,1,.13.22A62.06,62.06,0,0,1,49,402a53.7,53.7,0,0,1-16.75,28.79.23.23,0,0,1-.16.06.19.19,0,0,1-.16-.06A40.6,40.6,0,0,1,23.27,419a53.47,53.47,0,0,1-5.15-18.44,79.4,79.4,0,0,1,1-21.72m-6,39.87a.23.23,0,0,1,.16-.2.23.23,0,0,1,.25.07,54,54,0,0,1,13,24,3.39,3.39,0,0,0,6.35.61,50.25,50.25,0,0,1,10.56-13.91.21.21,0,0,1,.26,0,.2.2,0,0,1,.14.2,74.75,74.75,0,0,1-1,12c-2,12.17-6.77,21.79-14.13,28.61a.23.23,0,0,1-.32,0,41.31,41.31,0,0,1-9.26-11.42,53.61,53.61,0,0,1-6-18.17,79.82,79.82,0,0,1,0-21.75M9.8,460.6a.26.26,0,0,1,.14-.21.31.31,0,0,1,.26.05c.85.8,1.71,1.65,2.54,2.54a55.36,55.36,0,0,1,12,20.65,3.39,3.39,0,0,0,6.57-.48h0a29.33,29.33,0,0,1,8.66-15.07.23.23,0,0,1,.25,0,.22.22,0,0,1,.15.17A62.33,62.33,0,0,1,40.38,488c-1.58,9.31-5.5,17.05-11.67,23a.21.21,0,0,1-.16.08.74.74,0,0,1-.14,0c-6.27-4.51-20.62-18.44-18.61-50.4M8.17,501.26a.28.28,0,0,1,.25,0c.94.71,1.87,1.47,2.79,2.24A55.76,55.76,0,0,1,25.3,522.84a3.36,3.36,0,0,0,3.09,2h.05a3.37,3.37,0,0,0,3.09-2.1,69.7,69.7,0,0,1,9.68-16,.24.24,0,0,1,.24-.08.27.27,0,0,1,.17.19c1.85,8.56,3.08,25.5-9.6,42.66a.25.25,0,0,1-.19.09.24.24,0,0,1-.12,0C25.05,545.68,9.43,533.25,8,501.49a.23.23,0,0,1,.13-.23m2.1,42.3a.26.26,0,0,1,.08-.23.25.25,0,0,1,.26,0A54.41,54.41,0,0,1,31,561.65a3.39,3.39,0,0,0,6.13-1.17h0l.22,0-.22,0A69.3,69.3,0,0,1,44,542.74a.27.27,0,0,1,.23-.11.19.19,0,0,1,.19.14,47.15,47.15,0,0,1,3.67,10.78c2.45,11.49.54,22.69-5.66,33.28a.24.24,0,0,1-.2.12.19.19,0,0,1-.08,0,41.19,41.19,0,0,1-12.7-7.74A54.12,54.12,0,0,1,17.66,564a79.47,79.47,0,0,1-7.39-20.48m9.58,39.27a.25.25,0,0,1,.33-.29c1.08.46,2.16,1,3.24,1.51a56.06,56.06,0,0,1,18.47,15.31,3.4,3.4,0,0,0,3.54,1.17,3.35,3.35,0,0,0,2.47-2.8,70.68,70.68,0,0,1,5.23-17.51.22.22,0,0,1,.21-.14.27.27,0,0,1,.22.14c4,8.71,9.47,25.92,1.59,43.37a.28.28,0,0,1-.22.15.06.06,0,0,1-.06,0c-7.45-2.1-25.74-10.32-35-40.88M43.51,641a80.14,80.14,0,0,1-11.14-18.73.2.2,0,0,1,.05-.23.21.21,0,0,1,.23-.08c1.12.33,2.26.7,3.39,1.12a56.52,56.52,0,0,1,20.13,13.11,3.37,3.37,0,0,0,5.78-2.3A69.72,69.72,0,0,1,65,616.14a.2.2,0,0,1,.2-.16.23.23,0,0,1,.22.1,70.34,70.34,0,0,1,4.88,10.43c4.23,11.42,4.83,22.26,1.78,32.24a.22.22,0,0,1-.22.17h-.05A41.89,41.89,0,0,1,58,653.68,54.55,54.55,0,0,1,43.51,641m5.76,18.62a.23.23,0,0,1,0-.26.21.21,0,0,1,.24-.09,54.94,54.94,0,0,1,25,11.44,3.37,3.37,0,0,0,3.77.3A3.41,3.41,0,0,0,80,667.65a61.65,61.65,0,0,1,.89-17.57.27.27,0,0,1,.18-.19.25.25,0,0,1,.25.11,79.14,79.14,0,0,1,6,10.11c3.76,7.6,7.8,19.17,5.75,31.15a.25.25,0,0,1-.23.2h0a41.8,41.8,0,0,1-14.34-3.6,55.3,55.3,0,0,1-15.9-11,80.46,80.46,0,0,1-13.27-17.29m78,67.91a64.7,64.7,0,0,1-4.16-17.19.24.24,0,0,1,.13-.22.23.23,0,0,1,.27,0c7.9,6.62,21,20.44,20.2,38.69a.23.23,0,0,1-.18.22,32.6,32.6,0,0,1-5.31.41,40.55,40.55,0,0,1-8.06-.82c-11.36-2.28-23-9-34.7-19.89a.23.23,0,0,1-.07-.25.27.27,0,0,1,.2-.17A55.46,55.46,0,0,1,123,732a3.39,3.39,0,0,0,4.36-4.47M96.56,703.11a3.36,3.36,0,0,0,3.8-.12,3.41,3.41,0,0,0,1.31-3.59,54.81,54.81,0,0,1-1.11-17.4.24.24,0,0,1,.16-.2.28.28,0,0,1,.26.07c6.46,7.81,17.15,23.34,16.15,39.79a.24.24,0,0,1-.22.21c-.46,0-1,0-1.6,0a42.31,42.31,0,0,1-13-2.15,54.73,54.73,0,0,1-17-9.25,81.16,81.16,0,0,1-15-15.82.26.26,0,0,1,0-.27.23.23,0,0,1,.23-.11,55,55,0,0,1,26.08,8.8m132.56-88.93c-1.1.73-2.14,1.47-3.12,2.15-7.24,5.06-11.74,10.46-13.41,16a21.78,21.78,0,0,1-2.65-.69c-5.55-1.82-5.82-4.64-5.93-5.67-.15-2.87,1.35-5.43,5.55-9.47,5-4.76,9.07-7.08,12.66-7.08a8.14,8.14,0,0,1,3.65.87c1.75.89,2.87,1.89,3.18,2.82a2.39,2.39,0,0,1,.07,1m6.95,27.94c-2.22.36-8.2,1-11.18-1a3.91,3.91,0,0,1-1.69-3.22c-.5-4.71,5.61-9.74,9.3-12.33,5.76-4,9.71-6.32,12.93-6.32a6.6,6.6,0,0,1,4.46,1.8c1.17,1,1.76,1.93,1.73,2.68-.1,1.49-2,3.77-3.76,5.13-5.68,3.94-9.53,8.29-11.79,13.25m28.77,1c-2.18,1.7-9.59,6.31-14.87,5.26a6.14,6.14,0,0,1-3.43-1.93c2.46-5.08,7.85-8.51,12.72-11.33,6.36-3.7,9.15-1.55,9.21-1.49,1.88,1.81,1.78,2.87,1.74,3.22-.23,2.25-3.46,5-4.94,6l-.43.3M204.38,606c-.86.72-1.7,1.51-2.65,2.41-3.31,3.19-6.89,7.14-8.35,12.33-.83-.07-1.63-.17-2.36-.28-3.65-.59-5.66-1.73-6.06-2.63-.23-.55-.94-2.19,1.18-5,3.09-4,9.79-7.31,14.58-7.31a9.1,9.1,0,0,1,1.29.1,3.91,3.91,0,0,0,.46,0,13.85,13.85,0,0,1,1.91.32m145.53,7c-1.66,1.57-4.19,2.41-7.52,2.49-4.73-6.36-17-21.35-32.58-29a5.65,5.65,0,1,0-5,10.15c13.18,6.46,24.11,19.74,28.4,25.47a11.81,11.81,0,0,1-1.68,2.56c-2.12,2.44-5.27,3.61-9.27,3.6a50.34,50.34,0,0,0-7.54-10.89c-4.8-5.55-14.51-12.39-14.92-12.68a5.66,5.66,0,0,0-7.88,1.36,5.71,5.71,0,0,0-.95,4.24,5.63,5.63,0,0,0,2.33,3.65c2.48,1.74,9.65,7.12,12.85,10.83,3.78,4.36,5.3,7,5.9,8.32a14.27,14.27,0,0,1-2.56,3.55A8.67,8.67,0,0,1,302,639a62.89,62.89,0,0,0-10.31-15.61,5.64,5.64,0,0,0-8-.48,5.61,5.61,0,0,0-.48,8A53,53,0,0,1,291,642.23a17.26,17.26,0,0,1-2.94,1.49,18.55,18.55,0,0,1-9.13,1.12,15.5,15.5,0,0,0,2.52-6.82c.34-3.13-.28-7.83-5-12.48-2.45-2.48-7.26-4.69-13.62-3.67a15.15,15.15,0,0,0-5.49-9.35c-5.16-4.47-11.13-5.69-17.78-3.66h0c-1-2.59-3.35-6-8.59-8.66a19.7,19.7,0,0,0-15.11-1.06c-4.64-3.89-10.67-4.65-12.39-4.78-7.49-1-17.19,2.53-23.62,8.62-32.27,17.27-73.75,35.94-90.62,43.4A325.52,325.52,0,0,1,66.78,593c-1.65-5.13-3.2-10.4-4.64-15.68,47.43-5.45,85.57-11,113.39-16.58,29.18-5.82,48-11.75,57.61-18.22,11.11-7.83,18.7-11.64,29.3-10.75,2.5.22,4.78.47,6.89.76a31.52,31.52,0,0,0-5.79,3.23c-4.46,3.13-7.19,5.36-9.61,7.34a81.82,81.82,0,0,1-7.44,5.55,81.9,81.9,0,0,1-7.82,4.16c-6.61,3.24-11.82,5.78-13.5,10.28-1.77,4.84-1.09,9.08,2.23,13.74,5.07,7.09,13.29,6.63,19.88,6.26a56,56,0,0,0,23-6.92c2.37-1.37,4.45-2.73,6.3-4,2.83-1.88,5.29-3.48,7-3.87.11,0,.22-.05.33-.07,5.7-1.57,12.16-.91,19.75,2,6.87,2.66,13.58,6.76,19.81,10.81,14.78,9.62,25.75,22.59,29,26.66a9.3,9.3,0,0,1-2.56,5.19m20.5-4.37a56.62,56.62,0,0,1-9.83-8.79l-.07-.07-.18-.21c-.44-.52-.71-.86-.81-1a140,140,0,0,0-29.9-26.89c-10.43-6.78-29.79-19.38-48.56-14.3-3.74.83-7,3-10.74,5.45-1.78,1.19-3.62,2.39-5.7,3.6a44.63,44.63,0,0,1-18,5.42c-5.35.3-8.7.35-10-1.53-1.23-1.71-1.16-2.3-1-2.85,1.2-1.13,5.61-3.27,8-4.46a85.67,85.67,0,0,0,9-4.83,90.6,90.6,0,0,0,8.43-6.28c2.26-1.84,4.82-3.93,9-6.85,5.63-4,11.8-4.08,21.13-4.27h.18c1.42,0,2.87,0,4.39-.1l3.5-.12c10-.45,19,2.78,32.63,7.69,3.94,1.44,8.44,3,13.53,4.78.77.24,19.13,6,44.11,12,21.66,5.16,53.71,11.7,83.76,13.7-1.33,4.87-2.77,9.7-4.25,14.35a327.12,327.12,0,0,1-23.41,55.23c-15-6.18-51.3-22-75.2-39.65m70,120.17c-14.47,13.57-26.85,18.29-34.68,19.87a40.51,40.51,0,0,1-8.06.83,31.64,31.64,0,0,1-5.31-.42.25.25,0,0,1-.18-.22c-.48-10.33,3.47-20.43,11.72-30a70.88,70.88,0,0,1,8.68-8.43.27.27,0,0,1,.26,0,.28.28,0,0,1,.13.23,71.23,71.23,0,0,1-4.35,17A3.39,3.39,0,0,0,413,732a55.64,55.64,0,0,1,27.3-3.64.21.21,0,0,1,.19.17.19.19,0,0,1-.07.24m25.63-34.06a80.77,80.77,0,0,1-15,15.81,54.78,54.78,0,0,1-17,9.25,42.52,42.52,0,0,1-13,2.15c-.62,0-1.16,0-1.61,0a.24.24,0,0,1-.22-.21c-.7-10,2.31-20.29,8.95-30.66a78.85,78.85,0,0,1,7-9.32.24.24,0,0,1,.25,0,.25.25,0,0,1,.17.19,70.12,70.12,0,0,1-1,17.75,3.39,3.39,0,0,0,5.14,3.54,55.51,55.51,0,0,1,26.06-8.78.25.25,0,0,1,.22.12.2.2,0,0,1,0,.25m7.75-17.8a55.12,55.12,0,0,1-15.89,11,41.78,41.78,0,0,1-14.38,3.6h0a.23.23,0,0,1-.23-.2c-1.76-9.83.15-20.4,5.65-31.4a76.78,76.78,0,0,1,6-10,.24.24,0,0,1,.25-.09.25.25,0,0,1,.18.18,70.91,70.91,0,0,1,.92,17.76,3.39,3.39,0,0,0,5.48,3,55.29,55.29,0,0,1,25-11.43.26.26,0,0,1,.23.11.23.23,0,0,1,0,.25,80.09,80.09,0,0,1-13.25,17.27m18.77-36.44a54.78,54.78,0,0,1-14.5,12.7,41.59,41.59,0,0,1-13.81,5.22h0a.28.28,0,0,1-.24-.17c-2.93-10-2.3-20.91,1.89-32.31a68.81,68.81,0,0,1,4.67-10.12.22.22,0,0,1,.22-.13.23.23,0,0,1,.2.16,79.72,79.72,0,0,1,3.17,17.6,3.33,3.33,0,0,0,2.22,3,3.41,3.41,0,0,0,3.66-.88c7.5-8.17,15-11.93,20-13.64,1.2-.4,2.42-.75,3.62-1a.21.21,0,0,1,.24.08.23.23,0,0,1,0,.23,80.52,80.52,0,0,1-11.36,19.25m14.34-38.12a54.67,54.67,0,0,1-13.16,14.06A41.8,41.8,0,0,1,480.54,623h-.06a.23.23,0,0,1-.22-.14c-4.8-11.63-3.4-24.07-1.38-32.47A81.73,81.73,0,0,1,482.51,579a.23.23,0,0,1,.21-.16h0a.27.27,0,0,1,.22.15,77.06,77.06,0,0,1,4.91,18.08,3.39,3.39,0,0,0,6,1.71,54.89,54.89,0,0,1,22-16.45.23.23,0,0,1,.25,0,.24.24,0,0,1,.07.25,80,80,0,0,1-9.2,19.7m10.52-39.76a53.94,53.94,0,0,1-11.3,15.54,40.66,40.66,0,0,1-12.3,8.11.09.09,0,0,1-.08,0,.24.24,0,0,1-.21-.13c-5.18-9.25-7.06-20.23-5.55-32.66A74.16,74.16,0,0,1,490.31,542a.23.23,0,0,1,.21-.17.23.23,0,0,1,.23.11,77.2,77.2,0,0,1,7.12,17.73,3.39,3.39,0,0,0,6.16,1,54.73,54.73,0,0,1,19.75-19,.26.26,0,0,1,.26,0,.28.28,0,0,1,.11.23,80,80,0,0,1-6.69,20.69"/><path class="cls-4" d="M340.57,161.46a56.69,56.69,0,0,1,22.16,4.89l1.07.16A184.44,184.44,0,0,0,384.35,169c.73.06,1.44.08,2.15.09A61.16,61.16,0,0,1,375,163.86c-2.22-1.22-4.45-2.43-7.06-3.62a77,77,0,0,0-17.74-5.45,2.32,2.32,0,0,1,0-4.58l40.12-6-40.09-5.75a2.32,2.32,0,0,1-.89-4.26,53.44,53.44,0,0,1,15.7-6.14,184.68,184.68,0,0,0,19.92-5.6c.68-.22,1.34-.47,2-.72a62.32,62.32,0,0,1-12.63-.45c-2.45-.25-5-.52-7.88-.62A76.71,76.71,0,0,0,348,122.44a2.31,2.31,0,0,1-1.75-4.23L381,97.35l-39.26,10a2.31,2.31,0,0,1-2.45-3.59,54.26,54.26,0,0,1,12.13-11.69,188.33,188.33,0,0,0,16.28-12.81l1.57-1.45a62.26,62.26,0,0,1-11.83,4.45c-2.42.71-4.85,1.43-7.53,2.45a77.16,77.16,0,0,0-16.38,8.71,2.35,2.35,0,0,1-3-.23,2.29,2.29,0,0,1-.22-3l24.16-32.55L322,81.85a2.34,2.34,0,0,1-2.64.09,2.3,2.3,0,0,1-1-2.45A54.34,54.34,0,0,1,325.1,64,192.56,192.56,0,0,0,335.2,46q.46-1,.9-1.92a61.64,61.64,0,0,1-9.24,8.63c-2,1.62-3.94,3.21-6,5.15a76.08,76.08,0,0,0-11.78,14.32,2.32,2.32,0,0,1-4.24-1.76l9.89-39.3L294,65.89a2.32,2.32,0,0,1-2.4,1.09,2.28,2.28,0,0,1-1.87-1.88A54.3,54.3,0,0,1,290,48.23a185.69,185.69,0,0,0,2.41-20.55c0-.72.07-1.43.08-2.14a62.42,62.42,0,0,1-5.21,11.52c-1.17,2.19-2.4,4.43-3.57,7.06a76.18,76.18,0,0,0-5.4,17.75,2.32,2.32,0,0,1-4.59,0l-5.81-39.81-5.62,39.8a2.32,2.32,0,0,1-1.81,1.94,2.37,2.37,0,0,1-2.46-1,53.84,53.84,0,0,1-6.12-15.71,190.59,190.59,0,0,0-5.59-19.94c-.23-.66-.48-1.34-.72-2a63.16,63.16,0,0,1-.46,12.65c-.26,2.47-.53,5-.62,7.88a77.83,77.83,0,0,0,1.75,18.48A2.31,2.31,0,0,1,242,65.86L221.08,31.08l10.08,39.23a2.31,2.31,0,0,1-3.58,2.47,53.89,53.89,0,0,1-11.69-12.15,185,185,0,0,0-12.81-16.28c-.46-.53-.94-1.06-1.43-1.57a61.05,61.05,0,0,1,4.42,11.82c.71,2.39,1.44,4.84,2.45,7.54a75.49,75.49,0,0,0,8.71,16.39A2.33,2.33,0,0,1,214,81.78L181.35,57.62l24.31,32.43a2.35,2.35,0,0,1,.09,2.66,2.32,2.32,0,0,1-2.46,1A53.86,53.86,0,0,1,187.84,87a187.85,187.85,0,0,0-18.06-10.14c-.64-.31-1.28-.6-1.94-.9a62.23,62.23,0,0,1,8.64,9.25c1.59,1.95,3.18,3.93,5.14,6A77.28,77.28,0,0,0,195.94,103a2.28,2.28,0,0,1,.94,2.86,2.31,2.31,0,0,1-2.71,1.37L154.8,97.36l34.88,20.71a2.31,2.31,0,0,1-.8,4.27A53.85,53.85,0,0,1,172,122a186.32,186.32,0,0,0-20.57-2.43c-.72,0-1.43-.07-2.14-.08a61,61,0,0,1,11.51,5.21c2.07,1.12,4.39,2.39,7.06,3.59a77,77,0,0,0,17.74,5.4,2.32,2.32,0,0,1,0,4.59l-40.16,5.9,40.17,5.84a2.33,2.33,0,0,1,.91,4.26,54.09,54.09,0,0,1-15.69,6.18A189.74,189.74,0,0,0,151,166.14c-.68.23-1.34.48-2,.73a61.86,61.86,0,0,1,12.65.41c.58.06,6.19.55,7.87.61,2,.06,4.1,0,6.25-.1l.46-.34c7.81-5.41,17.46-9.72,28.7-12.8a4.59,4.59,0,0,1,5.77,3.95,66.86,66.86,0,0,1,6.5-3.27c8.48-3.68,18.63-6,30.14-7A4.5,4.5,0,0,1,251,149.8a4.32,4.32,0,0,1,1.2,2.65,61.61,61.61,0,0,1,10.28-2.94c9.08-1.8,19.51-1.94,31-.42a4.5,4.5,0,0,1,3.91,3.72,64.25,64.25,0,0,1,9.79-.67c9.28.07,19.5,2,30.41,5.79a4.65,4.65,0,0,1,3,3.32.76.76,0,0,1,0,.21"/><path class="cls-3" d="M282.14,110.73c39-6.22,43.33,5,43.33,5a3.43,3.43,0,0,0,4.21,1.75s2.65-.27,1.32-3.42c0,0-4.28-12.77-25-15a83,83,0,0,0-22.42.64c-3.45.61-4.44,8.26-4.44,8.26-.49,3.43,3,2.71,3,2.71"/><path class="cls-3" d="M248.87,118.3c-4.79-2.16-15.64-1.71-15.64-1.71-17.65.59-22.26,11.54-22.26,11.54-1.56,3.67,1.54,4,1.54,4a4,4,0,0,0,4.89-2.05s1-3.12,8.26-4.91a9,9,0,1,0,16.7-.22,11.63,11.63,0,0,1,6.46,5.84c.63,1.29,2,1.84,5.34,1.84,3.62,0,2.74-2.35,2.74-2.35-2.18-9.26-8-12-8-12"/><path class="cls-3" d="M281.35,132.62c3.35,0,4.71-.55,5.34-1.84a11.6,11.6,0,0,1,6.46-5.84,9.15,9.15,0,0,0-.72,3.55,9,9,0,1,0,18.07,0,8.79,8.79,0,0,0-.66-3.33c7.26,1.79,8.27,4.91,8.27,4.91a4,4,0,0,0,4.89,2.05s3.1-.32,1.55-4c0,0-4.63-10.95-22.28-11.54,0,0-10.85-.45-15.63,1.71,0,0-5.85,2.71-8,12,0,0-.88,2.35,2.74,2.35"/><path class="cls-3" d="M205.84,117.53a3.39,3.39,0,0,0,4.19-1.75s4.3-11.27,43.34-5c0,0,3.53.72,3-2.71,0,0-1-7.65-4.44-8.26a83,83,0,0,0-22.42-.64c-20.76,2.22-25.05,15-25.05,15-1.32,3.14,1.34,3.41,1.34,3.41"/><path class="cls-5" d="M440.33,728.35A55.52,55.52,0,0,0,413,732a3.37,3.37,0,0,1-3.66-.79,3.41,3.41,0,0,1-.71-3.67,71.23,71.23,0,0,0,4.35-17,.31.31,0,0,0-.13-.23.27.27,0,0,0-.26,0,70.88,70.88,0,0,0-8.68,8.43c-8.25,9.59-12.2,19.69-11.72,30a.25.25,0,0,0,.18.22,31.64,31.64,0,0,0,5.31.42,40.51,40.51,0,0,0,8.06-.83c7.85-1.58,20.21-6.3,34.68-19.87a.24.24,0,0,0-.12-.41"/><path class="cls-5" d="M123.56,710.13a.25.25,0,0,0-.27,0,.24.24,0,0,0-.13.23,65.87,65.87,0,0,0,4.16,17.2,3.38,3.38,0,0,1-.7,3.67A3.41,3.41,0,0,1,123,732a55.31,55.31,0,0,0-27.32-3.66.24.24,0,0,0-.2.16.23.23,0,0,0,.07.25c11.66,10.93,23.34,17.61,34.7,19.89a41.32,41.32,0,0,0,8.06.82,32.6,32.6,0,0,0,5.31-.41.23.23,0,0,0,.18-.22c.83-18.25-12.3-32.07-20.2-38.69"/><path class="cls-5" d="M465.87,694.33a55.55,55.55,0,0,0-26.06,8.78,3.39,3.39,0,0,1-5.14-3.54,70.12,70.12,0,0,0,1-17.75.25.25,0,0,0-.17-.19.24.24,0,0,0-.25,0,78.85,78.85,0,0,0-7,9.32c-6.64,10.37-9.65,20.69-8.95,30.66a.23.23,0,0,0,.23.21c.46,0,1,0,1.6,0a42.6,42.6,0,0,0,13-2.16,54.57,54.57,0,0,0,17-9.25,80.75,80.75,0,0,0,15-15.81.21.21,0,0,0,0-.25.23.23,0,0,0-.22-.12"/><path class="cls-5" d="M486.83,659.28a55.26,55.26,0,0,0-25,11.42,3.39,3.39,0,0,1-5.48-3,70.91,70.91,0,0,0-.92-17.76.25.25,0,0,0-.18-.18.26.26,0,0,0-.26.09,77.82,77.82,0,0,0-6,10c-5.5,11-7.41,21.56-5.65,31.4a.24.24,0,0,0,.23.21h0a42.13,42.13,0,0,0,14.38-3.61,55.06,55.06,0,0,0,15.89-11,80.51,80.51,0,0,0,13.25-17.26.23.23,0,0,0,0-.26.23.23,0,0,0-.23-.1"/><path class="cls-5" d="M503.69,620.9c-1.2.27-2.42.63-3.62,1-5,1.71-12.53,5.47-20,13.64a3.41,3.41,0,0,1-3.66.88,3.33,3.33,0,0,1-2.22-3,79.72,79.72,0,0,0-3.17-17.6.23.23,0,0,0-.2-.16.22.22,0,0,0-.22.13,68.81,68.81,0,0,0-4.67,10.12c-4.19,11.4-4.82,22.27-1.89,32.31a.28.28,0,0,0,.24.17h0a41.3,41.3,0,0,0,13.81-5.24,54,54,0,0,0,14.5-12.68A80.84,80.84,0,0,0,504,621.22a.25.25,0,0,0,0-.24.21.21,0,0,0-.24-.08"/><path class="cls-5" d="M515.82,582.35a54.89,54.89,0,0,0-22,16.45,3.4,3.4,0,0,1-6-1.71A77.34,77.34,0,0,0,483,579a.23.23,0,0,0-.44,0,81.73,81.73,0,0,0-3.63,11.32c-2,8.4-3.42,20.84,1.38,32.47a.25.25,0,0,0,.22.16l.06,0a41.79,41.79,0,0,0,13.25-6.56,54.43,54.43,0,0,0,13.15-14,79.77,79.77,0,0,0,9.2-19.71.27.27,0,0,0-.06-.24.25.25,0,0,0-.26,0"/><path class="cls-5" d="M523.78,541.64a54.73,54.73,0,0,0-19.75,19,3.39,3.39,0,0,1-6.16-1A77,77,0,0,0,490.75,542a.22.22,0,0,0-.23-.12.23.23,0,0,0-.21.17A74.16,74.16,0,0,0,488,553.47c-1.5,12.43.37,23.41,5.55,32.67a.26.26,0,0,0,.21.12.09.09,0,0,0,.08,0,40.46,40.46,0,0,0,12.3-8.11,53.94,53.94,0,0,0,11.3-15.54,79.26,79.26,0,0,0,6.67-20.69.22.22,0,0,0-.09-.23.26.26,0,0,0-.26,0"/><path class="cls-5" d="M509.89,521.76a3.39,3.39,0,0,1-6.27-.38,59.12,59.12,0,0,0-8.75-16.07.25.25,0,0,0-.25-.09.24.24,0,0,0-.17.18,66.62,66.62,0,0,0-1.24,11.7c-.23,12.14,2.85,22.63,9.14,31.16a.27.27,0,0,0,.2.09.23.23,0,0,0,.11,0,41.18,41.18,0,0,0,11.33-9.4,53.89,53.89,0,0,0,9.47-16.65,80.74,80.74,0,0,0,4.3-21.32.27.27,0,0,0-.13-.22.23.23,0,0,0-.25,0,54.11,54.11,0,0,0-17.49,21"/><path class="cls-5" d="M508.46,484.8a3.34,3.34,0,0,1-3.22-1.88,70.69,70.69,0,0,0-10-14.53.23.23,0,0,0-.26-.07.27.27,0,0,0-.16.22c-.35,10,.69,28.59,11.79,41.14a.24.24,0,0,0,.18.07.17.17,0,0,0,.13,0,40.65,40.65,0,0,0,10.33-10.43,53.5,53.5,0,0,0,7.76-17.5,79.4,79.4,0,0,0,2.16-21.64.22.22,0,0,0-.14-.2.21.21,0,0,0-.26,0,54,54,0,0,0-15.3,22.61,3.43,3.43,0,0,1-3,2.22"/><path class="cls-5" d="M506.57,445.11a3.42,3.42,0,0,1-3.4-1.57,72.65,72.65,0,0,0-11.05-13.17.24.24,0,0,0-.27,0,.23.23,0,0,0-.11.24c1,10.89,4.3,30.54,15.25,39.62a.36.36,0,0,0,.15.06.28.28,0,0,0,.15-.06,40.43,40.43,0,0,0,9.42-11.55,53.8,53.8,0,0,0,6-18.19,78.53,78.53,0,0,0,0-21.73.22.22,0,0,0-.15-.2.21.21,0,0,0-.24.07,53.85,53.85,0,0,0-13,24,3.41,3.41,0,0,1-2.77,2.52"/><path class="cls-5" d="M501.32,406.48a3.39,3.39,0,0,1-3.46-1.4,71.66,71.66,0,0,0-12.05-13,.24.24,0,0,0-.26,0,.26.26,0,0,0-.13.23,85.78,85.78,0,0,0,2,11.54c2.06,8.25,6.44,19.74,15.65,27.52a.26.26,0,0,0,.15.06.23.23,0,0,0,.17-.07,41.34,41.34,0,0,0,8.71-11.83,53.85,53.85,0,0,0,5.15-18.43,79.93,79.93,0,0,0-1-21.74.2.2,0,0,0-.18-.17.19.19,0,0,0-.23.07A54.1,54.1,0,0,0,504,403.84a3.41,3.41,0,0,1-2.65,2.64"/><path class="cls-5" d="M492.72,368.37a3.43,3.43,0,0,1-3.63-.92,71.49,71.49,0,0,0-13.9-11.32.23.23,0,0,0-.26,0,.25.25,0,0,0-.09.26,74,74,0,0,0,3.37,11c4.49,11.45,11.12,20,19.67,25.35l.12,0a.27.27,0,0,0,.2-.09,41.51,41.51,0,0,0,7-12.9,53.51,53.51,0,0,0,2.57-19,80.16,80.16,0,0,0-4-21.38.26.26,0,0,0-.19-.18.28.28,0,0,0-.25.12A54,54,0,0,0,495,365.37a3.39,3.39,0,0,1-2.25,3"/><path class="cls-5" d="M475.83,330.51a73.09,73.09,0,0,0-15-9.85.23.23,0,0,0-.25,0,.24.24,0,0,0-.07.26,77.53,77.53,0,0,0,4.5,10.64c5.66,10.94,13.13,18.74,22.2,23.22l.11,0a.2.2,0,0,0,.19-.11,40.85,40.85,0,0,0,5.63-13.53,53.37,53.37,0,0,0,.58-19.12,79.16,79.16,0,0,0-6.18-20.88.25.25,0,0,0-.21-.14.16.16,0,0,0-.21.12,53.91,53.91,0,0,0-5.65,26.68,3.39,3.39,0,0,1-5.63,2.66"/><path class="cls-5" d="M442.11,287.28a.22.22,0,0,0-.05.23A66.51,66.51,0,0,0,447.64,298c6.67,10.22,15.24,17.18,25.47,20.73a.1.1,0,0,0,.08,0,.22.22,0,0,0,.2-.14,40.72,40.72,0,0,0,4-14.06,53.7,53.7,0,0,0-1.67-19,80.56,80.56,0,0,0-8.6-20.07.26.26,0,0,0-.22-.12.23.23,0,0,0-.21.14,53.63,53.63,0,0,0-2.47,27.11,3.38,3.38,0,0,1-1.65,3.46,3.42,3.42,0,0,1-3.82-.28,53.93,53.93,0,0,0-16.4-8.51.2.2,0,0,0-.23.08"/><path class="cls-5" d="M419.73,257.63a.2.2,0,0,0,0,.25,76.6,76.6,0,0,0,7.76,9.74c8.49,9,17.85,14.53,27.82,16.37a0,0,0,0,0,0,0,.24.24,0,0,0,.24-.17,39.93,39.93,0,0,0,1.64-14.5,53.52,53.52,0,0,0-4.72-18.55,81.74,81.74,0,0,0-11.46-18.12.35.35,0,0,0-.26-.07.27.27,0,0,0-.17.19,59.66,59.66,0,0,0,1.7,26.86,3.38,3.38,0,0,1-5.19,3.77A38.66,38.66,0,0,0,420,257.51a.27.27,0,0,0-.22.12"/><path class="cls-5" d="M415.53,233.53a3.44,3.44,0,0,1-3.76.89,51.51,51.51,0,0,0-16.51-3.08c-.42,0-.86,0-1.28,0a.21.21,0,0,0-.21.15.23.23,0,0,0,.05.25,87.72,87.72,0,0,0,9.77,8.79c6.79,5.23,17.19,11.38,28.49,11.38h.58a.23.23,0,0,0,.23-.2,43.23,43.23,0,0,0-.95-14.9,55.65,55.65,0,0,0-7.68-17.66,79.93,79.93,0,0,0-14.11-16.07.22.22,0,0,0-.26-.05.23.23,0,0,0-.14.2A53.88,53.88,0,0,0,416,229.68a3.41,3.41,0,0,1-.48,3.85"/><path class="cls-5" d="M115.31,721.91c.6,0,1.14,0,1.6,0a.24.24,0,0,0,.22-.21c1-16.45-9.69-32-16.15-39.79a.26.26,0,0,0-.26-.07.24.24,0,0,0-.16.2,55.23,55.23,0,0,0,1.11,17.4,3.42,3.42,0,0,1-1.3,3.59,3.36,3.36,0,0,1-3.81.12,55.07,55.07,0,0,0-26.09-8.8.17.17,0,0,0-.21.11.22.22,0,0,0,0,.26,81.3,81.3,0,0,0,15,15.84,55.23,55.23,0,0,0,17,9.24,42.31,42.31,0,0,0,13,2.15"/><path class="cls-5" d="M92.78,691.46h0a.24.24,0,0,0,.23-.2c2-12-2-23.57-5.75-31.15a78.45,78.45,0,0,0-6-10.11.27.27,0,0,0-.25-.11.26.26,0,0,0-.18.2A61.51,61.51,0,0,0,80,667.64,3.41,3.41,0,0,1,78.29,671a3.36,3.36,0,0,1-3.75-.3,55.05,55.05,0,0,0-25-11.44.22.22,0,0,0-.24.09.23.23,0,0,0,0,.26A80.46,80.46,0,0,0,62.54,676.9a55.1,55.1,0,0,0,15.9,11,41.56,41.56,0,0,0,14.34,3.6"/><path class="cls-5" d="M71.85,658.92h0a.23.23,0,0,0,.25-.17c3-10,2.45-20.82-1.78-32.23a70,70,0,0,0-4.88-10.44.22.22,0,0,0-.22-.1.23.23,0,0,0-.21.16A70,70,0,0,0,62,633.88a3.38,3.38,0,0,1-5.78,2.3A56.24,56.24,0,0,0,36,623.07c-1.13-.42-2.27-.79-3.38-1.12a.22.22,0,0,0-.24.08.2.2,0,0,0-.05.23A80.2,80.2,0,0,0,43.51,641,54.42,54.42,0,0,0,58,653.68a42.13,42.13,0,0,0,13.84,5.24"/><path class="cls-5" d="M54.87,623.71a.06.06,0,0,0,.06,0,.28.28,0,0,0,.22-.15c7.88-17.45,2.37-34.66-1.59-43.37a.27.27,0,0,0-.22-.14h0a.22.22,0,0,0-.21.14,70.68,70.68,0,0,0-5.23,17.51,3.35,3.35,0,0,1-2.47,2.8,3.4,3.4,0,0,1-3.54-1.17,56.06,56.06,0,0,0-18.47-15.31c-1.08-.55-2.16-1-3.24-1.51a.25.25,0,0,0-.33.29c9.28,30.55,27.57,38.78,35,40.88"/><path class="cls-5" d="M29.47,579.18a41.19,41.19,0,0,0,12.7,7.74.19.19,0,0,0,.08,0,.24.24,0,0,0,.2-.12c6.2-10.59,8.11-21.79,5.66-33.28a48.59,48.59,0,0,0-3.65-10.78.24.24,0,0,0-.21-.14.25.25,0,0,0-.23.11,69.3,69.3,0,0,0-6.89,17.74l.23,0-.23,0A3.39,3.39,0,0,1,31,561.65,54.55,54.55,0,0,0,10.61,543.3a.25.25,0,0,0-.26,0,.29.29,0,0,0-.08.23A79.47,79.47,0,0,0,17.66,564a54.12,54.12,0,0,0,11.81,15.14"/><path class="cls-5" d="M31.71,549.55a.24.24,0,0,0,.12,0,.25.25,0,0,0,.19-.09c12.68-17.16,11.45-34.1,9.6-42.66a.21.21,0,0,0-.17-.18.22.22,0,0,0-.24.07,69.92,69.92,0,0,0-9.68,16,3.37,3.37,0,0,1-3.09,2.1h-.05a3.37,3.37,0,0,1-3.09-2,55.51,55.51,0,0,0-14.09-19.31c-.92-.78-1.85-1.54-2.79-2.25a.28.28,0,0,0-.25,0,.23.23,0,0,0-.13.23c1.39,31.76,17,44.19,23.67,48.06"/><path class="cls-5" d="M28.41,511a.39.39,0,0,0,.14.05.21.21,0,0,0,.16-.08C34.88,505,38.8,497.3,40.38,488a62.33,62.33,0,0,0-.05-19.78.23.23,0,0,0-.16-.17.2.2,0,0,0-.24,0,29.33,29.33,0,0,0-8.66,15.07,3.39,3.39,0,0,1-6.57.48,55.23,55.23,0,0,0-12-20.65c-.83-.89-1.69-1.74-2.54-2.54a.31.31,0,0,0-.26-.05.26.26,0,0,0-.14.21c-2,32,12.36,45.88,18.61,50.39"/><path class="cls-5" d="M19.16,458.64a41.31,41.31,0,0,0,9.26,11.42.28.28,0,0,0,.15.06.35.35,0,0,0,.17-.06c7.36-6.83,12.12-16.46,14.13-28.62a74.72,74.72,0,0,0,1-12,.23.23,0,0,0-.14-.22.25.25,0,0,0-.26,0A50.25,50.25,0,0,0,32.89,443.2a3.39,3.39,0,0,1-6.35-.61,54,54,0,0,0-13-24,.23.23,0,0,0-.25-.07.24.24,0,0,0-.16.2,79.42,79.42,0,0,0,0,21.75,53.61,53.61,0,0,0,6,18.17"/><path class="cls-5" d="M23.27,419a40.81,40.81,0,0,0,8.62,11.74.22.22,0,0,0,.17.06.32.32,0,0,0,.16,0A53.83,53.83,0,0,0,49,402a62.06,62.06,0,0,0,1.46-10.58.23.23,0,0,0-.13-.22.24.24,0,0,0-.26,0A70.5,70.5,0,0,0,37.5,404.55a3.39,3.39,0,0,1-6.1-1.24,53.84,53.84,0,0,0-11.89-24.58.23.23,0,0,0-.23-.08.24.24,0,0,0-.17.2,79.82,79.82,0,0,0-1,21.72A53.54,53.54,0,0,0,23.27,419"/><path class="cls-5" d="M37.14,392.29a.22.22,0,0,0,.17.08.25.25,0,0,0,.13,0,48.6,48.6,0,0,0,21-26.7A53.15,53.15,0,0,0,60.77,355a.28.28,0,0,0-.09-.24.3.3,0,0,0-.26,0,59.82,59.82,0,0,0-14.47,12,3.39,3.39,0,0,1-6-1.91A53.67,53.67,0,0,0,31.24,339a.24.24,0,0,0-.43.07,80.41,80.41,0,0,0-3.69,21.49A53.6,53.6,0,0,0,30,379.48a41.19,41.19,0,0,0,7.19,12.81"/><path class="cls-5" d="M47,354.59a.24.24,0,0,0,.19.1.35.35,0,0,0,.12,0,51.91,51.91,0,0,0,24.17-24,50,50,0,0,0,3.67-9.95.23.23,0,0,0-.07-.23.23.23,0,0,0-.25,0A68.91,68.91,0,0,0,59,330.55a3.39,3.39,0,0,1-5.61-2.74A53.65,53.65,0,0,0,48,301.07a.24.24,0,0,0-.21-.13h0a.25.25,0,0,0-.21.13,79,79,0,0,0-6.37,20.86,52.82,52.82,0,0,0,.41,19.12A40.37,40.37,0,0,0,47,354.59"/><path class="cls-5" d="M61.22,318.58a.21.21,0,0,0,.21.13s0,0,0,0c9.86-2.86,18.54-9.37,25.8-19.34a75.25,75.25,0,0,0,6.66-11.09.24.24,0,0,0,0-.23.28.28,0,0,0-.24-.11c-9.53,1.32-16.46,8-16.52,8.08a3.4,3.4,0,0,1-5.72-3.08,53.44,53.44,0,0,0-1.32-27.22.24.24,0,0,0-.43,0,79.26,79.26,0,0,0-9.43,19.68,53.47,53.47,0,0,0-2.47,19,40.46,40.46,0,0,0,3.43,14.28"/><path class="cls-5" d="M81.05,284.06h0c16.42-2.74,29.14-17.55,35.27-26.12a.23.23,0,0,0,0-.25.26.26,0,0,0-.23-.13,39,39,0,0,0-16.94,5.9,3.41,3.41,0,0,1-5.14-3.87,53.21,53.21,0,0,0,2-27.15.22.22,0,0,0-.4-.1c-20.54,24.71-17.21,44.29-14.81,51.57a.22.22,0,0,0,.22.15"/><path class="cls-5" d="M104.14,252.06q.58,0,1.17,0c9.76,0,19.91-6.18,26.81-11.5a105.74,105.74,0,0,0,10-8.8.25.25,0,0,0,.06-.26.32.32,0,0,0-.23-.15,67,67,0,0,0-17,3.09,3.39,3.39,0,0,1-4.1-4.78,53.35,53.35,0,0,0,6.29-26.48A.22.22,0,0,0,127,203a.23.23,0,0,0-.25.05,80.51,80.51,0,0,0-14.56,16.38A53.8,53.8,0,0,0,104.57,237a40,40,0,0,0-.65,14.86.24.24,0,0,0,.22.19"/><path class="cls-5" d="M172.29,208.6a73.25,73.25,0,0,0-17.47,1.05,3.39,3.39,0,0,1-3.52-5.17,53.78,53.78,0,0,0,8.84-25.75.26.26,0,0,0-.13-.23.27.27,0,0,0-.26,0c-26.06,18.76-27.9,38.5-27.47,46.12a.23.23,0,0,0,.22.23c.57,0,1.13,0,1.7,0,15.86,0,30.67-9.85,38.22-15.88a.22.22,0,0,0,.08-.25.23.23,0,0,0-.21-.16"/><path class="cls-5" d="M205.65,192.57a57.51,57.51,0,0,0-9.11-1.89,68.88,68.88,0,0,0-8.66-.62h0a3.39,3.39,0,0,1-2.22-6c9.07-7.79,13.32-14.9,15.3-19.49a.21.21,0,0,0-.05-.26.24.24,0,0,0-.24-.07c-30.32,10.27-37,28-38.4,35.12a.24.24,0,0,0,.17.28,43.31,43.31,0,0,0,12.05,1.6,62.22,62.22,0,0,0,20.43-3.69A87.07,87.07,0,0,0,205.7,193a.25.25,0,0,0,.11-.25.22.22,0,0,0-.16-.2"/><path class="cls-5" d="M242,182.75a73,73,0,0,0-16.88-5.66,3.39,3.39,0,0,1-.89-6.37c9.94-4.91,15-10,17.46-13.32a.24.24,0,0,0,0-.27.28.28,0,0,0-.23-.12c-15.51,2.18-27.86,7.43-35.7,15.2a31.72,31.72,0,0,0-7.14,10.42.24.24,0,0,0,.12.3A48,48,0,0,0,219,187.08,68.26,68.26,0,0,0,230.71,186a80.15,80.15,0,0,0,11.22-2.83.22.22,0,0,0,.16-.2.26.26,0,0,0-.12-.24"/><path class="cls-5" d="M265.65,172.5a3.4,3.4,0,0,1,.19-6.43c9.89-3,16-6.77,19.33-9.39a.24.24,0,0,0-.13-.42c-15.24-1-28.16,1.52-37.36,7.33a31.64,31.64,0,0,0-9.27,8.66.24.24,0,0,0,.06.33c10.33,7.85,23.7,9.67,33.9,9.67,3.18,0,6.06-.18,8.43-.4a.3.3,0,0,0,.21-.17.24.24,0,0,0-.08-.25,58.86,58.86,0,0,0-15.28-8.93"/><path class="cls-5" d="M305.44,175.2a3.39,3.39,0,0,1,1.5-6.16c10-1.22,16.73-3.63,20.59-5.43a.26.26,0,0,0,.14-.23.28.28,0,0,0-.18-.21c-14.56-3.95-27.6-4-37.71-.21a31.68,31.68,0,0,0-10.88,6.65.23.23,0,0,0,0,.33c12.66,15.13,30.4,17.87,39.85,18.16h0A.24.24,0,0,0,319,188a.27.27,0,0,0,0-.26,70.69,70.69,0,0,0-13.47-12.52"/><path class="cls-5" d="M404.42,224.79a.24.24,0,0,0,.22-.24A44.65,44.65,0,0,0,401.71,208c-4.56-11.65-13.81-19.86-27.51-24.45a.29.29,0,0,0-.26.06.24.24,0,0,0-.05.25,69.31,69.31,0,0,0,10.79,20.29,3.39,3.39,0,0,1-3.44,5.41,47,47,0,0,0-17.32-.26.22.22,0,0,0-.17.19.21.21,0,0,0,.09.24c8.64,5.75,24.84,15.1,38.78,15.1.61,0,1.2,0,1.8-.05"/><path class="cls-5" d="M372.92,200.17a.23.23,0,0,0-.06-.22c-7.56-8-17.24-11.71-28.8-11a51.14,51.14,0,0,0-12.33,2.34.23.23,0,0,0-.16.17.31.31,0,0,0,.08.25c9.18,7.11,18.8,10.71,28.6,10.71.54,0,1.08,0,1.63,0a38.82,38.82,0,0,0,10.89-2,.3.3,0,0,0,.15-.18"/><path class="cls-5" d="M317.17,175.72a.26.26,0,0,0,.09.21c5.81,4.09,12.91,6.14,21.19,6.14A60,60,0,0,0,349.51,181a82.48,82.48,0,0,0,15.07-4.39.27.27,0,0,0,.16-.2.26.26,0,0,0-.13-.22,53.49,53.49,0,0,0-16.86-6.11,45.28,45.28,0,0,0-18,.57,46.13,46.13,0,0,0-12.46,4.9.21.21,0,0,0-.12.19"/><path class="cls-6" d="M203.81,397.08c1.87,2.28,5,3.39,9.48,3.39h44c-26.39-16.37-36.1-13.42-54.51-5.05a9.64,9.64,0,0,0,1.06,1.66"/><path class="cls-6" d="M311.23,376.94a104.77,104.77,0,0,1-11.51-3.52A116.67,116.67,0,0,1,274,358.57a6.45,6.45,0,1,1,8-10.11,104.64,104.64,0,0,0,22.5,13,93.34,93.34,0,0,0,10,3c5.45,1.45,12.13,3.21,17.8,6.1-1.16-7.27-2.29-13.47-3.54-19.4-17.73-4-32.33-15.89-32.95-16.41a6.43,6.43,0,0,1-2.32-4.36,6.46,6.46,0,0,1,10.55-5.58,81,81,0,0,0,21.27,11.94A249.59,249.59,0,0,0,306,286.65C300,275,291.22,267.27,279.89,263.54A41.62,41.62,0,0,0,265,261.37l-.6,0c-.22,0-21.39.34-34.68,16a1.48,1.48,0,0,1-.32.34c-2.45,2.53-9.05,10.31-10.05,16.17-.55,3.22.28,5.82,2.23,6.93.9.51,4.35,1.88,10.36-2.33,1.48-1.24,2.45-1.94,2.71-2.12a6.46,6.46,0,0,1,7.89,10.21c-.84.71-1.69,1.39-2.55,2a92.13,92.13,0,0,0-14.06,15.32c-7.95,10.73-18.55,29.2-23.95,56.26-.1.54-.19,1.08-.29,1.61,18.32-7.93,33.14-11.22,65.74,9.81,12.72,8.22,27.46,8.83,30.29,8.86h14.41a2.08,2.08,0,0,1,.44,0c3.71.23,14.48-.32,19.37-5.64a9.38,9.38,0,0,0,1.91-3.15c-.32-7.61-7.24-10.71-22.58-14.77"/><path class="cls-7" d="M247.88,628.87c1.71-1.36,3.64-3.64,3.74-5.13,0-.75-.56-1.67-1.73-2.68a6.6,6.6,0,0,0-4.46-1.8c-3.22,0-7.18,2.29-12.93,6.32-3.69,2.59-9.8,7.62-9.3,12.33a3.93,3.93,0,0,0,1.69,3.21c3,2,9,1.35,11.18,1,2.25-5,6.11-9.31,11.81-13.25"/><path class="cls-7" d="M270.21,636.82c0-.35.14-1.41-1.74-3.23-.06-.06-2.84-2.2-9.21,1.5-4.87,2.82-10.26,6.26-12.72,11.33a6.15,6.15,0,0,0,3.42,1.93c5.29,1,12.7-3.56,14.88-5.26l.43-.3c1.48-.95,4.71-3.72,4.94-6"/><path class="cls-7" d="M202,605.59a9.13,9.13,0,0,0-1.3-.1c-4.78,0-11.49,3.28-14.57,7.32-2.14,2.78-1.41,4.42-1.18,5,.4.88,2.41,2,6.06,2.63.73.13,1.53.21,2.36.28,1.46-5.19,5-9.14,8.35-12.33.94-.9,1.8-1.69,2.65-2.41a13.85,13.85,0,0,0-1.91-.32,3.91,3.91,0,0,1-.46,0"/><path class="cls-7" d="M204,626c.11,1,.38,3.85,5.92,5.67a22.44,22.44,0,0,0,2.66.69c1.67-5.56,6.17-11,13.41-16,1-.68,2-1.41,3.12-2.14a2.4,2.4,0,0,0-.07-1c-.31-.93-1.43-1.93-3.18-2.82a8.17,8.17,0,0,0-3.65-.87c-3.59,0-7.7,2.32-12.66,7.08-4.19,4-5.71,6.61-5.55,9.47"/><path class="cls-7" d="M342.39,615.45c3.33-.08,5.86-.92,7.52-2.49a9.3,9.3,0,0,0,2.56-5.19c-3.26-4.07-14.23-17-29-26.66-6.23-4.05-12.94-8.15-19.8-10.81-7.6-2.93-14.06-3.59-19.76-2-.11,0-.22.06-.33.07-1.73.39-4.18,2-7,3.87-1.85,1.23-3.93,2.59-6.3,4a56.13,56.13,0,0,1-23,6.92c-6.58.37-14.8.83-19.87-6.26-3.32-4.66-4-8.9-2.23-13.74,1.68-4.5,6.89-7,13.5-10.28a80.71,80.71,0,0,0,7.82-4.16,80.45,80.45,0,0,0,7.44-5.55c2.41-2,5.15-4.21,9.61-7.34a31.2,31.2,0,0,1,5.79-3.23c-2.11-.29-4.39-.54-6.89-.76-10.6-.89-18.19,2.92-29.3,10.75-9.62,6.47-28.43,12.4-57.61,18.24-27.82,5.55-66,11.11-113.38,16.56,1.43,5.28,3,10.55,4.63,15.68A326,326,0,0,0,89.2,646.4c16.87-7.47,58.35-26.14,90.62-43.41,6.43-6.09,16.13-9.63,23.62-8.62,1.72.13,7.75.89,12.38,4.78a19.73,19.73,0,0,1,15.12,1.06c5.24,2.63,7.56,6.07,8.59,8.66h0c6.65-2,12.62-.81,17.78,3.66a15.12,15.12,0,0,1,5.48,9.35c6.37-1,11.18,1.19,13.63,3.67,4.75,4.65,5.36,9.35,5,12.48a15.6,15.6,0,0,1-2.51,6.82,18.53,18.53,0,0,0,9.12-1.12,17.26,17.26,0,0,0,2.94-1.49,53,53,0,0,0-7.77-11.33,5.65,5.65,0,0,1,8.46-7.5A62.77,62.77,0,0,1,302,639a8.67,8.67,0,0,0,7.53-2.37,14.27,14.27,0,0,0,2.56-3.55c-.6-1.31-2.12-4-5.9-8.32-3.21-3.71-10.37-9.07-12.85-10.83a5.63,5.63,0,0,1-2.33-3.65,5.74,5.74,0,0,1,.95-4.24,5.66,5.66,0,0,1,7.88-1.36c.41.29,10.11,7.13,14.92,12.68a50.34,50.34,0,0,1,7.54,10.89c4,0,7.15-1.16,9.27-3.6a11.81,11.81,0,0,0,1.68-2.56c-4.29-5.73-15.22-19-28.4-25.47a5.62,5.62,0,0,1-2.59-7.56,5.64,5.64,0,0,1,7.56-2.59c15.59,7.62,27.85,22.6,32.58,29"/><path class="cls-7" d="M270.32,562.79c3.75-2.48,7-4.62,10.74-5.45,18.77-5.08,38.13,7.52,48.56,14.3a140.52,140.52,0,0,1,29.9,26.89c.1.13.37.47.81,1l.18.21a.19.19,0,0,0,.07.06,57,57,0,0,0,9.83,8.8c23.9,17.7,60.18,33.47,75.2,39.65A327.12,327.12,0,0,0,469,593c1.48-4.65,2.92-9.48,4.25-14.35-30-2-62.1-8.54-83.76-13.7-25-6-43.34-11.73-44.11-12-5.09-1.71-9.58-3.34-13.53-4.78-13.62-4.91-22.66-8.14-32.63-7.7-1.21.06-2.37.09-3.5.13-1.52.05-3,.07-4.39.1h-.18c-9.33.19-15.5.32-21.13,4.27-4.15,2.93-6.7,5-9,6.86a90.68,90.68,0,0,1-8.43,6.27,85.67,85.67,0,0,1-9,4.83c-2.41,1.19-6.82,3.33-8,4.46-.17.55-.24,1.14,1,2.85,1.33,1.88,4.68,1.83,10,1.53a44.63,44.63,0,0,0,18-5.42c2.08-1.21,3.92-2.42,5.7-3.6"/><path d="M827.27,660.32l-14.64-44.88a3.74,3.74,0,0,0-3.57-2.58H746.6a3.74,3.74,0,0,0-3.56,2.58L728.4,660.32a3.75,3.75,0,0,1-3.56,2.58H702a3.75,3.75,0,0,1-3.55-4.94l56-166.36A3.75,3.75,0,0,1,758,489h40a3.73,3.73,0,0,1,3.54,2.56l56,166.36a3.74,3.74,0,0,1-3.55,4.94H830.84A3.74,3.74,0,0,1,827.27,660.32Zm-70.11-72.6h41.23a3.76,3.76,0,0,0,3.57-4.91l-20.68-63.14a3.75,3.75,0,0,0-7.12,0l-20.58,63.15A3.75,3.75,0,0,0,757.16,587.72Z"/><path d="M880.37,534.74h18.37a3.76,3.76,0,0,1,3.72,3.22l1.89,13.46H906a36.42,36.42,0,0,1,14.84-13.63,45.1,45.1,0,0,1,20.28-4.57,64.53,64.53,0,0,1,6.91.37,3.78,3.78,0,0,1,3.3,3.77v20.39a3.71,3.71,0,0,1-4,3.73c-2.29-.2-4.94-.31-7.94-.31a45.76,45.76,0,0,0-18,3.76,32.7,32.7,0,0,0-13.11,9.63,3.84,3.84,0,0,0-.81,2.39v82.21a3.73,3.73,0,0,1-3.74,3.74H880.37a3.73,3.73,0,0,1-3.74-3.74V538.49A3.74,3.74,0,0,1,880.37,534.74Z"/><path d="M988.63,715.58a133.93,133.93,0,0,1-17.38-3.29,3.76,3.76,0,0,1-2.77-3.65V692a3.74,3.74,0,0,1,4.71-3.59,138,138,0,0,0,34.17,4.59q13.15,0,21.38-3.35a23.06,23.06,0,0,0,12.16-10.75q3.94-7.39,3.93-19.49v-10.1h-1.53a41.64,41.64,0,0,1-14.62,10.81,47.1,47.1,0,0,1-19.43,3.86,47.72,47.72,0,0,1-24.91-6.63q-11.15-6.63-17.85-20.68t-6.71-35.18q0-33.84,17.63-51.21t52.38-17.51a170.94,170.94,0,0,1,23.86,1.76,134.56,134.56,0,0,1,19.34,4.12,3.73,3.73,0,0,1,2.62,3.61V653.86q0,22.2-7.22,36.12a44.25,44.25,0,0,1-21.79,20.44q-14.56,6.52-37,6.53A166.18,166.18,0,0,1,988.63,715.58Zm45.23-79.46a27.81,27.81,0,0,0,10-6.63,3.83,3.83,0,0,0,1-2.64V561.57a3.79,3.79,0,0,0-3.06-3.73,79.7,79.7,0,0,0-14.55-1.36q-18.21,0-27.31,10.09t-9.11,32.19q0,22,7.63,31t21.85,9A36.62,36.62,0,0,0,1033.86,636.12Z"/><path d="M1206.48,608H1135a3.78,3.78,0,0,0-3.72,4.24c.66,6.34,2.13,11.53,4.37,15.56a23.64,23.64,0,0,0,12.69,10.62c5.73,2.2,13.35,3.3,22.91,3.3a128.88,128.88,0,0,0,27.59-3.39,3.75,3.75,0,0,1,4.6,3.62v15.68a3.82,3.82,0,0,1-2.93,3.7,150.1,150.1,0,0,1-33.49,3.88q-22.9,0-37.64-6.93a45.55,45.55,0,0,1-22-21.56q-7.27-14.61-7.28-38,0-21.5,6.69-36.3t19.38-22.25q12.69-7.47,30.67-7.47,26.18,0,39.82,16.86t13.63,50.11v4.59A3.75,3.75,0,0,1,1206.48,608Zm-68.85-46.75q-5.81,7.59-6.67,24.39a3.75,3.75,0,0,0,3.74,3.92h42.87a3.76,3.76,0,0,0,3.75-3.92q-.84-16.78-6.39-24.39-6.18-8.46-18.39-8.46C1148.26,552.83,1141.93,555.65,1137.63,561.29Z"/><path d="M1236.88,534.74h18.55a3.75,3.75,0,0,1,3.69,3.16l1.62,10.35h1.64a49.3,49.3,0,0,1,17.22-11.5,56.06,56.06,0,0,1,21.19-4q19.86,0,31.38,11.7t11.51,36.94v77.78a3.74,3.74,0,0,1-3.75,3.74h-23.29a3.74,3.74,0,0,1-3.74-3.74v-76q0-12.82-5.4-18.28c-3.6-3.64-8.86-5.46-15.74-5.46a38,38,0,0,0-15.27,3.24,31.38,31.38,0,0,0-11.69,8.6,3.84,3.84,0,0,0-.88,2.48v85.43a3.75,3.75,0,0,1-3.74,3.74h-23.3a3.74,3.74,0,0,1-3.75-3.74V538.49A3.75,3.75,0,0,1,1236.88,534.74Z"/><path d="M1449.52,642.44v17.17a3.77,3.77,0,0,1-3,3.7,97.26,97.26,0,0,1-19.2,1.94q-45.58,0-45.57-45.93V563a3.74,3.74,0,0,0-3.75-3.74h-14.6a3.75,3.75,0,0,1-3.74-3.74V538.49a3.75,3.75,0,0,1,3.74-3.75h15a3.73,3.73,0,0,0,3.71-3.3l4.63-39.09a3.75,3.75,0,0,1,3.72-3.31h18.3a3.75,3.75,0,0,1,3.75,3.75V531a3.73,3.73,0,0,0,3.73,3.74h28.34a3.75,3.75,0,0,1,3.75,3.75v17.06a3.75,3.75,0,0,1-3.75,3.74h-28.34a3.73,3.73,0,0,0-3.73,3.74v51.36q0,9.39,2.41,14.91a15.14,15.14,0,0,0,7.34,7.94c3.27,1.6,7.63,2.4,13,2.4a66,66,0,0,0,10-.9A3.73,3.73,0,0,1,1449.52,642.44Z"/><path d="M1472,508.49c-3.26-2.87-4.87-7-4.87-12.4s1.61-9.55,4.87-12.45,8.11-4.34,14.62-4.34,11.37,1.45,14.64,4.34,4.86,7.05,4.86,12.45-1.63,9.53-4.86,12.4-8.15,4.29-14.64,4.29S1475.25,511.35,1472,508.49Zm-.89,150.67V538.49a3.75,3.75,0,0,1,3.74-3.75h23.41a3.74,3.74,0,0,1,3.74,3.75V659.16a3.73,3.73,0,0,1-3.74,3.74h-23.41A3.74,3.74,0,0,1,1471.12,659.16Z"/><path d="M1531,534.74h18.54a3.77,3.77,0,0,1,3.7,3.16l1.61,10.35h1.65a49.26,49.26,0,0,1,17.21-11.5,56.15,56.15,0,0,1,21.2-4q19.84,0,31.37,11.7t11.52,36.94v77.78a3.75,3.75,0,0,1-3.76,3.74h-23.28a3.73,3.73,0,0,1-3.74-3.74v-76q0-12.82-5.41-18.28t-15.74-5.46a38.11,38.11,0,0,0-15.27,3.24,31.27,31.27,0,0,0-11.68,8.6,3.79,3.79,0,0,0-.89,2.48v85.43a3.74,3.74,0,0,1-3.75,3.74H1531a3.73,3.73,0,0,1-3.74-3.74V538.49A3.74,3.74,0,0,1,1531,534.74Z"/><path d="M1741.5,537.62a34.09,34.09,0,0,1,18,16q5.93,11.16,5.94,30.3v75.21a3.74,3.74,0,0,1-3.75,3.74h-18.55a3.74,3.74,0,0,1-3.7-3.15l-1.6-10.12h-1.65a36.24,36.24,0,0,1-14.86,11.57,50.48,50.48,0,0,1-20.15,3.94q-12.54,0-21.72-4.47a32.43,32.43,0,0,1-14-12.63,36.74,36.74,0,0,1-4.88-19.21q0-17.83,12.22-27.6t38.65-11.87l24-2.23v-5q0-9.75-3.1-15.33a17.31,17.31,0,0,0-9.76-7.93q-6.64-2.34-17.79-2.34a116,116,0,0,0-17,1.35,112.86,112.86,0,0,0-12.85,2.64,3.73,3.73,0,0,1-4.77-3.57V541.1a3.74,3.74,0,0,1,2.69-3.63,124.57,124.57,0,0,1,16.74-3.32,159.09,159.09,0,0,1,20.39-1.41Q1729.42,532.74,1741.5,537.62ZM1723.94,640.7a30.62,30.62,0,0,0,10.39-7.08,4,4,0,0,0,1.05-2.68V609.32a3.73,3.73,0,0,0-4.07-3.73l-17,1.52q-12.09,1.15-17.68,5.81c-3.73,3.09-5.57,7.43-5.57,13s1.66,10,5,12.91,8.19,4.48,14.62,4.48A34.94,34.94,0,0,0,1723.94,640.7Z"/><path d="M814.7,263.26h27.81V390.69H821V294.43l-35,78.1H766.74l-35-76.29v94.45H710.26V263.26h27.81l38.75,85.93Z"/><path d="M867.27,277.51q-3.59-3.13-3.58-9.08c0-4,1.19-7,3.58-9.12s5.94-3.19,10.71-3.19,8.34,1.05,10.72,3.19,3.57,5.15,3.57,9.12-1.2,7-3.57,9.08-6,3.15-10.72,3.15S869.64,279.61,867.27,277.51Zm-.65,113.18V296.76h22.64v93.93Z"/><path d="M911.64,296.76h18.68l1.55,9.9h1.21a36,36,0,0,1,12.62-8.44,41.25,41.25,0,0,1,15.55-2.94q14.55,0,23,8.58t8.44,27.08v59.75H970.11V332.23c0-6.25-1.33-10.72-4-13.4s-6.49-4-11.53-4a28,28,0,0,0-11.2,2.36,23.37,23.37,0,0,0-9.22,7.1v66.39H911.64Z"/><path d="M1014.93,277.51c-2.4-2.09-3.58-5.12-3.58-9.08s1.18-7,3.58-9.12,5.94-3.19,10.7-3.19,8.35,1.05,10.73,3.19,3.58,5.15,3.58,9.12-1.19,7-3.58,9.08-5.95,3.15-10.73,3.15S1017.31,279.61,1014.93,277.51Zm-.66,113.18V296.76h22.64v93.93Z"/><path d="M1056.46,388.46V371.58a98,98,0,0,0,28.42,4.13c6.66,0,11.51-1,14.58-3a9.68,9.68,0,0,0,4.62-8.66c0-3-.81-5.37-2.41-7s-4.37-2.8-8.27-3.61l-14.29-2.68q-13-2.56-18.94-9.08c-4-4.33-6-10.14-6-17.44a25.75,25.75,0,0,1,4.62-15.28q4.61-6.5,14-10.11t23.26-3.63a93.37,93.37,0,0,1,24,2.94V315a89,89,0,0,0-23.42-3q-21.27,0-21.26,11.71a9.06,9.06,0,0,0,2.36,6.58c1.58,1.64,4.27,2.86,8,3.67l14.3,2.65q12.9,2.59,19,8.84c4,4.17,6.06,10.08,6.06,17.79a26.2,26.2,0,0,1-4.64,15.57q-4.65,6.54-13.66,10.07t-21.74,3.54A95.94,95.94,0,0,1,1056.46,388.46Z"/><path d="M1196.21,372.43v18.08a71.63,71.63,0,0,1-16.28,1.91q-33.39,0-33.4-33.67v-44h-16.19v-18h16.19l4-33.5h18.6v33.5h26.25v18h-26.25v40.38a28.12,28.12,0,0,0,1.76,10.92,11.19,11.19,0,0,0,5.4,5.81,21.65,21.65,0,0,0,9.55,1.77A56.89,56.89,0,0,0,1196.21,372.43Z"/><path d="M1285.15,350.48H1227c.28,6.08,1.44,10.93,3.45,14.51a17.32,17.32,0,0,0,9.29,7.79c4.18,1.61,9.79,2.42,16.79,2.42a100.27,100.27,0,0,0,23.6-3.27v17.12a110,110,0,0,1-26.7,3.37q-16.79,0-27.6-5.09a33.35,33.35,0,0,1-16.14-15.8q-5.34-10.72-5.33-27.85,0-15.75,4.91-26.61a34.93,34.93,0,0,1,14.2-16.32q9.32-5.46,22.46-5.47,19.21,0,29.19,12.37t10,36.72Zm-53.21-34.26q-4.74,6.18-5,20.75H1264q-.24-14.57-4.76-20.75T1245.8,310Q1236.68,310,1231.94,316.22Z"/><path d="M1301.94,296.76h18.59l1.73,12.22h1.2a26.71,26.71,0,0,1,10.9-10,33,33,0,0,1,14.84-3.36,46.51,46.51,0,0,1,7.49.61v20.49a50.35,50.35,0,0,0-8.78-.61,33.49,33.49,0,0,0-13.21,2.77,23.62,23.62,0,0,0-10.2,7.83v64h-22.56Z"/><path d="M1370.6,277.51q-3.57-3.13-3.58-9.08c0-4,1.2-7,3.58-9.12s6-3.19,10.73-3.19,8.32,1.05,10.7,3.19,3.57,5.15,3.57,9.12-1.19,7-3.57,9.08-6,3.15-10.7,3.15S1373,279.61,1370.6,277.51Zm-.66,113.18V296.76h22.66v93.93Z"/><path d="M1422.08,380.28q-11.57-12.13-11.57-36.34,0-24.37,11.41-36.51t32.33-12.15q20.93,0,32.32,12.15T1498,343.85q0,16.2-5.28,27a35.74,35.74,0,0,1-15.11,16.2q-9.84,5.32-23.34,5.34Q1433.67,392.42,1422.08,380.28ZM1470,368q5.28-7.08,5.29-24,0-17.13-5.29-24.24c-3.52-4.73-8.77-7.09-15.71-7.09s-12.18,2.35-15.72,7.06-5.29,12.68-5.29,23.93q0,11.63,2.45,18.52t7.07,9.85a20.77,20.77,0,0,0,11.49,3C1461.19,375,1466.44,372.67,1470,368Z"/><path d="M1572.93,387.51c-5.71-3.23-10.25-8.31-13.6-15.29s-5-15.82-5-26.56q0-24.8,12.69-37.62t37.08-12.84a93.47,93.47,0,0,1,12.57.95v-44.6h22.56V390.69h-19l-1.38-9.9h-1.2a30.1,30.1,0,0,1-10.68,8.44,33.12,33.12,0,0,1-14.55,3.1A39,39,0,0,1,1572.93,387.51Zm35.69-15.89a20.16,20.16,0,0,0,8-6.25V314a57.6,57.6,0,0,0-12.57-1.28q-13.69,0-20.36,7.35T1577,343.85q0,16.36,5.6,23.13t15.93,6.75A25,25,0,0,0,1608.62,371.62Z"/><path d="M1737.86,350.48h-58.13c.3,6.08,1.45,10.93,3.45,14.51a17.31,17.31,0,0,0,9.3,7.79q6.29,2.42,16.8,2.42a100.26,100.26,0,0,0,23.58-3.27v17.12a109.87,109.87,0,0,1-26.69,3.37q-16.8,0-27.61-5.09a33.31,33.31,0,0,1-16.12-15.8q-5.36-10.72-5.34-27.85,0-15.75,4.9-26.61a35.09,35.09,0,0,1,14.2-16.32q9.32-5.46,22.48-5.47,19.2,0,29.18,12.37t10,36.72Zm-53.21-34.26q-4.74,6.18-5,20.75h37.11q-.27-14.57-4.78-20.75c-3-4.14-7.5-6.21-13.48-6.21S1687.81,312.08,1684.65,316.22Z"/><path d="M1810.43,376.7q-16.26-15.61-16.28-49.46,0-32.89,16.68-49.25t48.08-16.37a114,114,0,0,1,27.38,3.28V284a102.79,102.79,0,0,0-25.74-3.19q-14.31,0-23.6,4.65a30.16,30.16,0,0,0-14,14.76q-4.68,10.11-4.68,26.65,0,16.88,4.65,27.09a29.09,29.09,0,0,0,13.74,14.67q9.09,4.49,22.94,4.47a90.76,90.76,0,0,0,26.69-4.2V388a87.53,87.53,0,0,1-13.72,3.2,101.49,101.49,0,0,1-15,1.11Q1826.71,392.33,1810.43,376.7Z"/><path d="M1908.12,383.76q-8.49-8.55-8.49-27v-60h22.57v58.63q0,9.39,3.92,13.39t11.14,4a26.88,26.88,0,0,0,10.89-2.4,23,23,0,0,0,9.08-7.14V296.76h22.57v93.93h-18.69l-1.54-9.72h-1a37.62,37.62,0,0,1-12.47,8.47,38.3,38.3,0,0,1-14.82,2.89Q1916.6,392.33,1908.12,383.76Z"/><path d="M2002.26,390.69V251.55h22.57V390.69Z"/><path d="M2103.25,372.43v18.08a71.37,71.37,0,0,1-16.25,1.91q-33.43,0-33.42-33.67v-44h-16.2v-18h16.2l4-33.5h18.6v33.5h26.26v18h-26.26v40.38c0,4.59.58,8.22,1.76,10.92a11.1,11.1,0,0,0,5.39,5.81,21.68,21.68,0,0,0,9.55,1.77A56.61,56.61,0,0,0,2103.25,372.43Z"/><path d="M2124.65,383.76q-8.46-8.55-8.47-27v-60h22.57v58.63c0,6.26,1.28,10.72,3.9,13.39s6.34,4,11.16,4a26.9,26.9,0,0,0,10.88-2.4,23,23,0,0,0,9.09-7.14V296.76h22.56v93.93h-18.68l-1.55-9.72h-1a37.76,37.76,0,0,1-12.48,8.47,38.29,38.29,0,0,1-14.81,2.89C2138,392.33,2130.32,389.47,2124.65,383.76Z"/><path d="M2218.81,296.76h18.59l1.73,12.22h1.21a26.62,26.62,0,0,1,10.89-10,33,33,0,0,1,14.84-3.36,46.51,46.51,0,0,1,7.49.61v20.49a50.3,50.3,0,0,0-8.77-.61,33.54,33.54,0,0,0-13.22,2.77,23.53,23.53,0,0,0-10.19,7.83v64h-22.57Z"/><path d="M2336.93,298.87a25,25,0,0,1,13.22,11.75c2.89,5.46,4.35,12.85,4.35,22.22v57.85h-18.68l-1.55-9.72h-1.21a26.59,26.59,0,0,1-10.89,8.47,36.71,36.71,0,0,1-14.76,2.89,35.89,35.89,0,0,1-15.93-3.28,23.58,23.58,0,0,1-10.28-9.25,26.81,26.81,0,0,1-3.59-14.08c0-8.71,3-15.47,8.95-20.23s15.42-7.67,28.34-8.7l17.57-1.63v-3.7q0-7.15-2.29-11.25a12.63,12.63,0,0,0-7.16-5.79q-4.84-1.74-13-1.73a84.4,84.4,0,0,0-12.48,1,80.35,80.35,0,0,0-12.93,3V299.34a85,85,0,0,1,14.26-3,113.24,113.24,0,0,1,14.94-1.05Q2328,295.28,2336.93,298.87Zm-12.87,75.55a22.71,22.71,0,0,0,8.41-6v-20l-15.42,1.37q-8.88.87-13,4.26a11.74,11.74,0,0,0-4.09,9.51c0,4.15,1.22,7.3,3.66,9.48s6,3.27,10.72,3.27A25.67,25.67,0,0,0,2324.06,374.42Z"/></svg>