<svg id="Layer_1" data-name="Layer 1" xmlns="http://www.w3.org/2000/svg" viewBox="0 0 400.35 139.87"><defs><style>.cls-1{fill:#006a4e;}</style></defs><title>MHN_Verde2</title><polyline class="cls-1" points="61.64 14.39 68.75 14.39 74.59 35.37 80.53 14.39 87.36 14.39 87.36 43.52 82.87 43.52 82.87 18.66 75.95 43.52 72.45 43.52 65.66 18.63 65.66 43.52 61.64 43.52 61.64 14.39"/><path class="cls-1" d="M94.93,14.39h4.73V32.46a21.25,21.25,0,0,0,.33,4.47,3.89,3.89,0,0,0,1.45,2.28,5.27,5.27,0,0,0,3.09.84,5,5,0,0,0,2.85-.69,3.62,3.62,0,0,0,1.45-2,19.25,19.25,0,0,0,.42-5v-18h4.35V32.14a26.6,26.6,0,0,1-.6,6.57,6.78,6.78,0,0,1-2.82,3.82,10.37,10.37,0,0,1-5.94,1.52,12.19,12.19,0,0,1-5-1A6.37,6.37,0,0,1,96.06,40c-.75-1.41-1.13-3.94-1.13-7.56V14.39"/><path class="cls-1" d="M136.76,20.9l-4.12,1.41a7.65,7.65,0,0,0-1.92-3.41,4.43,4.43,0,0,0-3.23-1.1,3.67,3.67,0,0,0-2.9,1.12,3.74,3.74,0,0,0-1.07,2.58,3.23,3.23,0,0,0,1.17,2.56,18.59,18.59,0,0,0,4.68,2.27,27.52,27.52,0,0,1,4.53,2.15,8.17,8.17,0,0,1,2.62,2.76,7.78,7.78,0,0,1,1,4,8.5,8.5,0,0,1-2.62,6.24,9.8,9.8,0,0,1-7.25,2.59c-5.38,0-8.7-2.72-10-8.16L122,34.68q1.13,5.37,5.89,5.37a4.76,4.76,0,0,0,3.51-1.2,4.12,4.12,0,0,0,1.21-3,4,4,0,0,0-.84-2.42c-.57-.72-1.92-1.51-4.12-2.36a36.08,36.08,0,0,1-5-2.23,8.24,8.24,0,0,1-2.67-2.71,8.07,8.07,0,0,1-1.07-4.09,7.8,7.8,0,0,1,2.43-5.84,8.72,8.72,0,0,1,6.4-2.37c4.78,0,7.77,2.34,9.09,7"/><polyline class="cls-1" points="142.83 14.39 159.53 14.39 159.53 18.24 147.7 18.24 147.7 26.57 157.01 26.57 157.01 30.45 147.7 30.45 147.7 39.56 159.72 39.56 159.72 43.52 142.83 43.52 142.83 14.39"/><path class="cls-1" d="M184.46,28.94q0,7.47-2.67,11.29A8.84,8.84,0,0,1,174,44.05a9,9,0,0,1-7.8-3.81c-1.78-2.54-2.72-6.31-2.72-11.3s.94-8.71,2.72-11.26a9.8,9.8,0,0,1,15.53,0c1.82,2.53,2.71,6.29,2.71,11.28m-5.06,0a22.45,22.45,0,0,0-1.21-8.17,4.46,4.46,0,0,0-8.42,0A22.74,22.74,0,0,0,168.56,29a22.78,22.78,0,0,0,1.21,8.12,4.47,4.47,0,0,0,8.42.09A22.32,22.32,0,0,0,179.4,29Z"/><polyline class="cls-1" points="0 63.23 4.81 63.23 4.81 75.31 13.37 75.31 13.37 63.23 18.24 63.23 18.24 92.36 13.37 92.36 13.37 79.38 4.81 79.38 4.81 92.36 0 92.36 0 63.23"/><rect class="cls-1" x="26.42" y="63.22" width="4.82" height="29.13"/><path class="cls-1" d="M55.28,69.73l-4.12,1.43a7.41,7.41,0,0,0-1.92-3.41A4.53,4.53,0,0,0,46,66.64a3.67,3.67,0,0,0-4,3.7,3.06,3.06,0,0,0,1.16,2.55,19.48,19.48,0,0,0,4.64,2.29,25.56,25.56,0,0,1,4.57,2.15A7.59,7.59,0,0,1,55,80.08a7.41,7.41,0,0,1,1,4,8.54,8.54,0,0,1-2.62,6.26,9.88,9.88,0,0,1-7.25,2.57c-5.39,0-8.7-2.71-10-8.14l4.35-1.22c.75,3.59,2.71,5.37,5.85,5.37a4.76,4.76,0,0,0,3.55-1.2,4.07,4.07,0,0,0,1.22-3,3.86,3.86,0,0,0-.84-2.4c-.57-.75-2-1.53-4.17-2.36a36.59,36.59,0,0,1-5-2.26A7.51,7.51,0,0,1,38.44,75a8,8,0,0,1-1.07-4.08,7.77,7.77,0,0,1,2.43-5.84,8.75,8.75,0,0,1,6.4-2.37c4.72,0,7.77,2.35,9.08,7"/><polyline class="cls-1" points="57.8 63.23 75.58 63.23 75.58 67.32 69.08 67.32 69.08 92.36 64.26 92.36 64.26 67.32 57.8 67.32 57.8 63.23"/><path class="cls-1" d="M98.07,77.78q0,7.47-2.66,11.29a8.88,8.88,0,0,1-7.72,3.81,9.06,9.06,0,0,1-7.85-3.81q-2.67-3.79-2.67-11.29t2.67-11.25a9.83,9.83,0,0,1,15.57,0q2.66,3.8,2.66,11.27m-5,0a22.42,22.42,0,0,0-1.22-8.17,4.45,4.45,0,0,0-8.41,0,22.79,22.79,0,0,0-1.17,8.16,22.75,22.75,0,0,0,1.17,8.11,4.29,4.29,0,0,0,4.3,3A4.2,4.2,0,0,0,91.8,86,22.29,22.29,0,0,0,93,77.79ZM85,59.14l6.82-6L94.19,56l-7.53,4.73Z"/><path class="cls-1" d="M103.54,63.22h8.8c3.18,0,5.52.73,7,2.16a8.19,8.19,0,0,1,2.24,6.19c0,3.59-1.45,6.12-4.45,7.62l5.53,13.17h-5.24L113,80.19h-4.54V92.36h-4.87V63.22M108.41,67v9.5h3.64a4.47,4.47,0,0,0,3.66-1.37,5.22,5.22,0,0,0,1.17-3.56q0-4.57-4.78-4.57Z"/><rect class="cls-1" x="127.96" y="63.22" width="4.81" height="29.13"/><path class="cls-1" d="M154.29,82.56l4.44.62q-1.32,9.7-9.53,9.7a8.77,8.77,0,0,1-7.91-4.06c-1.73-2.72-2.57-6.36-2.57-10.91,0-4.91.89-8.66,2.76-11.29a9,9,0,0,1,7.9-3.93q8,0,9.4,10l-4.49.66c-.47-4.41-2.11-6.62-4.86-6.62q-5.61,0-5.61,11.51,0,10.71,5.61,10.7a3.75,3.75,0,0,0,3.32-1.62,11.76,11.76,0,0,0,1.54-4.71"/><path class="cls-1" d="M184.46,77.78q0,7.47-2.67,11.29A8.88,8.88,0,0,1,174,92.88a9,9,0,0,1-7.8-3.81c-1.78-2.53-2.72-6.3-2.72-11.29s.94-8.7,2.72-11.25a9.79,9.79,0,0,1,15.53,0c1.82,2.53,2.71,6.29,2.71,11.27m-5.06,0a22.45,22.45,0,0,0-1.21-8.17,4.46,4.46,0,0,0-8.42,0,22.79,22.79,0,0,0-1.17,8.16,22.75,22.75,0,0,0,1.17,8.11,4.46,4.46,0,0,0,8.42.1A22.32,22.32,0,0,0,179.4,77.79Z"/><polyline class="cls-1" points="9.82 112.07 15.53 112.07 25.11 133.06 25.11 112.07 29.14 112.07 29.14 141.2 24.6 141.2 13.88 117.87 13.88 141.2 9.82 141.2 9.82 112.07"/><path class="cls-1" d="M42.09,112.07h5.38l7.81,29.13H50.41l-1.82-7.3H40l-1.78,7.3H33.62l8.47-29.13m5.57,18-3.38-13.34L41,130.1Z"/><path class="cls-1" d="M73.85,131.4l4.44.62q-1.41,9.72-9.54,9.71a8.7,8.7,0,0,1-7.9-4.07q-2.61-4.08-2.62-10.91c0-4.91.94-8.67,2.75-11.28a9.07,9.07,0,0,1,7.91-3.93c5.38,0,8.51,3.31,9.45,9.93l-4.49.67c-.52-4.41-2.15-6.62-4.91-6.62-3.7,0-5.57,3.84-5.57,11.51,0,7.14,1.87,10.71,5.57,10.71a3.69,3.69,0,0,0,3.32-1.63,12,12,0,0,0,1.59-4.71"/><rect class="cls-1" x="83.11" y="112.07" width="4.87" height="29.13"/><path class="cls-1" d="M114.81,126.62q0,7.47-2.65,11.29a9.81,9.81,0,0,1-15.53,0c-1.83-2.54-2.72-6.3-2.72-11.3s.89-8.7,2.67-11.26a9.86,9.86,0,0,1,15.58,0c1.77,2.53,2.65,6.3,2.65,11.27m-5,0a22.61,22.61,0,0,0-1.17-8.18,4.33,4.33,0,0,0-4.24-3,4.25,4.25,0,0,0-4.17,3A22.36,22.36,0,0,0,99,126.64a22.82,22.82,0,0,0,1.17,8.11,4.3,4.3,0,0,0,4.31,3,4.21,4.21,0,0,0,4.11-2.93A21.6,21.6,0,0,0,109.76,126.64Z"/><polyline class="cls-1" points="119.73 112.07 125.44 112.07 134.97 133.07 134.97 112.07 138.99 112.07 138.99 141.2 134.51 141.2 123.75 117.88 123.75 141.2 119.73 141.2 119.73 112.07"/><path class="cls-1" d="M152,112.07h5.42l7.81,29.13h-4.86l-1.83-7.3h-8.56l-1.82,7.3h-4.59L152,112.07m5.56,18-3.33-13.34-3.31,13.34Z"/><polyline class="cls-1" points="169.63 112.07 174.44 112.07 174.44 137.12 184.74 137.12 184.74 141.2 169.63 141.2 169.63 112.07"/><path class="cls-1" d="M400.35,47.7q0-22.6-12.4-35.15T353.2,0q-23.15,0-46,12.68Q294.78,0,266.07,0q-25.89,0-62,13.79a159,159,0,0,1,1.65,17.92V140.9l33.11-9.09v-91a49.78,49.78,0,0,0-.57-6.06A57.45,57.45,0,0,1,262.75,29Q286.48,29,286.46,54V118.7l33.12-9.09V52.12a87.63,87.63,0,0,0-1.12-16.27Q332.28,29,343.29,29q24,0,24,25.38V96.49l33.07-9.09V47.7"/></svg>