<svg xmlns="http://www.w3.org/2000/svg" viewBox="0 0 1306.03 427.71"><title>Logo02</title><path d="M127.78,77.11q20.78,0,31.9,8.71t11.13,28.86A46.72,46.72,0,0,1,168,130.84a32.76,32.76,0,0,1-8.81,13.22q-6,5.46-15.85,7.14v-1.47a44.49,44.49,0,0,1,17.21,6.09,39.84,39.84,0,0,1,13,12.59,32.41,32.41,0,0,1,5,18.05,34.26,34.26,0,0,1-3.78,16.47,36.57,36.57,0,0,1-10.07,11.86A44,44,0,0,1,150.34,222a57.92,57.92,0,0,1-16.68,2.42h-35V77.11ZM133,148.68q17.83,0,25.71-9.55t7.87-24.24q0-18.26-10.5-26T128,81.1H102.81v67.58Zm.21,72a54.07,54.07,0,0,0,20.46-3.78,34.79,34.79,0,0,0,15-11.23q5.65-7.44,5.66-18.57,0-12-6.29-19.63a37,37,0,0,0-15.74-11.22,53.69,53.69,0,0,0-19.1-3.57H102.81v68Z" fill="#333"/><path d="M221,77.11H308.9v4H225.16v67h75.56v4H225.16v68.42h86.68v4H221Z" fill="#333"/><path d="M355.49,77.11h4.2V220.46h84.37v4H355.49Z" fill="#333"/><path d="M575.86,215.42a76.06,76.06,0,0,1-9.34,4.3,94.86,94.86,0,0,1-10.91,3.47,96,96,0,0,1-11.54,2.2,89,89,0,0,1-11.23.73,80.28,80.28,0,0,1-31-5.77,69.21,69.21,0,0,1-23.82-16A71,71,0,0,1,463,180.37a80.5,80.5,0,0,1-5.25-29.17,74.23,74.23,0,0,1,5.88-29.49,76.89,76.89,0,0,1,16.16-24.13,75.05,75.05,0,0,1,23.93-16.27,75.22,75.22,0,0,1,49.63-3,80.51,80.51,0,0,1,18.36,7.87l-2.09,3.57a72.52,72.52,0,0,0-11.23-5.46A74.18,74.18,0,0,0,546,80.68a66.78,66.78,0,0,0-12.91-1.26,68.34,68.34,0,0,0-27.81,5.67,72.64,72.64,0,0,0-22.67,15.53A71.5,71.5,0,0,0,461.9,151.2a76.31,76.31,0,0,0,4.93,27.7A68,68,0,0,0,481,201.46a64.49,64.49,0,0,0,22.25,15.22,74.67,74.67,0,0,0,29.17,5.46,94.67,94.67,0,0,0,20.36-2.42,65.56,65.56,0,0,0,18.88-7V164.63H536v-4h39.87Z" fill="#333"/><path d="M653.72,77.11a51.37,51.37,0,0,1,13.75,2.1,46.5,46.5,0,0,1,14.06,6.72A36,36,0,0,1,692.34,98q4.2,7.44,4.2,18.36A47.85,47.85,0,0,1,694,131.79a36.36,36.36,0,0,1-21.83,22.66q-8.61,3.47-21.2,3.47H627.7v66.53h-4.2V77.11Zm-3.36,76.82q12.6,0,20.68-3.36a32.71,32.71,0,0,0,12.69-8.82,33.63,33.63,0,0,0,6.62-12.06,45.57,45.57,0,0,0,2-13.12,34.14,34.14,0,0,0-3-14.38A34.64,34.64,0,0,0,681,90.86a36.79,36.79,0,0,0-12.18-7.24,43.2,43.2,0,0,0-14.9-2.52H627.7v72.83Zm19.31.21,42.19,70.31H707l-42.18-70.31Z" fill="#333"/><path d="M743.34,224.45l61.07-154h.42l61.07,154h-4.61L803.36,77.32l2.73-.63L747.53,224.45Zm25.39-59h72l.42,3.78H768.31Z" fill="#333"/><path d="M1026.46,227.17,908.93,84.67l1.05-2.1.21,141.88H906V74.8h.21l118.58,144-2.1-.21V77.11h4V227.17Z" fill="#333"/><path d="M1069.27,151a73.87,73.87,0,0,1,5.87-29.28,76.92,76.92,0,0,1,16.17-24.13,75,75,0,0,1,23.92-16.27,75.32,75.32,0,0,1,58.35,0,76.49,76.49,0,0,1,24,16.27A77.66,77.66,0,0,1,1214,121.71a72.75,72.75,0,0,1,6,29.28,71.92,71.92,0,0,1-6,29.17,76.77,76.77,0,0,1-16.37,23.93,77.54,77.54,0,0,1-24,16.16,72.93,72.93,0,0,1-29.18,5.87,76.46,76.46,0,0,1-29.17-5.56,73,73,0,0,1-40.09-39.45A76,76,0,0,1,1069.27,151Zm4.2.21a70.14,70.14,0,0,0,5.45,27.6A71.58,71.58,0,0,0,1094,201.46a69.71,69.71,0,0,0,22.46,15.22,68.8,68.8,0,0,0,27.28,5.46,71.41,71.41,0,0,0,50.79-20.68,72.42,72.42,0,0,0,15.53-22.66,70.52,70.52,0,0,0,0-55.41,74.93,74.93,0,0,0-15.42-22.77A72.64,72.64,0,0,0,1172,85.09a70.47,70.47,0,0,0-55.62.1A71.25,71.25,0,0,0,1093.82,101a74,74,0,0,0-15,23A70.26,70.26,0,0,0,1073.47,151.2Z" fill="#333"/><path d="M50.32,276.39h52v14.66H83.53v62.44H68.34V291.05h-18Z" fill="#3a3a39"/><path d="M122,307.71l1.36,12.57L123,318.4a20.64,20.64,0,0,1,5.45-7,31.3,31.3,0,0,1,6.86-4.45,13.82,13.82,0,0,1,5.18-1.57l-.73,14.66a13.06,13.06,0,0,0-8.8,1.68,15.82,15.82,0,0,0-5.66,6.08,16.49,16.49,0,0,0-2,7.75v17.91H108.78V307.71Z" fill="#474747"/><path d="M170,354.75a25.58,25.58,0,0,1-11.57-2.57,19.06,19.06,0,0,1-8.23-7.91q-3-5.34-3-13.62a27.12,27.12,0,0,1,3.15-13.4,22.89,22.89,0,0,1,8.27-8.75,20.8,20.8,0,0,1,10.9-3.09q6.81,0,10.32,2.25a25.67,25.67,0,0,1,5.81,5l-.63,1.79,1.37-6.71h13.62v45.78H185.26v-9.95l1.15,3.14c-.14,0-.56.41-1.26,1.21a23.48,23.48,0,0,1-3.09,2.83,20.44,20.44,0,0,1-5,2.83A18.88,18.88,0,0,1,170,354.75Zm4.19-11.94a13.24,13.24,0,0,0,4.72-.79,10.47,10.47,0,0,0,3.66-2.3,13.84,13.84,0,0,0,2.73-3.83V324.68a10.38,10.38,0,0,0-2.52-3.93,11.58,11.58,0,0,0-4-2.51,14.2,14.2,0,0,0-5.13-.89,11,11,0,0,0-5.82,1.62,11.89,11.89,0,0,0-4.24,4.46,14,14,0,0,0,.11,13.09,12.4,12.4,0,0,0,4.45,4.61A11.42,11.42,0,0,0,174.15,342.81Z" fill="#4e4f50"/><path d="M228.84,307.71l1.16,8.17-.22-.73a19,19,0,0,1,6.81-7,20.5,20.5,0,0,1,10.8-2.67,15.82,15.82,0,0,1,10.84,3.83,12.88,12.88,0,0,1,4.45,9.9v34.25H248V324.68a7.85,7.85,0,0,0-1.62-4.87c-1-1.22-2.71-1.83-5.08-1.83a8.62,8.62,0,0,0-5.87,2.2,14.12,14.12,0,0,0-3.87,6,25.46,25.46,0,0,0-1.37,8.7v18.64H215.54V307.71Z" fill="#545658"/><path d="M293.17,354.44a27.72,27.72,0,0,1-10.53-2,23,23,0,0,1-8.22-5.56l6.07-8.06a25,25,0,0,0,6.24,4.34,12.58,12.58,0,0,0,5.18,1.31,13,13,0,0,0,3.2-.36,5.21,5.21,0,0,0,2.25-1.15,2.69,2.69,0,0,0,.84-2.05,3.34,3.34,0,0,0-1.42-2.83,12.13,12.13,0,0,0-3.61-1.72q-2.21-.69-4.72-1.42-6.29-2-9.06-5.81a13.9,13.9,0,0,1-2.78-8.33,15,15,0,0,1,1.84-7,14.77,14.77,0,0,1,5.87-5.87,20.45,20.45,0,0,1,10.42-2.35,35.38,35.38,0,0,1,9.74,1.15,23.88,23.88,0,0,1,7.55,3.77l-5.56,8.59a20.52,20.52,0,0,0-4.45-2.67,13.15,13.15,0,0,0-4.56-1.21,7.77,7.77,0,0,0-3.19.42,5.12,5.12,0,0,0-2,1.37,2.67,2.67,0,0,0-.74,1.78A3.42,3.42,0,0,0,293,322a12.17,12.17,0,0,0,4.14,1.78q2.52.63,4.92,1.47a19.29,19.29,0,0,1,5.77,2.83,12.57,12.57,0,0,1,3.71,4.24,12.35,12.35,0,0,1,1.31,5.92,15.59,15.59,0,0,1-2.14,7.91,15.79,15.79,0,0,1-6.5,6A23.42,23.42,0,0,1,293.17,354.44Z" fill="#5a5c60"/><path d="M330.05,353.49v-33h-7.76v-13h7.76V291.58q0-9,5.18-14.72t15-5.71a27.78,27.78,0,0,1,6.54.89,17.69,17.69,0,0,1,6.34,2.88L357,285.5a5.13,5.13,0,0,0-2.46-1.83,8.27,8.27,0,0,0-2.67-.47,6.76,6.76,0,0,0-5.14,2.09c-1.32,1.4-2,3.63-2,6.71v15.5h13.83v13H344.71v33Z" fill="#5e6168"/><path d="M365,330a24.18,24.18,0,0,1,3.3-12.58,23.33,23.33,0,0,1,9.27-8.74,28.62,28.62,0,0,1,13.72-3.2,27.65,27.65,0,0,1,13.62,3.2,22.25,22.25,0,0,1,8.86,8.74,27.23,27.23,0,0,1,0,25.2A22.45,22.45,0,0,1,405,351.5a27.68,27.68,0,0,1-13.83,3.25,30,30,0,0,1-13.46-2.93,22,22,0,0,1-9.27-8.49A25.19,25.19,0,0,1,365,330Zm14.77.1a13.94,13.94,0,0,0,1.47,6.44,11.57,11.57,0,0,0,4,4.56,9.94,9.94,0,0,0,5.66,1.68,10.51,10.51,0,0,0,6-1.68,11,11,0,0,0,3.87-4.56,15.94,15.94,0,0,0,0-12.93,11.12,11.12,0,0,0-3.87-4.51,10.51,10.51,0,0,0-6-1.68,9.94,9.94,0,0,0-5.66,1.68,11.77,11.77,0,0,0-4,4.51A13.86,13.86,0,0,0,379.81,330.13Z" fill="#63676f"/><path d="M442.15,307.71l1.36,12.57-.32-1.88a20.9,20.9,0,0,1,5.45-7A31.54,31.54,0,0,1,455.5,307a13.81,13.81,0,0,1,5.19-1.57L460,320.07a13,13,0,0,0-8.8,1.68,15.67,15.67,0,0,0-5.66,6.08,16.37,16.37,0,0,0-2,7.75v17.91H429V307.71Z" fill="#656b75"/><path d="M485.73,307.71l1.15,8.07-.21-.63a20.92,20.92,0,0,1,6.81-7.18,18.17,18.17,0,0,1,9.85-2.56,19.63,19.63,0,0,1,6.65,1,12.78,12.78,0,0,1,4.87,3.09,10.84,10.84,0,0,1,2.73,5.3l-.53.1a24.23,24.23,0,0,1,7.08-6.91,15.87,15.87,0,0,1,8.64-2.62q6.81,0,10.84,3.82a13.37,13.37,0,0,1,4.14,9.9v34.36H533.19V325.21a14.05,14.05,0,0,0-.94-5c-.56-1.29-1.86-2-3.88-2.15a8.21,8.21,0,0,0-6,2.47,15.08,15.08,0,0,0-3.66,6.28,26,26,0,0,0-1.21,7.91v18.75H502.81V325.21a12,12,0,0,0-1.1-5c-.67-1.29-2-2-4-2.15a7.74,7.74,0,0,0-5.81,2.47,15.71,15.71,0,0,0-3.56,6.23,25.11,25.11,0,0,0-1.21,7.75v19H472.42V307.71Z" fill="#676d7b"/><path d="M582.64,354.75a25.65,25.65,0,0,1-11.58-2.57,19,19,0,0,1-8.22-7.91q-3-5.34-3-13.62a27.23,27.23,0,0,1,3.14-13.4,22.91,22.91,0,0,1,8.28-8.75,20.77,20.77,0,0,1,10.89-3.09q6.81,0,10.32,2.25a26,26,0,0,1,5.82,5l-.63,1.79,1.36-6.71H612.6v45.78H597.93v-9.95l1.16,3.14c-.15,0-.56.41-1.26,1.21a24.15,24.15,0,0,1-3.09,2.83,20.44,20.44,0,0,1-5,2.83A18.92,18.92,0,0,1,582.64,354.75Zm4.19-11.94a13.22,13.22,0,0,0,4.71-.79,10.52,10.52,0,0,0,3.67-2.3,13.82,13.82,0,0,0,2.72-3.83V324.68a10.36,10.36,0,0,0-2.51-3.93,11.77,11.77,0,0,0-4-2.51,14.25,14.25,0,0,0-5.14-.89,11,11,0,0,0-5.81,1.62,11.81,11.81,0,0,0-4.24,4.46,14,14,0,0,0,.1,13.09,12.47,12.47,0,0,0,4.45,4.61A11.43,11.43,0,0,0,586.83,342.81Z" fill="#676f7e"/><path d="M641.41,307.71l1.36,12.57-.31-1.88a20.77,20.77,0,0,1,5.45-7,31.3,31.3,0,0,1,6.86-4.45,13.81,13.81,0,0,1,5.19-1.57l-.74,14.66a13.06,13.06,0,0,0-8.8,1.68,15.82,15.82,0,0,0-5.66,6.08,16.49,16.49,0,0,0-2,7.75v17.91H628.21V307.71Z" fill="#677183"/><path d="M706.26,270.83h14.67v82.66H706.26Z" fill="#667187"/><path d="M755.82,354.75a25.62,25.62,0,0,1-11.58-2.57,19.06,19.06,0,0,1-8.23-7.91q-3-5.34-3-13.62a27.12,27.12,0,0,1,3.14-13.4,22.84,22.84,0,0,1,8.28-8.75,20.77,20.77,0,0,1,10.89-3.09q6.81,0,10.32,2.25a26,26,0,0,1,5.82,5l-.63,1.79,1.36-6.71h13.62v45.78H771.11v-9.95l1.15,3.14c-.14,0-.56.41-1.25,1.21a24.15,24.15,0,0,1-3.09,2.83,20.63,20.63,0,0,1-5,2.83A18.92,18.92,0,0,1,755.82,354.75ZM760,342.81a13.22,13.22,0,0,0,4.71-.79,10.52,10.52,0,0,0,3.67-2.3,13.82,13.82,0,0,0,2.72-3.83V324.68a10.48,10.48,0,0,0-2.51-3.93,11.77,11.77,0,0,0-4-2.51,14.25,14.25,0,0,0-5.14-.89,11,11,0,0,0-5.81,1.62,11.91,11.91,0,0,0-4.25,4.46,13.21,13.21,0,0,0-1.57,6.49,13,13,0,0,0,1.68,6.6,12.47,12.47,0,0,0,4.45,4.61A11.43,11.43,0,0,0,760,342.81Z" fill="#64728a"/><path d="M849.16,307.71l1.36,12.57-.31-1.88a20.77,20.77,0,0,1,5.45-7,31.3,31.3,0,0,1,6.86-4.45,13.81,13.81,0,0,1,5.19-1.57L867,320.07a13.06,13.06,0,0,0-8.8,1.68,15.82,15.82,0,0,0-5.66,6.08,16.49,16.49,0,0,0-2,7.75v17.91H836V307.71Z" fill="#62728d"/><path d="M899.87,354.75a29.59,29.59,0,0,1-14.2-3.14,21.51,21.51,0,0,1-8.85-8.7,26.14,26.14,0,0,1-3-12.78,22.66,22.66,0,0,1,3.56-12.47,26.21,26.21,0,0,1,9.54-8.85,27,27,0,0,1,13.3-3.3q9.86,0,16.19,5.71t8.22,16.5L889,339l-3.24-8,25.77-8.69-3,1.36a10.91,10.91,0,0,0-3-4.77q-2.15-2-6.44-2a10.69,10.69,0,0,0-5.71,1.52,9.83,9.83,0,0,0-3.77,4.3,15.23,15.23,0,0,0-1.31,6.54,14.81,14.81,0,0,0,1.57,7.18,10.54,10.54,0,0,0,4.3,4.35,12.55,12.55,0,0,0,6.07,1.46,13.29,13.29,0,0,0,4.67-.83,25.17,25.17,0,0,0,4.45-2.2l6.49,10.89a36.46,36.46,0,0,1-7.91,3.35A28.14,28.14,0,0,1,899.87,354.75Z" fill="#5e7190"/><path d="M955.08,354.75a25.65,25.65,0,0,1-11.58-2.57,19.09,19.09,0,0,1-8.22-7.91q-3-5.34-3-13.62a27.12,27.12,0,0,1,3.15-13.4,22.89,22.89,0,0,1,8.27-8.75,20.8,20.8,0,0,1,10.9-3.09q6.81,0,10.32,2.25a25.89,25.89,0,0,1,5.81,5l-.63,1.79,1.37-6.71H985v45.78H970.38v-9.95l1.15,3.14c-.14,0-.56.41-1.26,1.21a24.15,24.15,0,0,1-3.09,2.83,20.44,20.44,0,0,1-5,2.83A18.88,18.88,0,0,1,955.08,354.75Zm4.19-11.94A13.24,13.24,0,0,0,964,342a10.47,10.47,0,0,0,3.66-2.3,13.84,13.84,0,0,0,2.73-3.83V324.68a10.38,10.38,0,0,0-2.52-3.93,11.68,11.68,0,0,0-4-2.51,14.24,14.24,0,0,0-5.13-.89,11,11,0,0,0-5.82,1.62,11.89,11.89,0,0,0-4.24,4.46,14,14,0,0,0,.1,13.09,12.5,12.5,0,0,0,4.46,4.61A11.42,11.42,0,0,0,959.27,342.81Z" fill="#5a7091"/><path d="M1000.66,270.83h14.66v82.66h-14.66Z" fill="#546e93"/><path d="M1030.62,291.47a6.6,6.6,0,0,1,2.56-5.34,8.56,8.56,0,0,1,5.5-2.1,8.14,8.14,0,0,1,5.4,2.1,6.71,6.71,0,0,1,2.46,5.34,6.55,6.55,0,0,1-2.46,5.29,8.28,8.28,0,0,1-5.4,2.05,8.72,8.72,0,0,1-5.5-2.05A6.44,6.44,0,0,1,1030.62,291.47Zm.31,16.24h14.67v45.78h-14.67Z" fill="#4f6d95"/><path d="M1079.86,354.75a21.94,21.94,0,0,1-11.42-3,20.71,20.71,0,0,1-7.91-8.65,29.21,29.21,0,0,1-2.88-13.41,26.05,26.05,0,0,1,3.14-13.2,20.93,20.93,0,0,1,8.59-8.28,26.51,26.51,0,0,1,12.36-2.82,26.14,26.14,0,0,1,8.44,1.36,16.56,16.56,0,0,1,6.76,4.19V270.83h14.56v82.66h-14.67v-8.9l1.15,3.14a36.62,36.62,0,0,1-8,5A23.9,23.9,0,0,1,1079.86,354.75Zm4.82-12.36a15.53,15.53,0,0,0,5.18-.79,11.91,11.91,0,0,0,4-2.3,13.86,13.86,0,0,0,3-3.83V324.26a9.92,9.92,0,0,0-2.57-3.92,12,12,0,0,0-4.19-2.52,15.83,15.83,0,0,0-5.39-.89,11.75,11.75,0,0,0-6,1.62,12.36,12.36,0,0,0-6.12,10.95,13,13,0,0,0,1.67,6.6,12.47,12.47,0,0,0,4.45,4.61A11.43,11.43,0,0,0,1084.68,342.39Z" fill="#476c95"/><path d="M1146.38,354.75a25.61,25.61,0,0,1-11.57-2.57,19.06,19.06,0,0,1-8.23-7.91q-3-5.34-3-13.62a27.12,27.12,0,0,1,3.14-13.4,22.84,22.84,0,0,1,8.28-8.75,20.77,20.77,0,0,1,10.89-3.09q6.81,0,10.32,2.25a25.67,25.67,0,0,1,5.81,5l-.62,1.79,1.36-6.71h13.62v45.78h-14.67v-9.95l1.15,3.14c-.14,0-.56.41-1.25,1.21a24.15,24.15,0,0,1-3.09,2.83,20.63,20.63,0,0,1-5,2.83A18.94,18.94,0,0,1,1146.38,354.75Zm4.2-11.94a13.22,13.22,0,0,0,4.71-.79,10.52,10.52,0,0,0,3.67-2.3,14,14,0,0,0,2.72-3.83V324.68a10.48,10.48,0,0,0-2.51-3.93,11.72,11.72,0,0,0-4-2.51,14.16,14.16,0,0,0-5.13-.89,11,11,0,0,0-5.81,1.62,11.91,11.91,0,0,0-4.25,4.46,13.21,13.21,0,0,0-1.57,6.49,13,13,0,0,0,1.68,6.6,12.47,12.47,0,0,0,4.45,4.61A11.43,11.43,0,0,0,1150.58,342.81Z" fill="#406996"/><path d="M1210.61,354.75a21.94,21.94,0,0,1-11.42-3,20.71,20.71,0,0,1-7.91-8.65,29.21,29.21,0,0,1-2.88-13.41,26,26,0,0,1,3.14-13.2,20.93,20.93,0,0,1,8.59-8.28,26.48,26.48,0,0,1,12.36-2.82,26.14,26.14,0,0,1,8.44,1.36,16.46,16.46,0,0,1,6.75,4.19V270.83h14.57v82.66h-14.67v-8.9l1.15,3.14a36.62,36.62,0,0,1-8,5A23.9,23.9,0,0,1,1210.61,354.75Zm4.82-12.36a15.53,15.53,0,0,0,5.18-.79,11.86,11.86,0,0,0,4-2.3,13.7,13.7,0,0,0,3-3.83V324.26a9.92,9.92,0,0,0-2.57-3.92,12,12,0,0,0-4.19-2.52,15.83,15.83,0,0,0-5.39-.89,11.75,11.75,0,0,0-6,1.62,12.39,12.39,0,0,0-6.13,10.95,13,13,0,0,0,1.68,6.6,12.47,12.47,0,0,0,4.45,4.61A11.43,11.43,0,0,0,1215.43,342.39Z" fill="#3c6797"/></svg>