<svg id="Layer_1" data-name="Layer 1" xmlns="http://www.w3.org/2000/svg" viewBox="0 0 2108.15 453.54"><defs><style>.cls-1{fill:#bf1818;}.cls-2{fill:#e1251b;}.cls-3{fill:#2b2422;}.cls-4{fill:#c72f79;}.cls-5{fill:#0070ac;}.cls-6{fill:#3f1e53;}.cls-7{fill:#1a428a;}.cls-8{fill:#ed690d;}.cls-9{fill:#4a4647;}.cls-10{fill:#0a5ba1;}.cls-11{fill:#881812;}.cls-12{fill:#1281c4;}.cls-13{fill:#9f2241;}.cls-14{fill:#05576f;}.cls-15{fill:#65c2c8;}.cls-16{fill:#962d15;}.cls-17{fill:#e7d200;}.cls-18{fill:#e05d7e;}.cls-19{fill:#c65542;}.cls-20{fill:#ddd1c0;}.cls-21{fill:#c4b265;}.cls-22{fill:#009279;}.cls-23{fill:#3bb5e9;}.cls-24{fill:#891734;}.cls-25{fill:#dd9a01;}.cls-26{fill:#01694a;}.cls-27{fill:#1d1d1b;}</style></defs><title>Logo</title><path class="cls-1" d="M1265,285.27c0,19.93-18.92,36.08-42.27,36.08s-42.25-16.15-42.25-36.08,18.92-36.07,42.25-36.07S1265,265.35,1265,285.27Z"/><path class="cls-2" d="M1433.64,285.27c0,19.93-18.92,36.08-42.27,36.08s-42.26-16.15-42.26-36.08,18.92-36.07,42.26-36.07S1433.64,265.35,1433.64,285.27Z"/><path class="cls-3" d="M2108.15,416.25c0,19.92-18.91,36.08-42.26,36.08s-42.26-16.16-42.26-36.08,18.92-36.08,42.26-36.08S2108.15,396.33,2108.15,416.25Z"/><path class="cls-4" d="M926.85,285.27c0,19.93-18.92,36.08-42.26,36.08s-42.27-16.15-42.27-36.08,18.92-36.07,42.27-36.07S926.85,265.35,926.85,285.27Z"/><path class="cls-5" d="M1096.38,416.25c0,19.92-18.92,36.08-42.26,36.08s-42.26-16.16-42.26-36.08,18.92-36.08,42.26-36.08S1096.38,396.33,1096.38,416.25Z"/><path class="cls-6" d="M590.5,416.25c0,19.92-18.92,36.08-42.27,36.08S506,436.17,506,416.25s18.93-36.07,42.26-36.07S590.5,396.33,590.5,416.25Z"/><path class="cls-7" d="M759.13,416.25c0,19.92-18.93,36.08-42.26,36.08s-42.27-16.16-42.27-36.08,18.92-36.07,42.27-36.07S759.13,396.33,759.13,416.25Z"/><path class="cls-8" d="M1600.72,285.27c0,19.93-18.92,36.08-42.26,36.08s-42.27-16.15-42.27-36.08,18.92-36.07,42.27-36.07S1600.72,265.35,1600.72,285.27Z"/><path class="cls-9" d="M1939.53,416.25c0,19.92-18.93,36.08-42.27,36.08S1855,436.17,1855,416.25s18.92-36.07,42.27-36.07S1939.53,396.33,1939.53,416.25Z"/><path class="cls-10" d="M928.18,416.25c0,19.92-18.92,36.08-42.26,36.08s-42.27-16.16-42.27-36.08,18.92-36.07,42.27-36.07S928.18,396.33,928.18,416.25Z"/><path class="cls-11" d="M253,285.27c0,19.93-18.92,36.08-42.26,36.08s-42.26-16.15-42.26-36.08,18.92-36.07,42.26-36.07S253,265.35,253,285.27Z"/><path class="cls-12" d="M1265,416.25c0,19.92-18.93,36.08-42.28,36.08s-42.25-16.16-42.25-36.08,18.92-36.07,42.25-36.07S1265,396.33,1265,416.25Z"/><path class="cls-13" d="M592.31,285.27c0,21-20,38.12-44.65,38.12S503,306.31,503,285.27s20-38.1,44.65-38.1S592.31,264.23,592.31,285.27Z"/><path class="cls-14" d="M421.45,416.25c0,19.92-18.92,36.08-42.26,36.08s-42.26-16.16-42.26-36.08,18.92-36.08,42.26-36.08S421.45,396.32,421.45,416.25Z"/><path class="cls-15" d="M1602.27,416.25c0,19.92-18.92,36.08-42.26,36.08s-42.26-16.16-42.26-36.08,18.91-36.07,42.26-36.07S1602.27,396.33,1602.27,416.25Z"/><path class="cls-16" d="M84.52,285.27c0,19.93-18.92,36.08-42.26,36.08S0,305.2,0,285.27,18.92,249.2,42.26,249.2,84.52,265.35,84.52,285.27Z"/><path class="cls-17" d="M1939.53,285.28c0,19.92-18.93,36.07-42.27,36.07S1855,305.2,1855,285.28s18.92-36.08,42.27-36.08S1939.53,265.35,1939.53,285.28Z"/><path class="cls-18" d="M758.39,285.27c0,19.93-18.92,36.08-42.27,36.08s-42.26-16.15-42.26-36.08,18.93-36.07,42.26-36.07S758.39,265.35,758.39,285.27Z"/><path class="cls-19" d="M1096.38,285.27c0,19.93-18.92,36.08-42.27,36.08s-42.25-16.15-42.25-36.08,18.91-36.07,42.25-36.07S1096.38,265.35,1096.38,285.27Z"/><path class="cls-20" d="M1770.91,416.25c0,19.93-18.94,36.08-42.27,36.08s-42.27-16.15-42.27-36.08,18.91-36.08,42.27-36.08S1770.91,396.33,1770.91,416.25Z"/><path class="cls-21" d="M2108.15,285.27c0,19.93-18.92,36.08-42.26,36.08s-42.26-16.15-42.26-36.08,18.92-36.07,42.26-36.07S2108.15,265.35,2108.15,285.27Z"/><path class="cls-22" d="M84.62,417.47c0,19.92-18.92,36.07-42.26,36.07S.09,437.39.09,417.47,19,381.4,42.36,381.4,84.62,397.54,84.62,417.47Z"/><path class="cls-23" d="M1433.64,416.25c0,19.92-18.93,36.08-42.27,36.08s-42.26-16.16-42.26-36.08,18.93-36.08,42.26-36.08S1433.64,396.33,1433.64,416.25Z"/><path class="cls-24" d="M421.45,285.27c0,19.92-18.92,36.08-42.26,36.08s-42.27-16.16-42.27-36.08,18.93-36.07,42.27-36.07S421.45,265.35,421.45,285.27Z"/><path class="cls-25" d="M1769.18,285.27c0,19.92-18.93,36.08-42.25,36.08s-42.28-16.16-42.28-36.08,18.92-36.07,42.28-36.07S1769.18,265.35,1769.18,285.27Z"/><path class="cls-26" d="M253.25,417.47c0,19.92-18.93,36.07-42.27,36.07s-42.27-16.15-42.27-36.07,18.93-36.08,42.27-36.08S253.25,397.54,253.25,417.47Z"/><path class="cls-27" d="M136,1.69h20.06V133h-15.9V23.07l-50,91.7H75l-50-90.64V133H9.15V1.69H29.21l53.71,98.53Z"/><path class="cls-27" d="M215.61,129.14A37.49,37.49,0,0,1,197,112.34q-6.08-11.32-6.08-29.06V1.69h16.83V84.88q0,19.43,9.67,28.38t30.44,9q20.79,0,30.45-9t9.66-28.38V1.69h16.52V83.28q0,17.75-6,29.06a37.3,37.3,0,0,1-18.49,16.8q-12.46,5.51-32.11,5.5T215.61,129.14Z"/><path class="cls-27" d="M350.07,133.26a131.56,131.56,0,0,1-18.71-3.95V116.9A129,129,0,0,0,350.53,121a140.84,140.84,0,0,0,19,1.33q37.51,0,37.51-24a19.3,19.3,0,0,0-3.06-11.13q-3.06-4.47-9.66-7.53a89.31,89.31,0,0,0-17.93-5.55L368,72.2q-19.74-4.35-29.41-13T329,36.45a31.5,31.5,0,0,1,6.19-19.55q6.16-8.2,18.38-12.55T383.73,0a152,152,0,0,1,17.66,1,110.26,110.26,0,0,1,15.9,3V16.41a130,130,0,0,0-33-4.08q-19.42,0-28.83,6T346,35.57a20.27,20.27,0,0,0,2.76,10.91A21.19,21.19,0,0,0,357.65,54a76.12,76.12,0,0,0,16.73,5.46l8.31,1.77q21.4,4.6,31.38,13.3t10,22.89q0,11.79-6.44,20.13T398.9,130.25q-12.25,4.38-29.61,4.39A138.58,138.58,0,0,1,350.07,133.26Z"/><path class="cls-27" d="M466,120.71h79.39V133H449.3V1.69h95.07V13.93H466V59.51h68.27V71.67H466Z"/><path class="cls-27" d="M578.71,118.14q-16.89-16.5-16.88-50.82,0-23.14,7.84-38.14A49.49,49.49,0,0,1,591.8,7.1Q606.1,0,625.63,0q30,0,46.91,16.5t16.89,50.82q0,23.06-7.85,38.09a49.45,49.45,0,0,1-22.08,22.13q-14.24,7.11-33.87,7.1Q595.6,134.64,578.71,118.14Zm81.2-8.73Q672,96.59,672,67.76q0-29.43-12.06-42.39T625.63,12.42q-22.14,0-34.24,12.81t-12.1,41.65q0,29.45,12.05,42.39t34.29,13Q647.86,122.22,659.91,109.41Z"/><path class="cls-27" d="M729.22,133.26a131.71,131.71,0,0,1-18.7-3.95V116.9A128.77,128.77,0,0,0,729.69,121a140.72,140.72,0,0,0,19,1.33q37.51,0,37.51-24a19.3,19.3,0,0,0-3.06-11.13q-3.08-4.47-9.67-7.53a89,89,0,0,0-17.92-5.55L747.2,72.2q-19.74-4.35-29.41-13t-9.66-22.75a31.55,31.55,0,0,1,6.18-19.55q6.18-8.2,18.39-12.55T762.89,0a152,152,0,0,1,17.66,1,110.26,110.26,0,0,1,15.9,3V16.41a130,130,0,0,0-33-4.08q-19.44,0-28.84,6t-9.4,17.25a20.27,20.27,0,0,0,2.76,10.91A21.19,21.19,0,0,0,736.81,54a76.12,76.12,0,0,0,16.73,5.46l8.31,1.77q21.4,4.6,31.38,13.3t10,22.89q0,11.79-6.45,20.13t-18.7,12.73q-12.25,4.38-29.61,4.39A138.83,138.83,0,0,1,729.22,133.26Z"/><path class="cls-27" d="M980.78,1.69h16V133H979.44L895.26,23.68V133h-16V1.69h17.35L980.78,111Z"/><path class="cls-27" d="M1134.25,133l-17.56-42.48h-64.94L1034.19,133h-16.93L1072.43,1.69h23.79L1151.4,133Zm-77.52-54.63h54.87l-27.43-66.17Z"/><path class="cls-27" d="M1180.49,118.8q-18.08-15.83-18.08-51.21,0-34.68,18.39-51.14T1233.69,0a146.6,146.6,0,0,1,33.25,3.82V16.41a136.43,136.43,0,0,0-32.63-3.9q-18,0-29.87,5.41a37.17,37.17,0,0,0-18.08,17.47q-6.18,12.07-6.18,31.84,0,20.31,6.23,32.42a36.55,36.55,0,0,0,17.87,17.29q11.64,5.19,29,5.19a116.6,116.6,0,0,0,16.57-1.15,122.88,122.88,0,0,0,17.1-3.81v12.59a120.72,120.72,0,0,1-34.91,4.88Q1198.57,134.64,1180.49,118.8Z"/><path class="cls-27" d="M1288.66,133V1.69h16.82V133Z"/><path class="cls-27" d="M1350.84,118.14q-16.89-16.5-16.89-50.82,0-23.14,7.85-38.14A49.46,49.46,0,0,1,1363.94,7.1Q1378.22,0,1397.75,0q30,0,46.92,16.5t16.89,50.82q0,23.06-7.85,38.09a49.45,49.45,0,0,1-22.08,22.13q-14.24,7.11-33.88,7.1Q1367.74,134.64,1350.84,118.14Zm81.2-8.73q12.06-12.82,12-41.65,0-29.43-12-42.39t-34.29-12.95q-22.12,0-34.23,12.81t-12.11,41.65q0,29.45,12.06,42.39t34.28,13Q1420,122.22,1432,109.41Z"/><path class="cls-27" d="M1591.65,1.69h16V133H1590.3L1506.13,23.68V133h-16V1.69h17.35L1591.65,111Z"/><path class="cls-27" d="M1745.12,133l-17.56-42.48h-65L1645.05,133h-16.93L1683.29,1.69h23.8L1762.27,133ZM1667.6,78.32h54.87L1695,12.15Z"/><path class="cls-27" d="M1782.84,133V1.69h16.83V120.36h75.64V133Z"/><path class="cls-27" d="M1910.84,120.71h79.39V133h-96.12V1.69h95.08V13.93h-78.35V59.51h68.27V71.67h-68.27Z"/><path class="cls-27" d="M2026.49,133.26a131.71,131.71,0,0,1-18.7-3.95V116.9A128.77,128.77,0,0,0,2027,121a140.84,140.84,0,0,0,19,1.33q37.51,0,37.51-24a19.37,19.37,0,0,0-3.06-11.13q-3.07-4.47-9.67-7.53a89,89,0,0,0-17.92-5.55l-8.32-1.86q-19.73-4.35-29.4-13t-9.66-22.75a31.55,31.55,0,0,1,6.18-19.55q6.18-8.2,18.39-12.55T2060.16,0a152,152,0,0,1,17.66,1,109.86,109.86,0,0,1,15.89,3V16.41a129.9,129.9,0,0,0-33-4.08q-19.44,0-28.84,6t-9.4,17.25a20.27,20.27,0,0,0,2.76,10.91c1.82,3,4.79,5.45,8.88,7.49a75.94,75.94,0,0,0,16.73,5.46l8.3,1.77q21.41,4.6,31.38,13.3t10,22.89q0,11.79-6.44,20.13t-18.71,12.73q-12.27,4.38-29.61,4.39A138.83,138.83,0,0,1,2026.49,133.26Z"/></svg>