<svg data-name="Layer 1" xmlns="http://www.w3.org/2000/svg" viewBox="0 0 400.35 139.87">
    <path d="M61.64 14.39h7.11l5.84 20.98 5.94-20.98h6.83v29.13h-4.49V18.66l-6.92 24.86h-3.5l-6.79-24.89v24.89h-4.02V14.39m33.29 0h4.73v18.07a21.25 21.25 0 00.33 4.47 3.89 3.89 0 001.45 2.28 5.27 5.27 0 003.09.84 5 5 0 002.85-.69 3.62 3.62 0 001.45-2 19.25 19.25 0 00.42-5v-18h4.35v17.78a26.6 26.6 0 01-.6 6.57 6.78 6.78 0 01-2.82 3.82 10.37 10.37 0 01-5.94 1.52 12.19 12.19 0 01-5-1A6.37 6.37 0 0196.06 40c-.75-1.41-1.13-3.94-1.13-7.56V14.39m41.83 6.51l-4.12 1.41a7.65 7.65 0 00-1.92-3.41 4.43 4.43 0 00-3.23-1.1 3.67 3.67 0 00-2.9 1.12 3.74 3.74 0 00-1.07 2.58 3.23 3.23 0 001.17 2.56 18.59 18.59 0 004.68 2.27 27.52 27.52 0 014.53 2.15 8.17 8.17 0 012.62 2.76 7.78 7.78 0 011 4 8.5 8.5 0 01-2.62 6.24 9.8 9.8 0 01-7.25 2.59c-5.38 0-8.7-2.72-10-8.16l4.35-1.23q1.13 5.37 5.89 5.37a4.76 4.76 0 003.51-1.2 4.12 4.12 0 001.21-3 4 4 0 00-.84-2.42c-.57-.72-1.92-1.51-4.12-2.36a36.08 36.08 0 01-5-2.23 8.24 8.24 0 01-2.67-2.71 8.07 8.07 0 01-1.07-4.09 7.8 7.8 0 012.43-5.84 8.72 8.72 0 016.4-2.37c4.78 0 7.77 2.34 9.09 7m6-6.44h16.7v3.85H147.7v8.33h9.31v3.88h-9.31v9.11h12.02v3.96h-16.89V14.39m41.63 14.55q0 7.47-2.67 11.29a8.84 8.84 0 01-7.79 3.82 9 9 0 01-7.8-3.81c-1.78-2.54-2.72-6.31-2.72-11.3s.94-8.71 2.72-11.26a9.8 9.8 0 0115.53 0c1.82 2.53 2.71 6.29 2.71 11.28m-5.06 0a22.45 22.45 0 00-1.21-8.17 4.46 4.46 0 00-8.42 0 22.74 22.74 0 00-1.19 8.21 22.78 22.78 0 001.21 8.12 4.47 4.47 0 008.42.09A22.32 22.32 0 00179.4 29zM0 63.23h4.81v12.08h8.56V63.23h4.87v29.13h-4.87V79.38H4.81v12.98H0V63.23m26.42-.01h4.82v29.13h-4.82zm28.86 6.51l-4.12 1.43a7.41 7.41 0 00-1.92-3.41A4.53 4.53 0 0046 66.64a3.67 3.67 0 00-4 3.7 3.06 3.06 0 001.16 2.55 19.48 19.48 0 004.64 2.29 25.56 25.56 0 014.57 2.15A7.59 7.59 0 0155 80.08a7.41 7.41 0 011 4 8.54 8.54 0 01-2.62 6.26 9.88 9.88 0 01-7.25 2.57c-5.39 0-8.7-2.71-10-8.14l4.35-1.22c.75 3.59 2.71 5.37 5.85 5.37a4.76 4.76 0 003.55-1.2 4.07 4.07 0 001.22-3 3.86 3.86 0 00-.84-2.4c-.57-.75-2-1.53-4.17-2.36a36.59 36.59 0 01-5-2.26 7.51 7.51 0 01-2.65-2.7 8 8 0 01-1.07-4.08 7.77 7.77 0 012.43-5.84 8.75 8.75 0 016.4-2.37c4.72 0 7.77 2.35 9.08 7m2.52-6.48h17.78v4.09h-6.5v25.04h-4.82V67.32H57.8v-4.09m40.27 14.55q0 7.47-2.66 11.29a8.88 8.88 0 01-7.72 3.81 9.06 9.06 0 01-7.85-3.81q-2.67-3.79-2.67-11.29t2.67-11.25a9.83 9.83 0 0115.57 0q2.66 3.8 2.66 11.27m-5 0a22.42 22.42 0 00-1.22-8.17 4.45 4.45 0 00-8.41 0 22.79 22.79 0 00-1.17 8.16 22.75 22.75 0 001.17 8.11 4.29 4.29 0 004.3 3A4.2 4.2 0 0091.8 86a22.29 22.29 0 001.2-8.21zM85 59.14l6.82-6L94.19 56l-7.53 4.73zm18.54 4.08h8.8c3.18 0 5.52.73 7 2.16a8.19 8.19 0 012.24 6.19c0 3.59-1.45 6.12-4.45 7.62l5.53 13.17h-5.24L113 80.19h-4.54v12.17h-4.87V63.22m4.82 3.78v9.5h3.64a4.47 4.47 0 003.66-1.37 5.22 5.22 0 001.17-3.56q0-4.57-4.78-4.57zm19.55-3.78h4.81v29.13h-4.81zm26.33 19.34l4.44.62q-1.32 9.7-9.53 9.7a8.77 8.77 0 01-7.91-4.06c-1.73-2.72-2.57-6.36-2.57-10.91 0-4.91.89-8.66 2.76-11.29a9 9 0 017.9-3.93q8 0 9.4 10l-4.49.66c-.47-4.41-2.11-6.62-4.86-6.62q-5.61 0-5.61 11.51 0 10.71 5.61 10.7a3.75 3.75 0 003.32-1.62 11.76 11.76 0 001.54-4.71m30.17-4.83q0 7.47-2.67 11.29a8.88 8.88 0 01-7.79 3.81 9 9 0 01-7.8-3.81c-1.78-2.53-2.72-6.3-2.72-11.29s.94-8.7 2.72-11.25a9.79 9.79 0 0115.53 0c1.82 2.53 2.71 6.29 2.71 11.27m-5.06 0a22.45 22.45 0 00-1.21-8.17 4.46 4.46 0 00-8.42 0 22.79 22.79 0 00-1.17 8.16 22.75 22.75 0 001.17 8.11 4.46 4.46 0 008.42.1 22.32 22.32 0 001.23-8.21zM9.82 112.07h5.71l9.58 20.99v-20.99h4.03v29.13H24.6l-10.72-23.33v23.33H9.82v-29.13m32.27 0h5.38l7.81 29.13h-4.87l-1.82-7.3H40l-1.78 7.3h-4.6l8.47-29.13m5.57 18l-3.38-13.34L41 130.1zm26.19 1.33l4.44.62q-1.41 9.72-9.54 9.71a8.7 8.7 0 01-7.9-4.07q-2.61-4.08-2.62-10.91c0-4.91.94-8.67 2.75-11.28a9.07 9.07 0 017.91-3.93c5.38 0 8.51 3.31 9.45 9.93l-4.49.67c-.52-4.41-2.15-6.62-4.91-6.62-3.7 0-5.57 3.84-5.57 11.51 0 7.14 1.87 10.71 5.57 10.71a3.69 3.69 0 003.32-1.63 12 12 0 001.59-4.71m9.26-19.33h4.87v29.13h-4.87zm31.7 14.55q0 7.47-2.65 11.29a9.81 9.81 0 01-15.53 0c-1.83-2.54-2.72-6.3-2.72-11.3s.89-8.7 2.67-11.26a9.86 9.86 0 0115.58 0c1.77 2.53 2.65 6.3 2.65 11.27m-5 0a22.61 22.61 0 00-1.17-8.18 4.33 4.33 0 00-4.24-3 4.25 4.25 0 00-4.17 3 22.36 22.36 0 00-1.23 8.2 22.82 22.82 0 001.17 8.11 4.3 4.3 0 004.31 3 4.21 4.21 0 004.11-2.93 21.6 21.6 0 001.17-8.18zm9.92-14.55h5.71l9.53 21v-21h4.02v29.13h-4.48l-10.76-23.32v23.32h-4.02v-29.13m32.27 0h5.42l7.81 29.13h-4.86l-1.83-7.3h-8.56l-1.82 7.3h-4.59l8.43-29.13m5.56 18l-3.33-13.34-3.31 13.34zm12.07-18h4.81v25.05h10.3v4.08h-15.11v-29.13M400.35 47.7q0-22.6-12.4-35.15T353.2 0q-23.15 0-46 12.68Q294.78 0 266.07 0q-25.89 0-62 13.79a159 159 0 011.65 17.92V140.9l33.11-9.09v-91a49.78 49.78 0 00-.57-6.06A57.45 57.45 0 01262.75 29q23.73 0 23.71 25v64.7l33.12-9.09V52.12a87.63 87.63 0 00-1.12-16.27Q332.28 29 343.29 29q24 0 24 25.38v42.11l33.07-9.09V47.7" fill="#006a4e"/>
</svg>
