<svg id="Capa_1" data-name="Capa 1" xmlns="http://www.w3.org/2000/svg" viewBox="0 0 850.39 850.39"><defs><style>.cls-1{fill:#666;}</style></defs><title>web_BUSCAR</title><path class="cls-1" d="M425.89,850.39a431.28,431.28,0,0,1-55.43-3.6A425.23,425.23,0,0,1,311.52,15.44,425.24,425.24,0,0,1,538.87,835,420.9,420.9,0,0,1,425.89,850.39Zm-1.51-826.1c-87.94,0-172.95,28.79-243.77,83.33C95.78,173,41.47,267.41,27.69,373.59-.77,592.78,154.4,794.25,373.59,822.71a408.25,408.25,0,0,0,52.43,3.4c87.93,0,172.94-28.79,243.77-83.34,84.82-65.33,139.13-159.79,152.92-266A400.85,400.85,0,0,0,476.8,27.69,406.31,406.31,0,0,0,424.38,24.29Z"/><path class="cls-1" d="M302.67,158.38A158.75,158.75,0,1,0,461.41,317.12,158.74,158.74,0,0,0,302.67,158.38Zm0,296.12A137.38,137.38,0,1,1,440.05,317.12,137.38,137.38,0,0,1,302.67,454.5Z"/><polygon class="cls-1" points="391.54 437.38 425.49 406.94 669.48 607.55 621.8 655.94 391.54 437.38"/></svg>