<svg id="Capa_1" data-name="Capa 1" xmlns="http://www.w3.org/2000/svg" viewBox="0 0 850.39 850.39">
    <defs>
        <style>
            .cls-1{fill:#666}
        </style>
    </defs>
    <path class="cls-1" d="M425.89 850.39a431.28 431.28 0 01-55.43-3.6 425.23 425.23 0 01-58.94-831.35A425.24 425.24 0 01538.87 835a420.9 420.9 0 01-112.98 15.39zm-1.51-826.1c-87.94 0-172.95 28.79-243.77 83.33C95.78 173 41.47 267.41 27.69 373.59-.77 592.78 154.4 794.25 373.59 822.71a408.25 408.25 0 0052.43 3.4c87.93 0 172.94-28.79 243.77-83.34 84.82-65.33 139.13-159.79 152.92-266A400.85 400.85 0 00476.8 27.69a406.31 406.31 0 00-52.42-3.4z"/>
    <path class="cls-1" d="M302.67 158.38a158.75 158.75 0 10158.74 158.74 158.74 158.74 0 00-158.74-158.74zm0 296.12a137.38 137.38 0 11137.38-137.38A137.38 137.38 0 01302.67 454.5z"/>
    <path class="cls-1" d="M391.54 437.38l33.95-30.44 243.99 200.61-47.68 48.39-230.26-218.56z"/>
</svg>
