<svg id="Capa_1" data-name="Capa 1" xmlns="http://www.w3.org/2000/svg" viewBox="0 0 141.73 141.73"><defs><style>.cls-1,.cls-2{fill:#3c3c3b;}.cls-2{fill-rule:evenodd;}</style></defs><title>GRIS_</title><path class="cls-1" d="M70.89,16.94A53.93,53.93,0,1,1,17,70.87,53.91,53.91,0,0,1,70.89,16.94m0-2.77a56.7,56.7,0,1,0,56.66,56.7,56.77,56.77,0,0,0-56.66-56.7Z"/><path class="cls-2" d="M38.24,92.83A30.68,30.68,0,0,0,53,90.29,26.72,26.72,0,0,0,59,86.72a14.24,14.24,0,0,1-6.13-1.53,13.89,13.89,0,0,1-6.76-7.56c-.31-.76-.31-.76.53-.71a11.44,11.44,0,0,0,5.2-.32,15.68,15.68,0,0,1-3.35-1.28,14.28,14.28,0,0,1-7.66-12.09c-.05-.63.13-.71.7-.43A13.68,13.68,0,0,0,47,64.31c-.91-.81-1.69-1.46-2.39-2.16a14.53,14.53,0,0,1-2.24-16.06c.35-.7.48-.7,1-.15A40.17,40.17,0,0,0,68.1,59.73c1,.2,2.11.2,3.14.43.7.1.78-.23.67-.75A14.2,14.2,0,0,1,95.64,46.64,1.58,1.58,0,0,0,97.2,47a26.93,26.93,0,0,0,7.49-2.94,1.34,1.34,0,0,0,.6-.38,14,14,0,0,1-6,7.84,29.6,29.6,0,0,0,7.64-2c0,.32-.21.52-.35.8a29.36,29.36,0,0,1-5.88,6,1.17,1.17,0,0,0-.53,1.13,41.24,41.24,0,0,1-9.78,27.69A38.19,38.19,0,0,1,66.74,98.46,40.23,40.23,0,0,1,38.54,93,.47.47,0,0,0,38.24,92.83Z"/></svg>