<svg data-name="Capa 1" xmlns="http://www.w3.org/2000/svg" viewBox="0 0 141.73 141.73">
    <path d="M70.89 16.94A53.93 53.93 0 1117 70.87a53.91 53.91 0 0153.89-53.93m0-2.77a56.7 56.7 0 1056.66 56.7 56.77 56.77 0 00-56.66-56.7z" fill="#3c3c3b"/>
    <path d="M38.24 92.83A30.68 30.68 0 0053 90.29a26.72 26.72 0 006-3.57 14.24 14.24 0 01-6.13-1.53 13.89 13.89 0 01-6.76-7.56c-.31-.76-.31-.76.53-.71a11.44 11.44 0 005.2-.32 15.68 15.68 0 01-3.35-1.28 14.28 14.28 0 01-7.66-12.09c-.05-.63.13-.71.7-.43A13.68 13.68 0 0047 64.31c-.91-.81-1.69-1.46-2.39-2.16a14.53 14.53 0 01-2.24-16.06c.35-.7.48-.7 1-.15A40.17 40.17 0 0068.1 59.73c1 .2 2.11.2 3.14.43.7.1.78-.23.67-.75a14.2 14.2 0 0123.73-12.77 1.58 1.58 0 001.56.36 26.93 26.93 0 007.49-2.94 1.34 1.34 0 00.6-.38 14 14 0 01-6 7.84 29.6 29.6 0 007.64-2c0 .32-.21.52-.35.8a29.36 29.36 0 01-5.88 6 1.17 1.17 0 00-.53 1.13 41.24 41.24 0 01-9.78 27.69 38.19 38.19 0 01-23.65 13.32A40.23 40.23 0 0138.54 93a.47.47 0 00-.3-.17z" fill-rule="evenodd" fill="#3c3c3b"/>
</svg>
