<svg data-name="Capa 1" xmlns="http://www.w3.org/2000/svg" viewBox="0 0 141.73 141.73">
    <path d="M112.1 32c-.45-.48-.91-1-1.39-1.44a56.47 56.47 0 00-38.84-16.34h-2A56.68 56.68 0 0030.7 30.94c-.47.47-.93 1-1.38 1.45A56.22 56.22 0 0027.4 107c.43.52.87 1 1.31 1.53a56.94 56.94 0 0029.93 17.71 56.79 56.79 0 0011.23 1.26h2a28.67 28.67 0 004.14-.25A55.76 55.76 0 00112.76 109c.45-.5.89-1 1.32-1.51a56.49 56.49 0 00-2-75.45zM71.87 69.87V49.34a58.27 58.27 0 0022.79-5.18 97.31 97.31 0 013.54 25.71zm0-22.53V17c.89 0 1.79.05 2.67.11 8.24 2.21 15.33 11.7 19.55 25.12a56.06 56.06 0 01-22.22 5.11zm-2-30.34v30.36a56.3 56.3 0 01-22.31-4.87c4.2-13.49 11.3-23.12 19.57-25.38C68 17.05 69 17 69.87 17zm0 32.37v20.5H43.53A97.72 97.72 0 0147 44.42a58.25 58.25 0 0022.87 4.94zm0 22.51V88A58.07 58.07 0 0046 93.42a99.86 99.86 0 01-2.48-21.55zm0 18.17v34.73c-.8 0-1.58 0-2.37-.08-9.18-2.25-17-13.57-21-29.3A56.14 56.14 0 0169.87 90zm4.33 34.65c-.78.07-1.56.1-2.33.1V90.05a56.22 56.22 0 0123.3 5.62c-4.06 15.6-11.83 26.81-20.97 29.02zm-2.33-36.65V71.87H98.2a99.53 99.53 0 01-2.54 21.82 58.22 58.22 0 00-23.79-5.64zm52.89-18.18H100.2a98.35 98.35 0 00-3.75-26.55 59.16 59.16 0 0013.7-9.42 53.73 53.73 0 0114.61 35.97zm-16-37.4a56.52 56.52 0 01-12.91 8.9c-3.47-10.79-8.79-19.16-15.1-23.5a53.6 53.6 0 0128.01 14.6zM60.93 17.9c-6.35 4.39-11.69 12.86-15.15 23.77a56.77 56.77 0 01-13.09-8.85A54 54 0 0160.93 17.9zM31.31 34.27a58.55 58.55 0 0013.89 9.34 98.18 98.18 0 00-3.67 26.26H17a53.6 53.6 0 0114.31-35.6zM17 71.87h24.53a100.54 100.54 0 002.67 22.42 59 59 0 00-14.94 10.79A53.65 53.65 0 0117 71.87zm42.29 51.67a54.2 54.2 0 01-28.7-16.93A56.83 56.83 0 0144.7 96.28c3.4 12.8 9.28 22.79 16.42 27.63-.62-.12-1.25-.23-1.86-.37zm21.45.3c7-4.82 12.84-14.66 16.24-27.26A57 57 0 01110.89 107a53.49 53.49 0 01-30.18 16.84zm31.49-18.36A58.76 58.76 0 0097.46 94.6a100.73 100.73 0 002.74-22.73h24.56a53.72 53.72 0 01-12.56 33.61z" fill="#3c3c3b"/>
</svg>
