<svg id="Capa_1" data-name="Capa 1" xmlns="http://www.w3.org/2000/svg" viewBox="0 0 141.73 141.73"><defs><style>.cls-1{fill:#3c3c3b;}</style></defs><title>GRIS_</title><path class="cls-1" d="M112.1,32c-.45-.48-.91-1-1.39-1.44A56.47,56.47,0,0,0,71.87,14.22v0h-2v0A56.68,56.68,0,0,0,30.7,30.94c-.47.47-.93,1-1.38,1.45A56.22,56.22,0,0,0,27.4,107c.43.52.87,1,1.31,1.53a56.94,56.94,0,0,0,29.93,17.71,56.79,56.79,0,0,0,11.23,1.26v0h2a28.67,28.67,0,0,0,4.14-.25A55.76,55.76,0,0,0,112.76,109c.45-.5.89-1,1.32-1.51a56.49,56.49,0,0,0-2-75.45ZM71.87,69.87V49.34a58.27,58.27,0,0,0,22.79-5.18A97.31,97.31,0,0,1,98.2,69.87Zm0-22.53V17c.89,0,1.79.05,2.67.11,8.24,2.21,15.33,11.7,19.55,25.12A56.06,56.06,0,0,1,71.87,47.34ZM69.87,17V47.36a56.3,56.3,0,0,1-22.31-4.87C51.76,29,58.86,19.37,67.13,17.11,68,17.05,69,17,69.87,17Zm0,32.37V69.87H43.53A97.72,97.72,0,0,1,47,44.42,58.25,58.25,0,0,0,69.87,49.36Zm0,22.51V88A58.07,58.07,0,0,0,46,93.42a99.86,99.86,0,0,1-2.48-21.55Zm0,18.17v34.73c-.8,0-1.58,0-2.37-.08-9.18-2.25-17-13.57-21-29.3A56.14,56.14,0,0,1,69.87,90Zm4.33,34.65c-.78.07-1.56.1-2.33.1V90.05a56.22,56.22,0,0,1,23.3,5.62C91.11,111.27,83.34,122.48,74.2,124.69ZM71.87,88.05V71.87H98.2a99.53,99.53,0,0,1-2.54,21.82A58.22,58.22,0,0,0,71.87,88.05Zm52.89-18.18H100.2a98.35,98.35,0,0,0-3.75-26.55,59.16,59.16,0,0,0,13.7-9.42A53.73,53.73,0,0,1,124.76,69.87Zm-16-37.4a56.52,56.52,0,0,1-12.91,8.9c-3.47-10.79-8.79-19.16-15.1-23.5A53.6,53.6,0,0,1,108.76,32.47ZM60.93,17.9c-6.35,4.39-11.69,12.86-15.15,23.77a56.77,56.77,0,0,1-13.09-8.85A54,54,0,0,1,60.93,17.9ZM31.31,34.27A58.55,58.55,0,0,0,45.2,43.61a98.18,98.18,0,0,0-3.67,26.26H17A53.6,53.6,0,0,1,31.31,34.27ZM17,71.87H41.53A100.54,100.54,0,0,0,44.2,94.29a59,59,0,0,0-14.94,10.79A53.65,53.65,0,0,1,17,71.87Zm42.29,51.67a54.2,54.2,0,0,1-28.7-16.93A56.83,56.83,0,0,1,44.7,96.28c3.4,12.8,9.28,22.79,16.42,27.63C60.5,123.79,59.87,123.68,59.26,123.54Zm21.45.3c7-4.82,12.84-14.66,16.24-27.26A57,57,0,0,1,110.89,107,53.49,53.49,0,0,1,80.71,123.84Zm31.49-18.36A58.76,58.76,0,0,0,97.46,94.6a100.73,100.73,0,0,0,2.74-22.73h24.56A53.72,53.72,0,0,1,112.2,105.48Z"/></svg>